<?xml version="1.0" standalone="no"?>
<!DOCTYPE svg PUBLIC "-//W3C//DTD SVG 20010904//EN"
 "http://www.w3.org/TR/2001/REC-SVG-20010904/DTD/svg10.dtd">
<svg version="1.0" xmlns="http://www.w3.org/2000/svg"
 width="2000.000000pt" height="2000.000000pt" viewBox="0 0 2000.000000 2000.000000"
 preserveAspectRatio="xMidYMid meet">

<g transform="translate(0.000000,2000.000000) scale(0.100000,-0.100000)"
fill="#000000" stroke="none">
<path d="M10580 18557 c-3 -2 -41 -7 -85 -10 -524 -38 -1119 -255 -1625 -592
-202 -134 -340 -246 -475 -386 -319 -330 -508 -701 -621 -1216 l-38 -172 -100
-42 c-219 -92 -559 -275 -786 -423 -545 -357 -895 -838 -991 -1361 -29 -157
-31 -416 -6 -585 23 -147 67 -323 115 -453 43 -119 186 -405 268 -537 153
-249 370 -476 602 -634 39 -27 72 -53 72 -57 0 -5 -25 -55 -56 -111 -404 -740
-570 -1248 -579 -1778 -7 -430 74 -696 325 -1072 124 -183 284 -365 339 -383
18 -5 18 -9 5 -52 -8 -25 -14 -65 -14 -88 l0 -42 -87 -6 c-161 -11 -371 -90
-456 -173 -20 -20 -81 -102 -134 -183 -180 -274 -312 -428 -472 -551 -42 -32
-97 -80 -122 -107 -97 -100 -181 -255 -209 -385 l-13 -56 -52 43 c-29 23 -75
50 -103 59 l-49 17 -6 52 c-17 137 -82 256 -163 297 -27 14 -50 25 -51 25 0 0
14 59 32 131 47 188 62 329 46 452 -18 139 -79 367 -156 587 -101 285 -99 276
-85 429 19 217 80 541 239 1279 50 226 93 439 96 472 20 181 -113 285 -270
211 -52 -24 -112 -83 -140 -136 -9 -17 -58 -184 -111 -373 -131 -473 -196
-692 -265 -902 -65 -195 -143 -369 -162 -362 -47 15 -93 220 -211 927 -112
669 -137 764 -226 844 -40 36 -45 38 -96 34 -72 -6 -118 -43 -164 -133 l-35
-68 1 -161 c2 -174 18 -335 109 -1055 30 -238 55 -439 55 -446 0 -11 -7 -11
-32 -4 -73 21 -162 -14 -244 -96 l-52 -52 -74 5 c-61 4 -83 1 -126 -18 -96
-41 -159 -133 -204 -296 -19 -69 -22 -105 -22 -294 -1 -236 9 -327 69 -626 74
-367 119 -497 218 -631 25 -34 72 -83 104 -109 l58 -48 -84 -86 c-245 -250
-503 -631 -605 -895 -62 -163 -80 -246 -80 -385 -1 -156 16 -215 112 -391 125
-227 302 -474 463 -644 44 -47 49 -58 78 -170 63 -242 195 -514 350 -722 36
-48 115 -137 176 -198 262 -261 577 -421 935 -475 109 -16 349 -14 455 5 482
85 902 426 1261 1024 35 58 64 99 64 91 0 -25 -106 -633 -140 -799 -75 -373
-168 -731 -253 -971 -24 -69 -103 -267 -175 -441 -347 -831 -507 -1415 -517
-1879 -4 -182 0 -220 25 -220 16 0 17 10 14 108 -7 235 45 580 138 922 82 300
191 602 395 1093 277 670 359 1001 603 2457 137 817 187 1066 331 1645 120
482 165 701 203 990 47 352 51 419 51 771 l0 342 97 -49 c53 -27 303 -137 555
-244 252 -108 524 -228 606 -267 l147 -71 59 -91 c270 -419 422 -873 477
-1419 20 -194 14 -646 -10 -847 -52 -436 -100 -660 -319 -1495 -52 -198 -150
-576 -217 -840 -347 -1368 -611 -2260 -838 -2835 -34 -86 -62 -159 -62 -164 0
-4 10 -6 22 -4 19 2 31 26 76 138 116 295 318 915 462 1420 124 432 208 752
491 1860 49 195 117 456 150 579 152 565 233 947 264 1241 4 36 9 72 10 81 2
9 9 97 16 194 11 165 8 593 -5 670 -3 17 -10 73 -16 125 -57 470 -230 944
-476 1298 -24 34 -41 62 -39 62 2 0 39 -21 82 -47 526 -317 763 -765 766
-1448 1 -364 -33 -603 -218 -1530 -196 -983 -464 -2207 -806 -3685 -103 -443
-212 -902 -225 -942 -4 -14 0 -18 18 -18 23 0 27 12 97 307 506 2120 1051
4673 1136 5318 3 28 8 64 11 80 26 192 36 493 23 664 -40 508 -246 905 -612
1179 -205 154 -394 250 -932 475 -550 230 -742 320 -873 409 -60 41 -71 54
-102 120 -34 71 35 246 155 395 116 144 284 271 400 302 22 6 89 13 149 17
l110 7 -38 -51 c-58 -79 -76 -143 -76 -266 0 -175 50 -296 175 -420 76 -77
300 -242 503 -371 338 -215 558 -362 633 -422 107 -87 257 -247 318 -339 160
-241 276 -602 306 -954 4 -41 9 -86 11 -100 6 -39 5 -479 -1 -556 -51 -595
-163 -1105 -405 -1839 -55 -165 -120 -374 -145 -465 -85 -308 -188 -804 -325
-1560 -185 -1020 -324 -1712 -386 -1912 -4 -13 0 -18 14 -18 16 0 24 19 51
120 55 206 150 653 230 1083 22 115 41 210 43 212 1 2 98 0 213 -3 116 -4 277
-7 360 -7 l149 0 28 205 c15 113 34 259 43 325 15 112 49 361 59 430 2 17 5
41 5 55 1 23 8 27 74 44 419 108 1141 393 1450 574 32 19 60 32 62 30 2 -1 6
-178 9 -393 3 -214 9 -472 12 -572 l6 -182 -99 -30 c-383 -118 -693 -164
-1090 -164 -199 0 -269 -8 -170 -20 86 -11 513 1 642 17 175 23 393 67 545
112 69 20 135 39 148 41 l22 5 0 -196 c0 -169 2 -197 16 -203 8 -3 88 4 178
16 89 12 185 25 213 28 l51 5 6 -53 c3 -30 11 -110 16 -179 10 -109 40 -436
55 -585 10 -104 66 -611 70 -635 2 -14 4 -37 4 -52 1 -21 6 -28 21 -28 18 0
20 5 15 37 -3 21 -10 83 -15 138 -6 55 -13 116 -15 135 -5 37 -31 298 -40 390
-3 30 -8 73 -10 95 -2 22 -7 72 -10 110 -3 39 -8 86 -10 105 -16 117 -86 1047
-100 1315 -3 66 -8 136 -10 155 -2 19 -7 112 -11 205 -3 94 -7 188 -9 210 -24
257 -24 1602 -1 1755 2 14 7 70 11 125 13 207 58 507 101 680 27 104 105 335
150 444 98 233 253 494 410 691 92 115 297 318 420 416 277 222 649 425 876
480 235 56 285 82 325 170 36 79 30 147 -21 248 -86 170 -344 425 -731 726
-66 52 -113 91 -105 88 193 -75 549 -232 744 -330 235 -118 332 -193 379 -296
48 -105 18 -269 -73 -403 -26 -39 -36 -60 -28 -65 16 -10 62 49 105 136 21 41
39 77 40 78 5 10 40 -22 113 -103 101 -112 166 -207 185 -268 12 -42 12 -48
-3 -66 -24 -30 -161 -62 -482 -116 -690 -115 -922 -201 -1236 -456 -422 -343
-783 -797 -949 -1194 -105 -250 -126 -369 -124 -700 1 -137 2 -266 4 -285 1
-19 5 -159 9 -310 4 -151 9 -300 11 -330 2 -30 7 -145 10 -255 3 -110 7 -231
10 -270 2 -38 7 -146 10 -240 3 -93 7 -197 10 -230 2 -33 7 -136 10 -230 3
-93 8 -204 10 -245 2 -41 7 -136 10 -210 3 -74 7 -171 10 -215 3 -44 7 -127
10 -185 15 -306 63 -1159 69 -1245 3 -33 8 -109 11 -170 4 -60 8 -121 10 -135
2 -14 9 -105 16 -202 l12 -178 30 0 29 0 -6 78 c-7 85 -10 125 -26 347 -6 83
-12 182 -15 220 -11 157 -24 377 -30 490 -3 66 -8 145 -10 175 -2 30 -7 111
-10 180 -3 69 -7 150 -10 180 -2 30 -7 125 -10 210 -3 85 -8 180 -10 210 -2
30 -7 116 -10 190 -7 163 -13 309 -20 450 -7 144 -23 532 -30 720 -3 85 -7
196 -10 245 -2 50 -7 173 -10 275 -3 102 -8 219 -10 260 -5 100 -20 692 -20
805 0 182 25 313 95 507 118 325 405 728 755 1060 94 89 258 228 263 224 2 -2
-44 -95 -102 -207 -364 -709 -523 -1229 -566 -1854 -8 -121 -5 -771 5 -860 2
-22 9 -116 15 -210 6 -93 13 -195 15 -225 7 -80 23 -311 30 -410 3 -47 7 -105
10 -130 2 -25 7 -90 10 -145 3 -55 10 -154 15 -220 13 -165 18 -229 30 -380
19 -266 45 -583 55 -690 2 -27 7 -77 9 -110 9 -96 26 -279 42 -435 8 -80 17
-170 19 -200 3 -30 24 -207 45 -393 22 -185 40 -342 40 -347 0 -6 9 -10 20
-10 24 0 24 3 5 150 -32 249 -86 738 -105 950 -6 69 -13 143 -15 165 -10 97
-45 498 -60 695 -26 339 -82 1088 -90 1205 -3 44 -8 100 -10 125 -2 25 -7 83
-10 130 -3 47 -8 110 -10 140 -98 1133 -24 1783 288 2535 61 146 154 349 267
578 107 218 109 220 295 312 198 98 460 170 864 236 l202 33 72 -24 c161 -55
330 -157 459 -279 127 -119 123 -108 88 -237 -53 -203 -116 -363 -290 -739
-101 -217 -192 -433 -206 -489 -6 -26 -8 -27 -17 -10 -19 34 -15 567 6 733 10
79 16 145 14 147 -6 6 -45 -181 -64 -305 -20 -137 -22 -370 -4 -794 8 -186 12
-340 9 -343 -3 -2 -58 7 -121 20 -222 48 -507 94 -807 131 -25 3 -160 8 -300
11 -235 6 -400 -2 -489 -23 l-24 -6 6 -576 c4 -317 9 -589 11 -606 2 -16 7
-77 10 -135 15 -238 33 -312 91 -365 90 -84 529 -323 700 -382 59 -21 98 -27
150 -27 107 2 300 60 542 163 40 17 75 31 78 31 4 0 4 -33 0 -72 -19 -212 -23
-346 -19 -683 2 -203 6 -392 9 -420 3 -27 12 -151 20 -275 9 -124 18 -245 20
-270 13 -117 55 -659 61 -775 3 -71 7 -148 9 -170 2 -22 4 -140 4 -262 1 -216
2 -223 21 -223 19 0 20 7 20 211 l0 211 23 -7 c12 -4 93 -9 181 -12 119 -4
158 -3 155 6 -3 8 -47 13 -139 15 -74 2 -154 7 -176 11 -40 7 -42 9 -48 52 -3
25 -6 83 -6 129 l0 83 69 0 c206 -1 503 125 816 345 164 116 341 307 370 401
4 12 -7 3 -27 -20 -170 -203 -248 -274 -438 -400 -277 -184 -499 -273 -722
-289 l-78 -5 -1 57 c0 31 -2 64 -3 72 -2 8 -6 60 -10 115 -7 95 -9 126 -21
255 -12 131 -35 413 -40 500 -4 52 -8 106 -10 119 -24 151 -24 1109 0 1184 2
7 6 43 10 81 3 38 10 75 15 81 12 14 45 140 64 242 18 97 62 445 71 553 5 75
9 119 21 259 10 124 146 495 266 729 37 73 68 135 68 137 0 18 -22 -3 -53 -49
-66 -99 -125 -226 -213 -461 l-53 -140 -2 120 c-1 66 -3 134 -4 150 -2 17 -6
57 -9 89 -3 32 -11 65 -17 73 -22 25 -3 141 39 248 73 183 237 551 341 765 36
74 -5 15 -80 -117 -78 -136 -171 -329 -245 -506 l-49 -118 -3 71 c-5 132 42
270 248 725 133 295 167 376 212 505 33 98 78 269 78 299 0 39 20 21 76 -64
188 -288 298 -712 328 -1260 3 -55 9 -149 12 -210 3 -60 10 -166 15 -235 5
-69 6 -461 4 -872 l-5 -748 31 -157 c88 -453 317 -1429 394 -1678 34 -110 36
-127 30 -200 -9 -123 -85 -330 -170 -464 -12 -20 -26 -47 -30 -61 -19 -61
-201 -253 -335 -354 -92 -70 -94 -74 -16 -32 113 61 243 173 349 301 l25 30
17 -55 c26 -82 31 -272 11 -402 -15 -95 -52 -247 -70 -289 -6 -14 2 -16 59
-17 l65 -1 -21 41 c-20 39 -20 42 -4 107 57 234 59 471 4 615 l-18 50 69 140
c131 264 154 419 91 610 -65 201 -301 1204 -391 1661 l-31 159 5 736 c2 404 1
789 -4 855 -5 66 -11 170 -14 230 -24 432 -47 654 -87 848 -122 590 -393 977
-828 1180 l-94 44 74 18 c84 20 135 43 163 74 15 16 18 31 14 70 -9 92 -86
211 -241 376 l-84 90 4 55 5 55 102 28 c171 47 558 213 665 286 14 10 69 46
121 81 442 293 704 668 791 1133 27 146 34 411 13 547 -64 424 -285 772 -689
1085 -207 160 -324 293 -410 465 -32 64 -75 175 -75 194 0 8 39 42 88 77 193
140 391 329 517 495 33 43 84 108 114 143 109 130 210 305 284 492 129 323
156 633 80 939 -127 518 -363 924 -764 1315 -169 165 -268 246 -439 360 -221
148 -433 255 -709 359 l-134 51 -17 100 c-75 442 -256 847 -542 1208 -104 131
-362 388 -503 501 -368 293 -756 487 -1195 595 -252 62 -404 81 -695 87 -138
3 -253 3 -255 1z m483 -71 c750 -77 1391 -389 1922 -937 322 -332 524 -670
650 -1085 37 -122 90 -363 81 -371 -3 -3 -63 11 -133 31 -70 19 -172 45 -227
57 -63 14 -144 42 -225 79 -510 231 -1108 402 -1676 480 -44 6 -93 13 -110 15
-16 2 -64 7 -105 11 -41 3 -86 8 -100 10 -99 15 -531 23 -785 15 -490 -16
-1095 -125 -1505 -271 -169 -60 -167 -60 -375 -106 -167 -38 -365 -96 -554
-163 -70 -25 -111 -35 -111 -28 0 37 76 329 119 457 171 512 476 892 986 1231
661 438 1441 647 2148 575z m-198 -1736 c196 -9 390 -25 535 -45 549 -74 1041
-205 1540 -410 126 -51 143 -61 90 -51 -136 24 -564 68 -775 81 -55 3 -131 8
-170 10 -38 3 -124 7 -190 10 -66 3 -158 7 -205 10 -47 2 -148 7 -225 10 -77
4 -160 8 -185 10 -25 2 -92 7 -150 10 -97 6 -381 30 -475 40 -22 3 -105 12
-185 20 -80 9 -161 18 -180 20 -54 7 -337 34 -415 39 -38 3 -107 8 -153 11
-207 15 -624 4 -802 -21 -75 -11 -42 2 114 45 288 79 611 143 886 175 208 24
268 29 650 44 36 1 169 -2 295 -8z m-1110 -295 c17 -2 73 -6 125 -10 96 -6
375 -33 615 -60 246 -28 316 -35 510 -50 162 -12 454 -28 720 -40 201 -9 327
-15 395 -20 36 -2 108 -7 160 -10 994 -61 1741 -272 2309 -653 455 -305 824
-725 1021 -1160 91 -203 177 -484 199 -652 20 -154 -2 -390 -51 -555 -28 -97
-79 -237 -84 -232 -3 2 3 31 11 63 43 161 58 450 34 662 -93 847 -692 1561
-1653 1972 -563 240 -1145 355 -2206 435 -164 12 -485 35 -580 40 -58 3 -121
8 -140 10 -19 2 -93 7 -165 10 -71 3 -146 8 -165 10 -19 2 -91 7 -160 10 -69
4 -136 8 -150 10 -14 2 -81 6 -150 10 -69 4 -138 8 -155 10 -16 2 -91 6 -165
10 -74 4 -144 9 -155 12 -30 6 -698 5 -747 -1 -24 -3 -90 -8 -147 -11 -57 -4
-111 -8 -120 -10 -9 -1 -63 -8 -121 -15 -639 -74 -1247 -273 -1703 -559 -735
-460 -1118 -1134 -1095 -1930 4 -144 3 -152 -9 -100 -46 204 -53 515 -15 704
108 534 470 1008 1042 1362 699 433 1455 689 2195 742 117 9 524 6 600 -4z
m155 -239 c14 -2 75 -7 135 -10 158 -9 261 -16 330 -21 33 -3 101 -7 150 -10
231 -14 577 -35 645 -40 41 -3 176 -12 300 -20 439 -30 911 -70 1055 -90 17
-2 86 -11 155 -20 288 -36 631 -104 859 -170 1050 -306 1775 -910 2031 -1693
139 -427 140 -859 3 -1227 -41 -111 -148 -312 -217 -408 -140 -196 -315 -372
-520 -524 -55 -40 -102 -73 -106 -73 -9 0 -38 165 -50 286 -10 99 -6 472 6
529 3 17 1 84 -5 149 -65 691 -610 1593 -1256 2076 -690 516 -1192 709 -2190
839 -627 83 -1121 89 -1537 21 -567 -93 -1088 -336 -1609 -751 -137 -109 -314
-266 -434 -385 -325 -320 -516 -686 -591 -1129 -26 -152 -24 -479 4 -652 50
-312 39 -438 -55 -621 -32 -63 -61 -116 -65 -118 -10 -6 -114 64 -203 137 -93
76 -256 245 -332 344 -208 274 -334 563 -395 905 -8 48 -13 153 -13 295 1 180
5 242 22 340 175 977 1020 1681 2333 1945 264 53 507 82 865 104 74 5 650 -2
685 -8z m320 -463 c32 -126 20 -289 -34 -459 -14 -43 -23 -81 -20 -84 21 -20
78 147 94 272 11 92 6 177 -16 255 -8 28 -14 54 -14 58 0 4 31 6 68 3 89 -5
181 -49 265 -128 79 -73 130 -160 158 -266 24 -90 39 -108 39 -45 0 141 -128
333 -275 409 -47 25 -48 27 -22 30 107 13 338 -124 428 -254 16 -24 36 -44 44
-44 19 0 19 3 -4 48 -28 55 -145 161 -226 205 l-70 38 90 -6 c198 -13 640 -69
868 -109 73 -12 82 -17 128 -62 60 -59 114 -138 171 -250 39 -77 58 -101 58
-74 0 37 -126 245 -192 317 l-43 46 40 -7 c77 -14 128 -48 241 -160 107 -107
184 -207 287 -371 27 -42 51 -74 54 -71 7 7 -68 145 -132 241 -73 109 -161
211 -234 269 -34 27 -59 51 -57 54 8 7 306 -78 434 -124 152 -55 276 -110 405
-177 110 -57 173 -117 269 -253 185 -264 310 -532 403 -864 55 -197 56 -199
62 -183 7 20 -26 178 -63 302 -85 278 -217 545 -378 761 -96 129 -96 127 -30
85 181 -115 321 -287 530 -646 90 -155 124 -188 58 -57 -82 165 -222 379 -334
510 -45 52 -45 52 -10 28 335 -232 620 -527 866 -896 145 -218 301 -826 321
-1257 28 -571 -46 -1056 -272 -1802 -157 -516 -184 -637 -192 -871 -6 -172 4
-275 38 -403 95 -356 421 -658 675 -626 84 10 69 30 -24 30 -121 0 -225 50
-344 163 -204 194 -312 472 -307 786 3 233 34 377 194 901 208 686 287 1155
280 1660 -6 369 -64 722 -170 1034 -19 58 -33 106 -32 108 6 5 134 -267 176
-374 52 -130 93 -270 122 -409 24 -116 24 -132 20 -599 -4 -395 36 -595 166
-847 90 -175 202 -301 402 -452 310 -235 524 -517 619 -816 48 -152 63 -235
69 -400 7 -178 -12 -355 -53 -493 -25 -84 -24 -74 3 73 20 106 22 357 4 460
-25 139 -113 370 -142 370 -6 0 -9 -6 -6 -12 107 -243 150 -480 128 -702 -13
-131 -38 -260 -76 -391 -34 -118 -53 -158 -114 -248 -165 -244 -407 -458 -717
-631 -137 -76 -195 -87 -454 -81 -107 2 -210 7 -229 11 -21 4 -32 3 -28 -3 13
-20 164 -38 319 -38 86 0 154 -3 152 -7 -9 -15 -329 -129 -426 -152 -23 -5
-27 -2 -33 23 -10 49 -81 136 -152 190 -102 76 -449 250 -743 371 -103 43
-119 53 -153 96 -85 110 -168 310 -197 474 -16 90 -14 280 3 370 15 72 9 112
-11 74 -35 -70 -45 -343 -17 -479 31 -152 89 -294 164 -405 17 -24 29 -45 27
-47 -4 -4 -225 87 -339 140 -89 42 -97 49 -126 98 -17 30 -43 90 -58 134 -22
68 -26 98 -27 200 -1 142 8 178 100 417 83 218 104 293 111 406 l6 92 89 88
c194 189 264 309 329 567 11 44 24 96 30 116 l9 36 67 6 c38 3 88 13 112 21
31 12 42 13 38 3 -3 -6 -41 -89 -85 -182 -156 -335 -215 -514 -247 -757 -19
-147 0 -434 40 -589 81 -312 300 -640 535 -799 72 -49 174 -97 215 -102 53 -6
35 17 -41 51 -147 66 -260 152 -368 281 -173 205 -280 432 -333 705 -24 125
-23 403 1 540 34 189 85 337 234 678 83 190 89 200 134 233 30 21 66 62 95
107 40 62 162 227 168 227 2 0 -15 -55 -37 -122 -176 -550 -287 -1002 -319
-1307 -17 -167 -7 -371 25 -496 33 -126 106 -279 181 -374 115 -146 318 -274
520 -328 90 -23 118 -26 275 -27 150 0 187 3 256 22 147 40 286 110 371 187
26 23 45 46 41 50 -4 5 -40 -14 -80 -40 -97 -65 -208 -119 -315 -152 -82 -25
-100 -27 -273 -27 -173 0 -191 2 -275 27 -166 51 -300 124 -404 222 -222 208
-318 502 -289 880 28 370 210 1051 468 1760 77 209 60 560 -34 744 -40 76
-127 145 -208 165 -65 15 -152 151 -165 255 -6 55 2 64 32 31 21 -24 84 -64
90 -58 2 2 7 26 11 53 3 28 18 77 33 110 l27 60 23 -75 c40 -131 90 -220 192
-340 25 -30 54 -70 65 -87 25 -45 41 -41 49 10 4 23 22 101 40 172 18 72 38
162 44 202 24 158 7 346 -48 557 -29 111 -90 281 -97 273 -2 -2 16 -73 40
-158 73 -255 99 -474 77 -634 -12 -86 -82 -375 -91 -374 -11 1 -127 152 -163
211 -36 60 -78 173 -92 252 -6 32 -1 51 34 125 70 146 75 260 21 404 -26 70
-36 71 -13 2 9 -30 16 -87 16 -140 1 -75 -4 -102 -28 -165 -15 -41 -40 -97
-56 -125 -15 -27 -48 -90 -72 -140 l-45 -89 -11 39 c-14 49 -33 156 -71 390
-30 190 -56 288 -90 344 -32 52 -35 30 -6 -56 35 -106 50 -176 86 -393 16
-102 36 -209 44 -238 19 -69 10 -62 -89 70 -236 313 -362 634 -382 971 -3 60
-10 107 -16 107 -15 0 -2 -238 18 -340 25 -126 79 -280 145 -413 71 -141 126
-227 233 -367 l81 -105 -72 64 c-308 276 -552 664 -682 1083 -61 196 -163 498
-167 495 -2 -2 18 -93 43 -203 126 -545 300 -892 633 -1263 35 -39 55 -68 45
-64 -11 4 -82 40 -159 81 -294 157 -524 317 -642 447 -192 212 -357 513 -439
800 -34 120 -34 120 -30 55 9 -129 56 -272 152 -460 124 -244 267 -430 434
-564 33 -26 34 -27 5 -13 -102 51 -314 224 -418 340 -220 247 -361 496 -493
872 -29 83 -53 145 -53 138 -2 -26 71 -256 114 -363 188 -468 504 -844 880
-1047 33 -18 57 -33 53 -33 -23 -1 -185 59 -253 92 -358 179 -604 476 -845
1023 -108 244 -139 344 -177 570 -20 116 -39 226 -43 245 -11 51 -11 5 -1 -65
10 -66 14 -105 36 -340 20 -215 19 -308 -6 -428 -43 -216 -154 -429 -299 -577
-91 -93 -174 -149 -267 -181 -57 -20 -133 -39 -133 -34 0 1 28 16 63 33 81 40
163 110 230 195 153 192 279 560 292 849 l5 113 -15 -85 c-46 -266 -83 -408
-151 -574 -58 -141 -120 -242 -203 -330 -131 -137 -241 -185 -485 -210 -81 -9
-159 -18 -174 -22 -26 -5 -26 -5 6 17 18 12 87 46 153 75 154 69 218 110 305
198 83 84 119 134 178 253 81 162 123 335 133 548 6 122 -8 292 -30 377 -10
42 -12 16 -12 -195 0 -190 -4 -262 -18 -337 -53 -282 -151 -477 -319 -635 -69
-65 -98 -84 -235 -150 -86 -42 -177 -90 -202 -107 -41 -28 -44 -29 -26 -7 11
13 102 105 201 204 100 99 205 212 233 250 108 146 202 376 224 548 9 69 -7
58 -22 -15 -36 -175 -114 -359 -212 -498 -29 -41 -141 -165 -249 -275 -108
-110 -206 -213 -219 -230 -21 -29 -22 -29 -16 -5 17 62 91 213 195 394 134
235 183 343 220 491 27 106 52 304 45 355 -2 14 -4 40 -4 58 -1 21 -5 32 -13
30 -13 -5 -14 -11 -22 -161 -7 -140 -25 -236 -71 -374 -39 -117 -64 -169 -183
-378 -108 -190 -155 -289 -185 -394 -28 -98 -29 -96 -48 102 -10 100 -10 154
-1 255 19 195 44 292 153 599 84 234 113 335 135 456 22 126 21 295 -3 371
-22 70 -50 92 -40 30 4 -22 12 -81 18 -131 21 -173 -16 -358 -140 -705 -139
-388 -156 -470 -155 -748 0 -154 4 -221 16 -270 9 -36 15 -66 14 -68 -6 -5
-55 137 -75 215 -41 161 -53 264 -57 493 -3 124 -4 233 -4 243 0 35 -29 15
-79 -51 -115 -155 -314 -314 -467 -372 -30 -12 -29 -9 37 75 124 160 244 367
307 532 48 124 48 147 0 43 -51 -111 -116 -220 -236 -399 -166 -248 -335 -429
-500 -538 -201 -132 -580 -303 -843 -378 -67 -20 -126 -34 -131 -33 -5 2 20
18 54 37 136 73 419 246 530 324 257 181 468 378 622 583 94 126 183 278 168
288 -5 3 -33 -33 -61 -80 -179 -292 -446 -558 -805 -803 -148 -100 -546 -344
-546 -334 0 3 35 49 78 102 110 137 314 338 562 556 308 271 423 379 535 505
291 327 443 635 470 952 7 77 0 138 -15 138 -4 0 -11 -42 -14 -92 -18 -240
-104 -477 -253 -700 -139 -209 -315 -395 -668 -707 -365 -322 -570 -531 -694
-706 -29 -41 -41 -52 -37 -35 3 14 17 79 32 145 75 348 240 704 464 1003 90
121 314 359 425 450 27 23 46 44 42 48 -25 25 -358 -300 -493 -481 -229 -307
-389 -656 -461 -1007 -9 -48 -21 -82 -25 -76 -9 15 -1 227 13 333 40 309 162
627 317 825 l35 45 -42 -40 c-100 -95 -221 -301 -276 -470 -64 -198 -102 -504
-89 -720 7 -127 16 -159 42 -151 9 2 65 16 124 31 58 14 138 37 177 50 39 13
71 22 71 19 0 -3 -13 -24 -29 -47 -138 -202 -292 -587 -277 -695 l6 -44 -35
31 c-38 33 -96 61 -126 61 -17 0 -19 9 -19 94 0 107 -15 195 -70 417 -82 324
-87 430 -35 659 4 18 0 14 -15 -13 -49 -88 -63 -260 -35 -423 9 -49 33 -161
54 -249 55 -223 62 -261 66 -364 4 -113 0 -128 -36 -136 -40 -9 -120 -84 -152
-142 -45 -84 -60 -170 -60 -343 1 -181 20 -289 79 -428 20 -48 36 -94 36 -102
0 -8 -3 -67 -7 -130 -12 -183 24 -381 108 -600 49 -129 192 -411 359 -710 217
-390 244 -453 309 -735 21 -93 41 -180 44 -192 5 -23 4 -23 -85 -23 l-90 0 0
44 c0 30 -11 66 -36 116 -39 78 -106 150 -384 410 -225 211 -371 411 -481 660
-119 268 -168 480 -176 766 -6 193 3 310 38 478 22 104 91 331 115 379 8 15
12 27 9 27 -11 0 -84 -165 -114 -257 -32 -97 -65 -253 -80 -373 -14 -104 -5
-406 14 -520 85 -508 334 -936 750 -1292 201 -171 311 -316 303 -399 -3 -32
-5 -34 -38 -33 -137 4 -130 3 -130 27 -1 66 -82 166 -395 487 -83 85 -182 191
-219 235 -248 293 -391 652 -410 1033 -4 75 -16 96 -16 26 1 -245 58 -504 162
-724 87 -185 193 -321 499 -643 233 -245 307 -330 325 -373 28 -67 39 -64
-228 -64 -307 -1 -368 -8 -472 -59 l-81 -40 -125 127 c-160 162 -246 291 -325
484 -53 129 -79 112 -30 -19 76 -200 257 -448 415 -569 l49 -37 -27 -20 c-15
-11 -65 -58 -112 -103 l-85 -83 -76 102 c-276 369 -458 835 -504 1287 -3 30
-8 71 -10 90 -2 19 -4 117 -4 218 -1 172 -10 223 -25 150 -4 -18 -9 -91 -11
-163 -10 -403 87 -833 271 -1196 74 -146 195 -332 284 -437 l61 -72 -48 -74
c-26 -40 -53 -81 -58 -91 -30 -51 -267 229 -441 521 -88 147 -154 330 -192
529 -27 144 -23 499 7 675 44 259 134 557 243 810 63 145 251 517 364 720 130
234 154 286 171 364 21 102 18 294 -7 451 -55 346 -32 668 71 978 37 111 126
313 134 305 2 -2 -12 -46 -32 -98 -80 -213 -124 -456 -124 -686 -1 -159 17
-304 36 -304 9 0 11 51 9 218 -2 119 2 253 7 297 27 215 101 458 200 662 98
200 156 280 324 440 82 79 151 141 153 138 2 -2 -6 -18 -18 -34 -53 -76 -161
-340 -205 -504 -45 -165 -64 -305 -90 -637 -32 -419 -56 -569 -111 -707 -14
-35 -24 -67 -21 -69 9 -9 58 83 83 155 34 98 71 362 89 646 24 358 63 567 152
805 66 176 187 393 263 468 32 33 229 184 335 257 l70 48 -61 -64 c-128 -134
-237 -281 -311 -419 -49 -91 -105 -229 -100 -248 3 -12 8 -8 17 17 7 18 34 77
60 130 180 366 497 676 860 841 359 164 742 258 1155 283 22 1 63 3 91 5 l51
3 13 -48z m1526 -1509 c41 -84 99 -191 129 -238 l54 -86 -67 7 c-97 11 -269 8
-329 -6 -83 -20 -133 -91 -133 -189 0 -75 17 -85 137 -83 106 2 252 -9 515
-39 l167 -18 58 -44 c170 -130 377 -214 568 -232 40 -3 73 -18 160 -71 132
-81 403 -217 416 -209 5 3 9 -29 9 -73 0 -43 3 -151 7 -239 5 -146 1 -213 -23
-389 -114 -840 -242 -1484 -335 -1681 -179 -378 -907 -865 -1674 -1119 -472
-157 -732 -166 -1153 -39 -356 107 -776 322 -1090 557 -315 236 -502 444 -604
672 -119 266 -295 1042 -413 1828 l-24 159 25 86 c54 188 149 390 259 555 l60
90 115 47 c63 25 158 67 211 92 90 42 102 45 205 51 230 14 690 19 749 9 49
-8 64 -8 84 5 21 14 23 21 19 77 -6 94 -31 135 -106 172 -79 39 -182 64 -294
71 l-87 6 27 32 c15 18 45 38 67 45 135 42 305 153 433 283 l91 93 0 -145 c0
-164 12 -288 41 -439 38 -192 132 -427 168 -420 9 2 18 14 20 28 6 54 25 81
71 104 80 41 120 47 341 56 238 9 291 19 405 77 160 81 293 224 395 425 91
180 130 327 130 498 l0 85 60 -150 c34 -82 94 -218 136 -301z m-2152 -339
c149 -43 188 -72 206 -150 12 -52 3 -77 -24 -69 -47 16 -688 -1 -796 -21 -29
-5 -39 -13 113 86 56 36 129 90 162 121 33 30 67 58 75 61 29 13 179 -3 264
-28z m2329 -12 c17 -3 41 -25 69 -61 23 -31 75 -91 116 -134 41 -43 68 -78 60
-78 -9 0 -40 5 -69 10 -142 28 -458 60 -581 60 l-78 0 0 43 c0 50 25 103 60
129 14 10 50 22 80 27 58 10 298 12 343 4z m1593 -978 c3 -82 27 -150 76 -215
44 -58 44 -60 19 -60 -22 0 -89 -43 -113 -73 -17 -21 -18 -19 -18 58 0 44 -3
152 -6 240 l-6 160 23 -22 c19 -18 23 -34 25 -88z m-5539 -256 c45 -22 91 -73
117 -129 14 -31 68 -311 62 -318 -2 -1 -19 24 -40 57 -46 75 -126 148 -172
157 -107 20 -174 -93 -174 -291 0 -159 63 -345 151 -445 l31 -35 -22 32 c-79
119 -130 295 -130 448 0 111 9 156 43 206 33 49 67 63 109 46 39 -17 128 -109
129 -134 0 -10 2 -27 4 -38 2 -11 -15 -74 -38 -140 -37 -106 -42 -130 -42
-205 1 -103 22 -151 97 -222 64 -61 84 -62 28 -2 -100 109 -120 229 -61 381
17 44 37 101 45 125 l12 43 32 -95 c18 -52 60 -228 93 -390 33 -162 75 -356
94 -430 19 -74 32 -136 30 -138 -9 -9 -143 39 -188 67 -28 18 -67 58 -95 97
-26 36 -93 124 -150 196 -210 266 -273 427 -275 703 -1 246 60 403 178 456 52
24 79 24 132 -2z m5739 -64 c105 -31 175 -125 216 -293 31 -123 30 -369 -1
-487 -31 -117 -98 -244 -201 -380 -51 -66 -111 -150 -134 -186 -48 -73 -111
-121 -191 -144 -64 -20 -155 -30 -155 -19 0 5 11 62 25 128 39 183 100 549
150 901 25 176 52 335 60 353 22 48 93 121 129 131 44 13 47 13 102 -4z
m-5790 -1142 c45 -56 101 -129 123 -162 67 -99 164 -162 282 -184 58 -10 59
-11 70 -51 27 -106 104 -320 143 -401 24 -49 76 -133 116 -185 110 -145 159
-257 202 -453 20 -92 22 -127 21 -357 -1 -140 -4 -266 -6 -280 -3 -14 -5 -40
-6 -59 l-1 -34 -147 6 c-82 4 -149 6 -149 7 -1 0 -5 35 -9 78 -21 234 -104
484 -248 747 -23 44 -108 198 -186 343 -188 345 -263 515 -321 727 -30 114
-48 322 -34 407 l7 38 30 -43 c17 -23 68 -88 113 -144z m-4170 -322 c80 -49
120 -208 239 -951 48 -297 111 -616 141 -709 44 -139 77 -168 130 -116 78 78
222 516 459 1390 64 233 86 286 141 335 95 83 203 78 250 -12 32 -61 22 -136
-80 -598 -104 -476 -118 -546 -170 -820 -49 -262 -68 -408 -69 -540 l-2 -115
68 -183 c107 -291 173 -545 181 -701 9 -162 -34 -355 -160 -731 l-86 -255 6
-81 c5 -76 34 -241 57 -326 16 -63 -69 -316 -185 -548 -197 -394 -564 -810
-885 -1004 -45 -27 -83 -47 -85 -45 -4 4 -9 123 -21 469 -20 568 -35 944 -40
1000 -14 163 -28 282 -41 364 -8 48 -13 90 -12 92 2 2 34 -1 71 -7 36 -6 77
-9 89 -6 18 3 16 5 -8 6 -47 2 -198 47 -257 78 -176 88 -297 221 -370 403 -45
115 -135 553 -161 790 -45 412 23 723 176 801 75 39 196 34 191 -7 -10 -75 -9
-217 2 -314 26 -229 133 -646 192 -750 2 -3 -19 -14 -47 -24 -48 -17 -53 -17
-95 -2 -54 21 -115 87 -149 159 -63 138 -144 464 -148 591 0 34 2 80 6 104 9
51 0 55 -20 7 -54 -130 74 -671 196 -825 62 -78 197 -108 253 -56 25 23 26 24
43 5 28 -31 118 -70 164 -71 l42 0 -4 -112 c-3 -72 -13 -140 -28 -194 -32
-119 -10 -131 31 -17 18 49 23 86 25 194 l2 135 35 17 c41 22 95 81 109 121
10 28 11 28 62 21 28 -4 114 -8 191 -8 l140 1 -86 -86 c-197 -195 -289 -422
-250 -612 19 -88 32 -71 27 35 -9 211 69 384 263 577 l96 96 72 12 c90 15 123
27 123 47 0 19 -5 19 -130 -6 -80 -16 -143 -21 -265 -21 -271 0 -399 43 -457
156 -56 109 0 193 177 271 104 46 400 143 478 156 125 21 281 -19 385 -98 48
-36 54 -17 7 23 -108 91 -262 135 -400 114 -73 -11 -313 -84 -422 -128 l-52
-21 -5 57 c-23 235 -60 441 -92 519 -8 18 -30 50 -49 71 -32 37 -35 44 -54
188 -74 542 -148 1181 -158 1365 -7 134 4 195 48 263 50 80 114 104 175 67z
m5194 -995 c15 -57 58 -176 125 -340 79 -193 108 -310 102 -406 -8 -116 -2
-111 -126 -110 -154 2 -152 1 -146 64 3 28 8 65 11 82 9 60 5 430 -6 509 -14
102 -45 223 -75 297 l-24 58 65 -57 c49 -44 67 -66 74 -97z m3790 -64 c-13
-79 -42 -171 -114 -355 -89 -227 -109 -351 -82 -506 9 -53 32 -129 51 -173 31
-72 34 -92 9 -69 -27 25 -222 70 -376 86 l-57 6 11 31 c16 46 3 200 -28 318
-36 139 -37 239 -5 337 l23 73 72 39 c39 22 72 39 73 37 1 -1 -6 -26 -17 -54
-47 -123 -63 -328 -35 -437 30 -114 95 -215 129 -202 17 7 16 10 -8 40 -43 52
-84 147 -96 220 -24 155 36 435 104 483 11 8 71 49 131 91 61 42 135 97 165
121 l55 45 3 -29 c2 -16 -1 -62 -8 -102z m-3430 -174 c76 -51 139 -99 143
-111 19 -50 14 -518 -6 -522 -1 0 -57 1 -125 3 l-123 3 8 37 c13 60 5 191 -17
275 -11 43 -41 129 -67 190 -121 293 -143 349 -143 358 0 5 44 -26 98 -68 53
-42 158 -116 232 -165z m2814 -130 c-39 -118 -39 -219 0 -378 35 -137 42 -214
26 -279 l-12 -51 -90 2 -90 1 7 231 c4 127 8 242 10 256 1 14 3 58 4 97 l1 73
68 34 c80 42 86 43 76 14z m-2384 -115 c409 -196 724 -283 1020 -283 310 0
631 88 1144 314 l39 18 -7 -89 c-14 -194 -19 -728 -7 -855 20 -212 46 -266
192 -392 110 -94 124 -122 122 -246 -3 -188 -72 -356 -203 -494 -41 -43 -101
-97 -134 -119 -147 -100 -357 -171 -578 -197 -103 -12 -398 -9 -493 5 -395 59
-622 139 -855 299 -89 61 -241 204 -320 301 -136 166 -262 402 -334 625 -67
204 -67 195 -7 273 137 181 198 439 188 789 l-5 177 61 -35 c34 -20 114 -60
177 -91z m-6082 -390 c77 -37 113 -116 151 -333 16 -90 41 -298 41 -342 0 -4
-22 -19 -48 -32 -104 -53 -161 -141 -146 -224 17 -91 70 -150 176 -197 63 -27
66 -30 56 -54 -12 -33 -55 -78 -90 -97 -39 -20 -112 -17 -157 6 -91 46 -123
112 -201 411 -64 248 -81 355 -87 546 l-6 171 37 45 c42 52 99 94 153 112 42
14 71 11 121 -12z m4992 -8 c69 -3 175 -7 235 -10 61 -2 189 -7 285 -11 193
-6 260 -11 268 -18 2 -3 2 -17 -2 -31 l-6 -25 -273 0 c-149 -1 -299 -3 -332
-6 -309 -25 -459 -51 -559 -99 -83 -39 -127 -101 -112 -158 15 -61 66 -106
271 -242 344 -228 512 -413 705 -777 59 -114 80 -139 80 -100 0 43 -163 331
-257 455 -144 190 -237 272 -509 453 -111 73 -213 147 -228 164 -36 44 -36 97
2 132 103 96 381 143 927 154 225 5 275 3 275 -8 0 -26 -16 -35 -69 -41 -130
-15 -247 -79 -301 -164 -89 -141 -59 -353 110 -778 124 -310 259 -721 316
-960 3 -11 -16 21 -42 70 -93 182 -201 324 -342 448 -117 104 -252 200 -558
395 -446 285 -572 377 -688 503 -170 184 -187 466 -38 631 l37 41 340 -7 c187
-4 396 -9 465 -11z m729 -252 c-11 -26 -22 -49 -23 -51 -2 -1 -25 9 -51 23
-26 14 -57 25 -69 25 -18 1 -19 2 -4 10 21 13 117 38 145 39 l22 1 -20 -47z
m2906 -14 c149 -16 237 -44 405 -130 112 -57 193 -107 294 -183 343 -258 629
-519 760 -692 80 -107 110 -178 104 -250 -9 -103 -74 -152 -255 -189 -134 -28
-176 -43 -358 -130 -213 -102 -402 -221 -595 -374 -118 -93 -334 -308 -424
-421 -242 -306 -436 -677 -534 -1028 -15 -53 -28 -89 -30 -81 -4 22 52 341 93
534 99 460 208 762 472 1305 190 390 255 599 257 820 1 227 -88 343 -366 478
l-136 67 -4 48 c-1 26 0 47 4 47 9 0 209 -72 303 -110 318 -127 757 -371 872
-486 56 -55 71 -96 58 -156 -11 -49 -112 -143 -339 -312 -326 -244 -512 -451
-698 -776 -125 -219 -277 -584 -254 -608 11 -11 23 12 71 138 127 331 293 616
499 857 114 134 197 208 435 387 269 204 321 261 321 351 0 82 -61 152 -225
257 -285 183 -593 328 -926 438 l-126 41 -2 80 c-1 44 1 85 5 91 7 11 149 6
319 -13z m-3007 -30 c24 -12 46 -28 49 -36 6 -14 -63 -123 -78 -123 -4 0 -24
9 -44 21 -25 15 -51 21 -90 20 -30 0 -55 3 -55 6 0 20 56 97 83 114 41 25 80
24 135 -2z m-89 -157 c27 -13 35 -24 38 -52 11 -88 17 -80 -82 -105 -49 -12
-92 -21 -95 -18 -3 3 -7 39 -8 82 -3 62 -1 81 13 94 22 22 90 22 134 -1z
m2854 -167 c26 -11 47 -22 47 -25 0 -3 -18 -15 -41 -27 l-40 -22 -9 25 c-17
44 -23 77 -14 73 6 -2 31 -13 57 -24z m-2779 -49 c21 -72 21 -73 -20 -86 -20
-7 -59 -34 -85 -59 l-49 -48 -21 70 c-11 39 -23 85 -26 103 -6 36 -7 35 112
63 71 16 72 15 89 -43z m2956 -47 l63 -41 -84 -34 -84 -34 -48 51 c-26 28 -44
55 -41 61 10 16 66 37 100 38 20 0 54 -15 94 -41z m-5230 -93 c31 -28 68 -60
84 -71 26 -19 28 -26 36 -120 34 -377 -20 -1001 -130 -1520 -10 -49 -64 -270
-119 -491 -54 -220 -116 -481 -136 -580 -43 -207 -49 -222 -63 -173 -6 18 -26
88 -45 155 -62 212 -114 488 -138 734 -22 228 -17 632 11 860 11 84 66 414 77
458 3 12 1 22 -6 22 -30 0 -95 -338 -121 -629 -13 -142 -16 -461 -6 -601 25
-338 81 -621 187 -947 l50 -151 -15 -74 c-22 -110 -82 -449 -117 -663 -35
-216 -25 -193 -200 -457 -218 -329 -376 -509 -589 -672 -386 -297 -863 -372
-1333 -210 -225 78 -391 180 -597 363 l-35 31 40 -16 c273 -112 583 -65 882
135 96 64 130 95 114 105 -5 4 -54 -23 -108 -58 -351 -230 -653 -273 -930
-133 -75 38 -220 216 -306 376 l-36 67 87 -29 c95 -33 282 -51 282 -28 0 6
-15 11 -32 11 -106 2 -225 26 -310 62 -40 17 -50 28 -73 76 -60 127 -152 379
-141 389 2 2 32 -16 67 -40 136 -94 320 -170 496 -203 129 -24 380 -15 526 20
231 54 379 135 537 295 150 151 253 311 402 626 66 140 112 263 163 430 l36
120 -6 -159 c-15 -423 -104 -826 -276 -1259 -61 -153 -65 -167 -49 -167 22 0
118 224 185 430 68 211 131 509 151 705 3 39 9 79 11 90 2 11 6 128 8 260 3
148 10 275 20 330 28 173 34 242 32 432 l-2 192 53 -52 c185 -181 262 -423
267 -837 10 -746 -152 -1332 -556 -2003 -72 -120 -92 -167 -71 -167 20 0 217
314 301 480 177 346 279 672 342 1085 l18 120 -5 -135 c-5 -143 -12 -255 -19
-305 -2 -16 -7 -61 -10 -100 -19 -208 -96 -575 -180 -862 -46 -155 -52 -183
-36 -183 24 0 118 291 171 530 100 444 133 867 107 1360 -4 80 -10 193 -13
252 -3 59 -9 132 -13 163 -4 31 -4 52 1 47 20 -20 122 -315 157 -455 73 -285
94 -463 95 -774 0 -128 3 -230 7 -228 20 13 28 433 10 590 -37 324 -132 656
-261 915 -20 41 -47 107 -59 145 -52 165 -153 325 -259 411 -51 42 -59 53 -73
108 -8 33 -28 88 -43 122 l-27 61 26 79 c69 208 157 336 324 469 190 151 279
254 489 565 120 179 144 201 272 258 115 51 271 85 340 73 14 -2 50 -27 80
-55z m2341 -48 l35 -91 -49 -46 c-27 -25 -60 -65 -74 -89 -31 -52 -28 -55 -85
91 l-39 100 46 44 c39 36 107 82 125 82 3 0 21 -41 41 -91z m3024 25 l36 -48
-63 -10 c-35 -6 -72 -16 -83 -22 -17 -9 -27 -5 -64 28 -24 22 -42 41 -39 44
10 10 135 54 155 55 15 0 34 -15 58 -47z m53 -96 c6 -7 15 -39 20 -70 l9 -57
-51 -1 c-28 0 -60 -4 -71 -8 -20 -8 -27 4 -62 111 -4 13 3 19 28 27 50 14 115
13 127 -2z m-2991 -119 c18 -35 45 -84 60 -109 l27 -47 -43 -48 c-23 -27 -57
-72 -74 -101 -18 -29 -35 -53 -38 -53 -14 0 -54 70 -85 148 l-33 85 26 50 c32
57 99 137 117 137 6 0 26 -28 43 -62z m3019 -41 c3 -3 2 -33 -2 -67 l-7 -62
-30 6 c-16 3 -48 6 -71 6 l-41 0 3 54 c3 50 6 54 35 64 30 10 103 9 113 -1z
m-19 -161 c5 -5 -37 -168 -46 -178 -4 -4 -28 3 -54 16 -26 14 -52 26 -57 28
-7 2 -5 29 6 75 13 60 20 72 37 75 22 4 107 -9 114 -16z m-2818 -84 l72 -92
-54 -83 c-30 -45 -59 -92 -66 -105 -7 -12 -17 -20 -22 -16 -6 3 -44 46 -85 96
l-75 90 22 36 c35 58 122 173 130 170 4 -2 39 -45 78 -96z m2723 -118 l38 -24
-19 -48 c-10 -26 -21 -55 -24 -65 -6 -16 -10 -16 -44 8 -21 13 -53 28 -71 31
-18 4 -31 9 -30 13 61 121 62 122 88 116 14 -3 42 -17 62 -31z m-2520 -269
c-46 -94 -58 -112 -71 -105 -9 5 -51 43 -94 84 l-78 76 27 47 c16 27 46 77 67
111 l40 64 82 -82 83 -82 -56 -113z m-397 173 c69 -89 234 -257 338 -344 272
-229 659 -421 1002 -498 318 -72 655 -74 890 -5 98 29 239 101 325 165 40 30
74 53 77 50 2 -2 -5 -22 -16 -44 -35 -69 -117 -282 -166 -432 -114 -352 -203
-786 -249 -1215 -8 -77 -23 -215 -32 -308 -10 -92 -21 -162 -25 -155 -3 7 -12
108 -18 223 -7 116 -14 226 -16 245 -3 19 -9 118 -16 219 -6 101 -14 214 -17
250 l-7 66 -335 0 -335 0 -27 -115 c-27 -111 -89 -386 -295 -1302 -54 -241
-100 -438 -103 -438 -3 0 -32 143 -64 318 -32 174 -76 411 -97 525 -21 115
-39 210 -39 211 0 2 57 -25 128 -60 135 -67 182 -84 182 -65 0 7 -44 32 -97
57 -54 25 -143 70 -199 101 l-101 56 -6 151 c-3 83 -6 237 -7 341 0 135 -4
193 -13 201 -10 10 -139 31 -302 49 -27 3 -62 8 -76 11 l-26 5 -1 178 c-2 274
-23 449 -87 721 -19 80 -50 224 -70 320 -30 144 -123 492 -150 563 -12 30 1
19 50 -45z m2847 -63 c21 -14 38 -30 38 -35 0 -5 -33 -80 -72 -166 l-73 -156
-12 53 c-16 71 -41 137 -69 178 l-23 34 56 67 c53 65 57 68 86 59 17 -5 48
-20 69 -34z m-2287 -71 c33 -23 86 -56 118 -74 32 -18 57 -36 55 -40 -2 -3
-30 -59 -63 -122 -54 -105 -62 -115 -79 -106 -20 11 -165 114 -203 145 l-22
18 36 75 c19 41 44 94 54 118 13 30 23 41 31 36 7 -5 40 -27 73 -50z m-4896
-90 c49 -56 76 -125 91 -234 21 -151 -16 -388 -106 -674 -13 -43 -23 -80 -21
-83 6 -5 91 199 116 277 35 109 61 231 67 318 8 90 12 94 67 65 58 -29 88 -57
128 -116 149 -225 143 -713 -16 -1251 -91 -308 -268 -676 -429 -889 -211 -281
-508 -428 -891 -444 -161 -6 -266 8 -417 57 -182 58 -319 141 -458 278 l-95
93 66 -45 c86 -59 192 -108 304 -142 83 -25 104 -27 265 -28 160 0 184 2 275
27 177 48 377 159 536 300 235 206 414 541 608 1141 64 195 82 276 63 276 -10
0 -52 -101 -87 -210 -37 -115 -149 -420 -197 -534 -116 -278 -211 -429 -368
-586 -377 -378 -870 -481 -1290 -270 -221 111 -417 342 -586 693 -57 118 -78
216 -70 323 11 157 78 356 185 551 117 214 331 501 498 665 l88 88 38 -17 c21
-10 35 -23 33 -30 -3 -6 -46 -58 -95 -115 -310 -353 -534 -711 -618 -985 -22
-73 -27 -107 -27 -203 0 -136 9 -164 106 -322 47 -75 92 -131 173 -213 171
-171 280 -224 463 -225 78 0 118 5 165 21 82 27 201 95 312 176 107 79 374
343 469 463 277 352 457 745 527 1153 22 130 34 450 20 557 -6 50 -2 76 24
148 7 19 36 1 84 -54z m6988 -21 c33 -67 60 -185 50 -225 -6 -23 -141 -168
-156 -168 -4 0 -5 34 -3 76 5 91 -11 181 -44 246 l-24 47 63 44 c34 25 67 44
72 43 6 -1 24 -30 42 -63z m-1839 -32 c20 -10 71 -30 112 -45 41 -15 81 -29
88 -31 10 -4 0 -31 -37 -100 -84 -157 -99 -177 -124 -170 -34 11 -218 116
-215 123 55 113 125 242 131 242 4 0 24 -8 45 -19z m1662 -55 c31 -68 43 -184
30 -269 -6 -40 -14 -75 -18 -79 -16 -15 -163 -90 -168 -85 -3 3 0 34 6 68 15
80 5 216 -21 284 -10 28 -16 51 -11 53 4 2 39 18 77 37 39 18 74 34 78 34 4 1
17 -19 27 -43z m-6954 -236 c-5 -159 -21 -309 -35 -323 -9 -9 -37 124 -47 220
-6 55 -2 77 32 184 48 152 57 137 50 -81z m5692 168 l113 -23 -7 -30 c-13 -63
-108 -305 -120 -305 -17 0 -174 56 -241 86 l-54 23 31 53 c17 29 51 93 76 142
40 78 48 87 67 82 12 -3 73 -16 135 -28z m1059 -5 c25 -61 34 -168 22 -257
-12 -93 -29 -131 -61 -140 -63 -18 -188 -43 -188 -38 0 4 7 32 15 62 19 72 29
252 17 312 l-9 47 55 12 c30 6 71 17 91 24 20 8 37 14 39 14 2 1 10 -16 19
-36z m-744 -39 c27 -4 37 -11 37 -24 0 -57 -69 -330 -89 -352 -6 -7 -211 35
-230 46 -5 3 0 23 11 45 22 46 98 267 98 288 0 15 55 13 173 -3z m523 -21 c12
-61 -3 -243 -25 -314 -24 -75 -31 -79 -141 -79 l-58 0 18 48 c25 67 43 197 38
287 -4 84 -7 80 72 88 90 9 89 10 96 -30z m-202 1 c18 -48 -3 -237 -40 -348
l-17 -49 -86 7 c-168 13 -193 17 -187 35 28 90 56 201 61 248 3 32 8 73 11 91
l5 32 123 0 c104 0 125 -3 130 -16z m-7714 -181 c0 -5 7 -41 15 -80 8 -40 22
-132 30 -204 l16 -131 -70 -142 c-102 -208 -172 -429 -207 -657 -20 -128 -24
-350 -7 -356 14 -5 20 27 28 142 14 218 66 458 147 678 46 126 104 251 111
240 3 -4 8 -89 11 -188 4 -99 9 -223 11 -275 3 -52 7 -171 10 -265 8 -242 14
-418 21 -586 l6 -146 -59 -16 c-75 -21 -193 -22 -264 -1 -84 25 -179 79 -249
143 l-65 58 0 174 c0 190 9 246 71 467 76 268 191 505 366 750 37 53 68 102
68 109 0 76 -203 -203 -320 -441 -112 -227 -178 -430 -215 -660 -16 -99 -23
-316 -10 -335 3 -6 3 -11 -2 -11 -4 0 -35 38 -68 85 -148 209 -176 304 -140
474 37 177 127 368 286 605 189 282 479 626 479 569z m6330 -1164 c85 -12 158
-27 162 -32 4 -6 7 -108 8 -227 1 -118 4 -254 6 -302 2 -49 1 -88 -2 -88 -14
0 -165 112 -271 201 -65 54 -124 99 -132 99 -7 0 -11 6 -8 13 3 8 11 91 18
185 l12 172 26 0 c14 0 96 -9 181 -21z m1571 -52 c0 -23 2 -53 4 -67 1 -14 6
-77 9 -140 4 -63 9 -131 11 -150 2 -19 7 -78 10 -130 3 -52 8 -124 10 -160 36
-492 43 -666 36 -795 -4 -77 -8 -322 -9 -543 -3 -445 1 -418 -71 -510 -74 -93
-334 -279 -352 -251 -4 7 -8 87 -9 178 -2 91 -4 191 -5 221 -1 30 -5 213 -9
405 -4 193 -10 358 -13 368 -2 10 -12 17 -21 15 -12 -2 -56 -149 -183 -608
-93 -333 -171 -615 -174 -627 l-5 -23 -404 0 -403 0 -87 533 c-114 692 -106
648 -123 654 -7 3 -16 3 -19 0 -3 -3 -21 -141 -39 -306 -19 -166 -36 -322 -39
-349 -5 -44 -60 -533 -104 -930 -11 -96 -24 -177 -28 -182 -5 -4 -71 -22 -146
-40 -76 -18 -138 -37 -138 -42 0 -14 39 -9 203 28 87 19 161 34 162 32 3 -3
-42 -354 -70 -548 -5 -34 -23 -169 -46 -353 l-12 -88 -226 6 c-323 8 -451 16
-451 26 0 9 94 526 165 904 81 436 190 925 257 1155 21 74 83 275 138 445 138
434 164 523 220 750 59 242 103 461 130 655 12 79 23 146 25 148 2 2 43 -31
92 -73 104 -91 241 -195 336 -254 41 -27 69 -51 72 -64 2 -12 13 -71 24 -132
56 -307 179 -970 192 -1032 9 -48 29 -68 42 -45 3 4 48 201 102 437 88 390
126 562 286 1270 27 121 52 228 55 237 5 16 30 18 305 18 l299 0 1 -43z m1949
-836 c277 -33 837 -134 857 -155 9 -8 16 -96 8 -96 -4 0 -86 13 -183 29 -98
17 -244 39 -327 51 -82 12 -161 23 -175 25 -14 2 -74 9 -135 15 -60 6 -126 13
-145 16 -73 10 -628 16 -692 7 l-68 -10 0 59 c0 38 4 60 13 63 81 30 579 28
847 -4z m-740 -176 c0 -33 4 -45 15 -45 11 0 15 12 15 47 l0 46 248 -7 c264
-7 289 -9 512 -32 218 -22 804 -114 817 -128 17 -16 8 -341 -17 -641 -34 -413
-104 -832 -144 -864 -20 -15 -250 -109 -366 -149 -204 -70 -290 -79 -400 -43
-146 49 -541 259 -676 361 -66 50 -69 58 -99 355 -11 103 -24 542 -25 838 l-1
307 61 0 60 0 0 -45z m-1618 -1425 l3 -355 -80 -42 c-328 -173 -838 -371
-1280 -497 -189 -54 -190 -54 -193 -32 -3 21 151 1421 166 1507 6 33 23 -58
91 -467 46 -280 86 -515 88 -522 4 -10 98 -12 441 -10 l435 3 108 390 c60 215
130 467 156 560 l48 170 7 -175 c3 -96 8 -335 10 -530z m493 -285 c3 -143 8
-276 10 -295 1 -19 6 -100 9 -180 4 -80 9 -174 11 -210 3 -36 10 -141 16 -235
6 -93 18 -270 28 -393 11 -151 13 -226 6 -231 -9 -7 -323 -52 -380 -55 -19 -1
-20 5 -20 188 l0 188 60 23 c97 36 169 75 158 86 -6 6 -47 -5 -113 -31 -57
-22 -105 -40 -106 -40 -5 0 -14 358 -19 741 l-6 417 53 33 c95 61 196 147 239
204 23 31 43 54 44 53 1 -2 6 -120 10 -263z"/>
<path d="M14224 13358 c24 -119 45 -269 51 -363 3 -60 8 -132 11 -160 3 -46
-11 -335 -20 -380 -2 -11 -7 -47 -10 -80 -23 -195 -101 -492 -266 -1005 -179
-558 -235 -776 -279 -1075 -18 -121 -25 -311 -12 -319 15 -10 18 4 26 99 25
336 79 568 290 1240 168 534 223 746 266 1026 19 121 23 187 23 409 1 261 -5
336 -40 525 -20 104 -23 115 -36 115 -7 0 -8 -12 -4 -32z"/>
<path d="M7155 12268 c-2 -7 -14 -42 -25 -77 -12 -35 -48 -118 -82 -184 -125
-250 -193 -423 -238 -607 -73 -300 -65 -588 23 -815 35 -92 48 -87 19 7 -55
179 -72 459 -38 643 43 233 96 382 241 685 106 222 142 316 132 344 -8 19 -26
21 -32 4z"/>
<path d="M14553 12038 c8 -290 52 -476 165 -699 73 -146 124 -221 268 -394
199 -241 311 -431 384 -653 67 -205 84 -331 85 -602 0 -266 -11 -352 -71 -530
-84 -252 -260 -492 -462 -629 -53 -36 -76 -61 -57 -61 18 0 94 48 160 102 185
148 339 387 410 636 43 151 57 270 57 477 -1 342 -57 596 -192 865 -57 114
-144 239 -278 403 -67 81 -139 174 -160 205 -186 275 -274 554 -289 915 -3 85
-10 147 -16 147 -6 0 -8 -67 -4 -182z"/>
<path d="M14521 11473 c5 -228 80 -410 323 -787 68 -105 139 -219 158 -252 84
-145 142 -295 168 -436 17 -92 35 -89 27 5 -12 158 -96 344 -294 647 -206 319
-251 398 -300 540 -45 127 -62 214 -63 318 0 30 -5 52 -11 52 -6 0 -9 -31 -8
-87z"/>
<path d="M14286 9769 c64 -219 220 -374 389 -387 74 -5 65 8 -17 25 -83 17
-140 47 -206 108 -66 62 -114 136 -146 230 -29 82 -41 97 -20 24z"/>
<path d="M9177 13309 c-164 -19 -139 -24 125 -24 270 0 274 -1 354 -28 189
-63 338 -212 443 -440 41 -89 69 -116 56 -54 -9 41 -73 172 -116 234 -92 134
-233 244 -373 290 -73 24 -97 27 -246 28 -91 2 -200 -2 -243 -6z"/>
<path d="M11884 13278 c-227 -25 -396 -155 -510 -393 -47 -97 -66 -171 -44
-163 7 2 30 45 51 96 61 151 143 259 252 334 121 83 192 99 417 98 96 0 198
-3 225 -5 28 -3 75 -7 105 -9 l55 -5 -75 19 c-102 26 -358 41 -476 28z"/>
<path d="M9258 13239 c-86 -9 -225 -52 -320 -100 -79 -39 -216 -129 -246 -162
l-24 -25 34 -7 c18 -4 37 -9 41 -12 4 -3 -27 -42 -70 -86 -69 -73 -153 -200
-140 -213 2 -3 24 0 48 5 72 17 76 15 83 -30 9 -56 48 -137 90 -184 l33 -40
-5 76 c-8 134 33 234 147 352 86 90 110 103 71 40 -16 -27 -36 -75 -45 -108
-37 -147 0 -279 114 -398 203 -213 574 -223 777 -21 92 92 138 226 117 341 -6
32 -10 59 -8 61 2 2 19 -24 39 -56 50 -83 85 -263 65 -336 -27 -98 -252 -215
-473 -245 -42 -6 -134 -11 -204 -11 -179 0 -309 34 -442 114 l-45 27 30 -26
c44 -37 172 -101 240 -120 136 -36 387 -30 559 15 148 39 297 122 342 190 29
43 33 124 14 275 -16 127 -35 196 -84 300 -132 280 -402 420 -738 384z m300
-224 c104 -25 170 -62 248 -139 54 -54 76 -85 94 -131 76 -197 -32 -414 -246
-491 -247 -90 -531 18 -637 243 -27 60 -31 78 -31 149 1 102 30 170 105 249
110 116 288 162 467 120z"/>
<path d="M9364 12999 c-94 -27 -182 -129 -204 -236 -29 -139 52 -293 188 -360
48 -23 70 -28 137 -28 68 0 89 4 137 28 196 96 226 369 57 521 -63 57 -140 86
-222 85 -34 0 -76 -5 -93 -10z m239 -43 c98 -35 104 -101 12 -136 -53 -21
-160 -15 -213 12 -40 19 -47 28 -50 55 -3 25 2 35 23 49 52 34 161 43 228 20z"/>
<path d="M11900 13194 c-107 -23 -223 -85 -294 -156 -136 -137 -196 -310 -198
-573 -2 -160 4 -180 74 -240 98 -84 290 -161 468 -188 110 -17 312 -15 385 3
64 16 201 81 240 115 24 20 19 18 -27 -9 -149 -87 -358 -116 -591 -81 -213 32
-456 145 -501 234 -37 72 -25 245 25 341 36 70 53 94 44 63 -14 -50 -6 -159
16 -218 128 -345 616 -446 880 -182 43 44 92 130 104 185 24 112 -3 244 -66
332 l-31 43 29 -21 c61 -43 171 -170 202 -233 37 -76 55 -165 46 -228 l-6 -46
25 30 c39 46 78 130 84 180 2 25 8 48 12 50 5 3 32 0 60 -6 28 -6 54 -9 56 -6
17 17 -82 155 -171 239 -30 29 -55 55 -55 59 0 4 16 10 35 13 19 4 35 10 35
15 0 11 -142 111 -225 160 -207 119 -460 167 -655 125z m284 -223 c120 -42
225 -134 274 -239 23 -49 27 -70 27 -152 0 -83 -3 -102 -28 -151 -30 -62 -112
-146 -173 -177 -146 -74 -334 -73 -485 4 -76 38 -164 127 -201 202 -30 60 -33
75 -33 157 0 78 4 98 27 146 53 107 163 190 296 224 77 20 219 13 296 -14z"/>
<path d="M11887 12963 c-62 -21 -131 -83 -165 -147 -23 -44 -27 -63 -27 -141
0 -84 2 -94 34 -153 55 -102 136 -157 248 -171 140 -17 254 44 314 165 20 40
24 65 24 134 0 73 -4 93 -28 141 -32 67 -100 132 -165 162 -63 27 -171 32
-235 10z m157 -39 c53 -18 81 -52 71 -84 -18 -55 -185 -80 -272 -41 -152 69
31 183 201 125z"/>
<path d="M10537 12653 c-3 -5 -8 -35 -11 -68 -13 -109 -55 -301 -90 -406 -46
-142 -101 -254 -184 -380 -38 -58 -72 -115 -76 -125 -9 -28 26 -77 79 -114 76
-52 365 -183 365 -165 0 2 -37 23 -83 47 -118 63 -236 141 -275 181 l-34 35
67 95 c172 249 238 467 248 820 3 86 2 94 -6 80z"/>
<path d="M8850 11880 c0 -16 5 -21 23 -18 12 2 22 10 22 18 0 8 -10 16 -22 18
-18 3 -23 -2 -23 -18z"/>
<path d="M9154 11885 c-7 -18 3 -35 21 -35 21 0 28 19 15 35 -16 19 -29 19
-36 0z"/>
<path d="M12562 11833 c4 -22 43 -25 43 -3 0 8 -11 16 -23 18 -19 3 -23 0 -20
-15z"/>
<path d="M12254 11825 c-8 -20 13 -45 37 -45 19 0 35 33 24 50 -10 16 -55 12
-61 -5z"/>
<path d="M12797 11734 c-9 -10 4 -34 19 -34 8 0 14 9 14 20 0 19 -19 27 -33
14z"/>
<path d="M8584 11705 c-4 -9 -2 -21 4 -27 15 -15 44 -1 40 19 -4 23 -36 29
-44 8z"/>
<path d="M9047 11684 c-16 -16 -7 -44 14 -44 15 0 20 5 17 22 -3 22 -19 33
-31 22z"/>
<path d="M8797 11647 c-3 -8 -2 -20 3 -27 11 -18 42 -4 38 17 -4 22 -34 29
-41 10z"/>
<path d="M9336 11651 c-10 -16 5 -42 23 -39 21 4 21 42 -1 46 -9 2 -19 -1 -22
-7z"/>
<path d="M12103 11623 c-21 -8 -15 -43 6 -43 11 0 23 5 27 11 8 14 -17 38 -33
32z"/>
<path d="M12634 11606 c-7 -19 3 -36 22 -36 10 0 14 8 12 22 -4 26 -26 36 -34
14z"/>
<path d="M12377 11594 c-16 -16 -7 -44 14 -44 15 0 20 5 17 22 -3 22 -19 33
-31 22z"/>
<path d="M10630 11561 c0 -6 5 -11 11 -11 25 0 126 -57 187 -106 78 -63 110
-58 47 7 -61 61 -245 145 -245 110z"/>
<path d="M8662 11503 c2 -10 10 -18 18 -18 8 0 16 8 18 18 2 12 -3 17 -18 17
-15 0 -20 -5 -18 -17z"/>
<path d="M8965 11480 c-9 -28 6 -43 36 -38 18 2 24 9 24 28 0 34 -50 42 -60
10z"/>
<path d="M12824 11475 c-4 -9 -2 -21 4 -27 15 -15 44 -1 40 19 -4 23 -36 29
-44 8z"/>
<path d="M12254 11435 c-7 -18 3 -35 21 -35 21 0 28 19 15 35 -16 19 -29 19
-36 0z"/>
<path d="M12554 11425 c-4 -9 -2 -21 4 -27 15 -15 44 -1 40 19 -4 23 -36 29
-44 8z"/>
<path d="M12040 11042 c-8 -2 -70 -26 -137 -53 -277 -110 -590 -184 -879 -206
-55 -5 -193 -7 -309 -7 -320 2 -599 44 -885 131 -137 42 -143 43 -148 21 -2
-13 22 -25 125 -58 213 -70 440 -116 678 -140 104 -11 497 -15 540 -6 11 2 56
7 100 11 285 25 739 148 918 248 50 28 48 75 -3 59z"/>
<path d="M10362 10388 c7 -21 108 -77 178 -99 159 -50 352 -44 469 14 50 25
70 54 30 44 -13 -3 -51 -16 -84 -29 -53 -20 -77 -23 -205 -22 -130 0 -152 3
-219 27 -40 14 -91 37 -112 51 -42 28 -63 33 -57 14z"/>
<path d="M13649 12326 c-73 -26 -111 -68 -164 -181 -34 -73 -54 -147 -47 -178
7 -35 26 -10 38 51 7 34 17 69 23 79 9 17 10 17 17 -2 4 -11 24 -61 45 -112
82 -194 75 -292 -27 -411 -49 -57 -29 -53 28 6 60 62 80 102 86 179 6 75 -7
129 -60 253 -49 115 -52 163 -15 217 35 50 76 74 132 75 55 1 86 -24 111 -88
14 -36 16 -70 11 -201 -5 -178 -24 -261 -82 -373 -28 -52 -30 -59 -10 -35 78
94 125 264 126 452 0 165 -26 240 -97 269 -41 17 -68 17 -115 0z"/>
<path d="M3760 10516 c-49 -13 -96 -41 -83 -49 14 -9 163 37 163 51 0 15 -21
14 -80 -2z"/>
<path d="M4762 10510 c4 -14 93 -39 141 -40 39 0 35 26 -5 34 -99 17 -141 19
-136 6z"/>
<path d="M3788 9924 c-31 -9 -48 -20 -48 -30 0 -12 6 -15 23 -10 12 4 50 12
85 19 38 7 62 16 62 24 0 17 -61 16 -122 -3z"/>
<path d="M4593 9823 c14 -13 167 -41 173 -31 8 13 1 19 -43 29 -44 10 -139 12
-130 2z"/>
<path d="M5920 7566 c0 -3 23 -54 51 -113 63 -134 113 -280 134 -398 19 -98
17 -367 -2 -414 l-10 -24 -20 29 c-11 16 -44 76 -73 134 -29 57 -74 136 -100
175 -50 73 -179 219 -187 211 -3 -3 22 -36 54 -73 97 -113 150 -194 223 -341
67 -134 99 -180 118 -168 20 12 37 155 36 301 0 166 -22 282 -83 440 -38 98
-112 237 -129 243 -6 2 -12 1 -12 -2z"/>
<path d="M6741 7108 c-13 -41 -48 -242 -57 -331 -8 -81 11 -94 21 -14 4 28 20
120 36 202 16 83 29 156 29 163 0 24 -19 11 -29 -20z"/>
<path d="M5537 3833 c-3 -5 -8 -42 -11 -83 -5 -61 -3 -81 11 -110 38 -73 135
-75 210 -6 53 48 34 65 -24 21 -61 -46 -120 -49 -153 -7 -20 24 -22 35 -16
104 5 67 -3 105 -17 81z"/>
<path d="M4940 3750 c-43 -12 -90 -40 -247 -147 -170 -116 -249 -156 -344
-173 -86 -17 -101 -23 -61 -28 93 -10 230 50 454 201 87 58 173 110 192 117
40 13 71 2 81 -29 9 -28 -30 -122 -71 -169 -40 -48 -31 -55 17 -15 65 55 102
190 62 225 -24 20 -52 26 -83 18z"/>
<path d="M14136 4713 c-3 -3 -6 -24 -6 -45 0 -27 4 -38 15 -38 11 0 15 11 15
39 0 38 -10 57 -24 44z"/>
<path d="M12664 4687 c-10 -27 0 -140 14 -145 9 -3 12 16 12 72 0 69 -13 106
-26 73z"/>
<path d="M14117 4463 c-5 -69 5 -102 23 -73 16 25 13 140 -4 140 -9 0 -15 -20
-19 -67z"/>
<path d="M12660 4375 c0 -60 3 -75 15 -75 12 0 15 15 15 75 0 60 -3 75 -15 75
-12 0 -15 -15 -15 -75z"/>
<path d="M14106 4273 c-9 -31 -10 -118 -2 -132 15 -23 24 3 28 73 2 47 -1 71
-9 73 -6 2 -14 -4 -17 -14z"/>
<path d="M12664 4197 c-10 -27 0 -140 14 -145 9 -3 12 16 12 72 0 69 -13 106
-26 73z"/>
<path d="M14086 4024 c-10 -27 -7 -134 4 -134 14 0 17 13 23 88 4 47 2 62 -8
62 -7 0 -16 -7 -19 -16z"/>
<path d="M12667 3953 c-4 -3 -7 -37 -7 -75 0 -54 3 -68 15 -68 12 0 15 15 15
75 0 69 -6 86 -23 68z"/>
<path d="M14067 3793 c-3 -5 -8 -38 -11 -74 -8 -72 6 -102 24 -54 20 53 9 165
-13 128z"/>
<path d="M12661 3678 c1 -57 14 -111 27 -116 10 -3 12 12 9 69 -3 59 -8 75
-21 77 -12 3 -16 -4 -15 -30z"/>
<path d="M14035 3508 c-3 -24 -8 -55 -11 -70 -6 -31 11 -46 24 -21 6 10 13 44
17 76 6 48 5 57 -8 57 -10 0 -17 -14 -22 -42z"/>
<path d="M12736 3482 c-2 -4 -2 -13 2 -18 12 -18 94 -74 109 -74 28 0 10 26
-42 63 -58 40 -61 41 -69 29z"/>
<path d="M12940 3336 c0 -14 97 -76 119 -76 27 0 6 28 -43 58 -59 35 -76 39
-76 18z"/>
<path d="M13873 3318 c-53 -29 -62 -41 -43 -53 12 -7 122 55 128 73 6 20 -29
12 -85 -20z"/>
<path d="M13155 3220 c-10 -16 3 -29 55 -55 55 -28 70 -31 70 -12 0 16 -118
79 -125 67z"/>
<path d="M13655 3203 c-61 -31 -61 -31 -48 -44 13 -13 133 38 133 57 0 21 -29
16 -85 -13z"/>
<path d="M13480 3129 c-14 -4 -44 -7 -68 -8 -30 -1 -42 -5 -39 -13 5 -17 123
-16 139 0 17 17 -2 30 -32 21z"/>
<path d="M7360 7979 c0 -18 102 -119 167 -165 122 -88 291 -150 487 -179 142
-21 386 -32 386 -17 0 15 -21 20 -125 27 -247 16 -355 33 -478 72 -157 49
-265 111 -366 210 -36 35 -67 63 -68 63 -2 0 -3 -5 -3 -11z"/>
<path d="M8518 7263 c-107 -37 -256 -63 -358 -63 -78 0 -235 23 -308 45 -49
15 -75 14 -60 -1 15 -15 193 -55 286 -64 111 -12 189 -8 318 16 121 21 254 71
254 94 0 15 -27 10 -132 -27z"/>
<path d="M13230 6754 c0 -3 37 -23 83 -44 90 -42 189 -72 318 -96 103 -19 509
-32 509 -17 0 7 -56 13 -147 17 -315 14 -523 50 -669 116 -64 29 -94 37 -94
24z"/>
<path d="M8810 6702 c0 -4 9 -39 20 -77 26 -89 75 -333 90 -447 14 -105 36
-122 25 -20 -20 191 -102 552 -126 552 -5 0 -9 -3 -9 -8z"/>
<path d="M12996 6298 c15 -133 68 -267 136 -342 39 -43 52 -34 19 12 -61 87
-131 273 -131 349 0 23 -5 33 -15 33 -12 0 -14 -10 -9 -52z"/>
<path d="M7058 5719 c-127 -327 -300 -1212 -294 -1503 l2 -80 85 -79 c197
-185 370 -318 479 -371 l65 -31 190 -1 c210 -2 369 13 579 51 176 32 216 49
250 107 83 142 251 634 430 1259 35 123 62 227 59 232 -8 13 -198 105 -312
152 -206 84 -514 174 -833 245 -173 38 -501 96 -593 105 l-70 7 -37 -93z m346
5 c561 -98 1037 -235 1349 -390 51 -25 95 -49 99 -52 9 -9 -21 -115 -30 -110
-90 49 -340 148 -522 208 -265 88 -544 160 -973 250 -125 26 -230 50 -232 52
-3 2 3 24 12 47 19 49 -17 50 297 -5z m-281 -90 c12 -4 13 -12 7 -34 -4 -16
-6 -31 -2 -34 14 -14 30 -4 36 24 3 18 12 30 22 30 28 0 394 -81 614 -136 266
-66 491 -135 723 -222 162 -60 177 -68 171 -86 -18 -54 5 -76 26 -26 7 16 14
30 16 30 11 0 84 -33 84 -38 0 -18 -174 -583 -245 -797 -88 -266 -146 -415
-193 -498 -25 -44 -36 -53 -80 -68 -112 -38 -420 -77 -672 -85 -156 -5 -182
-4 -237 14 -99 31 -233 128 -459 332 -98 89 -123 116 -127 142 -23 151 121
984 234 1354 33 106 40 115 82 98z"/>
<path d="M7092 5412 c-15 -74 -15 -82 2 -82 9 0 18 19 25 50 14 67 14 90 -2
90 -8 0 -18 -23 -25 -58z"/>
<path d="M7055 5218 c-18 -82 -23 -113 -18 -120 9 -16 31 12 37 50 4 20 9 49
12 65 7 34 -23 39 -31 5z"/>
<path d="M8622 4979 c-21 -58 -21 -79 -2 -79 9 0 50 102 50 125 0 37 -28 9
-48 -46z"/>
<path d="M7004 4973 c-18 -96 1 -144 23 -56 16 68 16 93 -2 93 -8 0 -17 -15
-21 -37z"/>
<path d="M8542 4758 c-26 -74 -26 -78 -8 -78 14 0 56 94 56 125 0 37 -28 9
-48 -47z"/>
<path d="M6965 4768 c-26 -83 -24 -171 4 -120 17 31 26 132 12 132 -6 0 -13
-6 -16 -12z"/>
<path d="M8470 4554 c-32 -75 -36 -97 -15 -92 18 3 52 81 54 121 2 32 -20 17
-39 -29z"/>
<path d="M6910 4493 c-16 -84 -16 -88 0 -88 15 0 43 108 35 133 -10 28 -24 9
-35 -45z"/>
<path d="M8406 4372 c-8 -13 -46 -116 -46 -125 0 -5 7 -7 16 -5 16 3 54 88 54
121 0 17 -15 23 -24 9z"/>
<path d="M6887 4313 c-4 -3 -7 -10 -7 -15 0 -15 82 -98 96 -98 21 0 17 8 -26
57 -22 25 -40 50 -40 54 0 11 -14 12 -23 2z"/>
<path d="M8310 4114 c-11 -25 -23 -56 -26 -69 -6 -26 9 -41 23 -22 12 14 43
105 43 124 0 28 -22 11 -40 -33z"/>
<path d="M7044 4138 c-8 -12 82 -97 104 -98 24 0 12 22 -35 65 -52 48 -58 51
-69 33z"/>
<path d="M7220 3977 c0 -17 84 -87 104 -87 27 0 18 17 -33 59 -50 42 -71 50
-71 28z"/>
<path d="M8156 3936 c-47 -11 -67 -28 -48 -40 5 -3 37 2 71 12 100 27 79 53
-23 28z"/>
<path d="M7923 3888 c-37 -7 -53 -14 -53 -25 0 -13 9 -14 50 -9 65 9 103 23
95 36 -7 12 -20 11 -92 -2z"/>
<path d="M7710 3853 c-57 -9 -70 -14 -70 -29 0 -13 8 -15 43 -9 83 12 97 17
97 31 0 14 -17 16 -70 7z"/>
<path d="M7406 3842 c-11 -18 26 -36 85 -40 48 -4 59 -2 59 11 0 10 -15 16
-52 19 -29 3 -60 9 -69 12 -10 4 -20 3 -23 -2z"/>
<path d="M15120 3686 c0 -33 -34 -140 -69 -218 -46 -101 -156 -258 -301 -428
-159 -188 -227 -276 -274 -354 -40 -66 -44 -91 -20 -124 22 -32 75 -29 143 9
88 50 314 204 339 232 52 55 -3 30 -168 -80 -236 -156 -290 -179 -290 -122 0
40 84 166 217 324 264 315 350 444 409 619 29 84 41 166 25 166 -6 0 -11 -11
-11 -24z"/>
<path d="M8190 3297 c-306 -299 -611 -498 -995 -650 -322 -127 -585 -172 -780
-133 -70 14 -92 13 -66 -4 55 -33 306 -42 457 -16 206 36 444 120 684 242 205
103 398 234 585 394 173 149 323 322 278 320 -5 -1 -78 -69 -163 -153z"/>
<path d="M12697 2874 c-10 -10 80 -180 158 -299 100 -154 174 -242 318 -381
119 -116 319 -265 334 -251 8 9 11 6 -116 103 -262 198 -481 453 -627 729 -31
58 -57 105 -58 105 -2 0 -5 -3 -9 -6z"/>
<path d="M8017 2642 c-90 -107 -265 -273 -364 -346 -78 -58 -252 -170 -276
-179 -7 -2 -9 -8 -5 -12 14 -15 239 123 368 225 137 109 358 351 348 381 -2 6
-34 -25 -71 -69z"/>
<path d="M15159 2573 c0 -10 -2 -25 -3 -33 -2 -8 -6 -40 -10 -70 -10 -78 -60
-222 -107 -310 -58 -106 -117 -187 -215 -289 -101 -107 -188 -179 -343 -286
-63 -44 -113 -84 -111 -90 7 -17 31 -6 125 57 418 282 649 607 681 963 5 53 3
75 -5 75 -6 0 -11 -8 -12 -17z"/>
<path d="M12595 2298 c-9 -22 32 -197 72 -312 31 -91 100 -236 124 -260 26
-27 14 13 -35 115 -63 131 -108 262 -131 380 -16 88 -21 100 -30 77z"/>
<path d="M6791 1843 c-87 -119 -398 -615 -576 -918 -96 -164 -190 -345 -199
-386 -13 -59 103 -176 239 -240 77 -37 113 -37 147 -2 80 86 607 986 714 1222
43 92 43 132 4 194 -61 96 -187 197 -247 197 -29 0 -38 -8 -82 -67z m144 -3
c24 -17 47 -34 50 -39 3 -5 -99 -175 -227 -378 -127 -202 -311 -494 -408 -648
-97 -154 -185 -295 -195 -312 l-19 -33 -38 37 c-22 22 -38 47 -38 60 0 84 765
1343 816 1343 8 0 35 -14 59 -30z m171 -189 c4 -13 1 -40 -5 -60 -41 -118
-482 -895 -663 -1166 -67 -101 -75 -110 -103 -109 -36 2 -125 51 -125 68 0 13
314 519 575 926 75 118 167 261 203 318 l65 103 24 -28 c12 -15 26 -39 29 -52z"/>
<path d="M13302 1495 c-74 -17 -198 -82 -229 -119 -24 -29 -25 -34 -18 -116
11 -139 112 -690 197 -1072 38 -174 43 -188 63 -188 l22 0 -23 103 c-75 323
-205 1012 -219 1158 -6 62 -4 67 22 93 38 38 62 50 68 34 4 -12 93 -381 214
-883 23 -93 58 -244 79 -335 l38 -165 43 -3 c37 -3 42 -1 37 15 -5 16 -81 334
-241 1013 -24 102 -55 233 -69 292 -14 59 -26 110 -26 113 0 5 57 21 102 29
15 2 31 -1 36 -7 31 -39 263 -1024 320 -1359 14 -84 19 -98 36 -98 17 0 18 5
13 53 -21 174 -232 1112 -303 1348 -34 113 -50 122 -162 94z"/>
<path d="M7780 806 c-38 -62 -133 -165 -213 -231 -164 -135 -372 -228 -580
-258 -54 -8 -101 -17 -104 -21 -24 -23 81 -24 195 0 175 36 366 132 513 257
110 94 253 277 217 277 -8 0 -20 -11 -28 -24z"/>
<path d="M5774 648 c-25 -54 -29 -75 -29 -153 0 -76 4 -99 27 -147 32 -70 94
-138 152 -169 45 -24 78 -19 41 6 -169 115 -232 268 -174 425 28 75 33 100 22
100 -6 0 -23 -28 -39 -62z"/>
</g>
</svg>
