<?xml version="1.0" standalone="no"?>
<!DOCTYPE svg PUBLIC "-//W3C//DTD SVG 20010904//EN"
 "http://www.w3.org/TR/2001/REC-SVG-20010904/DTD/svg10.dtd">
<svg version="1.0" xmlns="http://www.w3.org/2000/svg"
 width="2000.000000pt" height="2000.000000pt" viewBox="0 0 2000.000000 2000.000000"
 preserveAspectRatio="xMidYMid meet">

<g transform="translate(0.000000,2000.000000) scale(0.100000,-0.100000)"
fill="#000000" stroke="none">
<path d="M9884 18882 c-6 -4 -19 -32 -29 -62 -25 -77 -70 -164 -120 -235 -45
-63 -165 -185 -147 -150 52 103 75 415 30 415 -5 0 -40 -27 -76 -60 -66 -61
-158 -125 -380 -265 -293 -184 -430 -317 -488 -473 -10 -26 -18 -48 -19 -50
-2 -1 -36 6 -76 18 -83 23 -215 28 -291 11 -159 -36 -328 -172 -424 -341 -31
-53 -48 -73 -80 -88 -124 -61 -315 -210 -416 -325 -215 -244 -341 -532 -378
-861 -13 -123 -5 -562 14 -695 45 -320 123 -615 224 -849 l41 -94 -19 -111
c-28 -166 -33 -261 -20 -376 21 -192 95 -368 218 -522 171 -213 358 -291 587
-244 30 7 30 6 49 -66 23 -92 100 -244 168 -334 103 -137 291 -309 491 -449
l67 -48 2 -71 c1 -40 2 -105 2 -146 l1 -73 -90 -32 c-369 -133 -677 -384 -893
-727 l-41 -65 -163 -43 c-549 -145 -917 -319 -1206 -571 -163 -143 -276 -299
-397 -553 -225 -470 -410 -1099 -685 -2332 -124 -553 -121 -547 -235 -665
-113 -117 -146 -202 -164 -431 -17 -202 -44 -297 -161 -554 -154 -339 -185
-459 -177 -670 17 -442 296 -789 852 -1060 94 -46 244 -111 335 -145 91 -35
260 -104 375 -155 116 -51 253 -106 305 -123 97 -32 239 -62 291 -62 49 0 50
-24 7 -118 -22 -46 -51 -132 -65 -191 -34 -150 -38 -165 -73 -266 -57 -164
-40 -306 43 -369 19 -14 72 -46 118 -70 l83 -43 -3 -48 c-1 -26 -5 -57 -8 -69
-3 -11 -6 -149 -8 -306 -3 -293 7 -448 40 -612 13 -63 15 -108 9 -228 -7 -146
-6 -150 22 -228 l28 -80 -22 -109 c-26 -130 -27 -157 -6 -214 25 -68 29 -267
10 -439 -26 -223 -20 -428 19 -708 7 -49 9 -52 36 -52 33 0 33 1 19 85 -34
204 -40 497 -15 685 19 142 14 354 -11 443 -18 65 -18 70 0 159 24 118 23 190
-3 251 -12 27 -21 63 -20 80 0 30 6 35 99 81 166 81 332 197 451 315 94 94
111 117 152 201 49 100 82 211 93 310 7 64 14 69 72 54 19 -6 22 -11 17 -38
-8 -40 8 -81 39 -101 35 -23 100 -30 136 -15 30 13 60 54 60 84 0 9 6 13 13
11 13 -5 421 -60 522 -70 33 -4 112 -12 175 -18 l114 -12 7 -34 c10 -47 31
-64 83 -65 51 -1 63 7 68 46 2 15 7 30 10 34 9 8 433 -22 450 -32 3 -2 9 -18
13 -34 7 -33 38 -60 69 -60 17 0 18 -5 12 -45 -3 -25 -8 -126 -11 -223 -3 -97
-7 -240 -10 -317 -3 -77 -5 -294 -5 -482 -1 -222 -4 -344 -11 -348 -15 -10
-258 -45 -311 -45 -27 0 -48 -5 -48 -10 0 -6 19 -8 48 -5 26 2 88 7 137 10 85
6 275 29 340 41 l30 5 1 -93 c1 -51 3 -160 5 -243 5 -188 3 -196 -142 -557
l-19 -48 23 0 c21 0 30 16 75 128 105 262 128 405 99 607 -14 96 -14 192 1
207 4 3 30 11 58 16 l51 9 7 -131 c6 -119 25 -245 106 -709 22 -122 24 -127
47 -127 22 0 24 3 19 27 -14 66 -115 635 -125 703 -6 41 -12 113 -13 159 l-3
84 154 33 c85 18 170 38 190 44 77 24 121 42 121 51 0 15 -47 10 -152 -16 -55
-14 -102 -24 -104 -22 -2 2 2 22 10 44 47 132 72 438 75 897 1 186 4 342 6
346 3 4 23 10 46 13 22 3 43 8 46 11 3 3 11 27 18 53 l12 48 104 7 c57 3 141
9 186 13 75 5 82 4 88 -14 14 -45 118 -33 139 15 8 18 21 23 80 29 104 9 373
44 435 55 70 13 71 13 71 -5 0 -8 12 -28 28 -45 22 -25 35 -31 73 -32 84 -1
137 44 125 107 -6 32 -6 32 39 38 25 4 56 9 69 13 l24 6 -6 -151 c-6 -179 4
-244 57 -356 110 -233 369 -442 622 -503 l69 -17 0 -125 c0 -69 -5 -165 -10
-215 -19 -179 -24 -396 -10 -490 27 -181 12 -401 -46 -675 -13 -63 -24 -118
-24 -122 0 -5 13 -8 28 -8 28 0 29 2 50 103 57 271 69 463 48 812 -6 104 -4
191 8 337 22 266 21 361 -6 483 -22 104 -21 137 10 375 8 66 8 439 0 556 -7
87 -38 281 -54 336 -4 13 12 26 68 54 169 84 337 223 381 316 36 76 19 251
-45 461 -25 82 -31 119 -31 192 0 50 3 106 6 125 l7 35 67 1 c83 1 141 23 245
91 54 36 98 56 150 68 92 23 116 33 208 88 41 24 163 90 270 147 232 122 752
408 864 474 180 107 286 217 367 382 65 133 89 243 90 420 1 277 -74 532 -224
753 -63 93 -132 240 -190 401 -67 187 -107 266 -181 363 -82 108 -130 186
-200 325 -143 285 -285 716 -436 1322 -173 693 -331 1122 -543 1475 -165 274
-398 520 -588 620 -128 67 -407 160 -709 235 -47 12 -101 25 -121 31 -28 7
-49 26 -96 86 -33 43 -99 120 -147 171 -243 263 -478 437 -846 625 -98 50
-155 85 -155 94 0 9 45 41 113 78 410 229 713 494 822 720 21 44 57 134 80
199 22 66 42 122 44 124 2 2 17 -3 34 -12 81 -42 215 -24 310 41 165 113 392
443 448 653 24 92 25 386 1 483 l-17 69 60 66 c68 74 131 190 156 292 18 70
24 245 11 318 -4 23 -3 42 1 42 5 0 42 -29 83 -65 71 -62 108 -80 110 -52 5
98 -5 308 -20 414 -32 214 -113 454 -191 562 l-20 30 57 6 c144 16 249 75 318
178 37 55 34 87 -8 87 -41 0 -141 30 -204 60 -84 41 -145 112 -217 251 -162
313 -289 493 -496 700 -256 258 -518 419 -795 489 -49 12 -96 24 -103 26 -8 2
0 19 23 49 19 25 44 75 55 111 37 121 22 156 -50 115 -53 -30 -141 -60 -222
-75 -38 -8 -68 -12 -68 -11 0 2 19 14 43 28 105 62 189 163 226 275 22 64 27
127 12 136 -5 4 -42 -12 -83 -34 -119 -64 -224 -93 -383 -105 -44 -4 -91 -8
-104 -10 -12 -2 -116 -5 -230 -6 -244 -3 -421 -19 -551 -53 -52 -13 -96 -22
-98 -21 -2 2 4 25 14 52 26 71 24 196 -3 248 -25 48 -55 77 -69 67z m35 -189
c1 -60 -27 -158 -60 -210 -6 -11 -9 -28 -5 -38 7 -20 8 -19 136 20 134 41 316
63 590 69 354 9 500 26 645 75 59 21 60 21 35 1 -14 -11 -50 -29 -80 -41 -115
-43 -172 -54 -303 -54 -70 0 -127 -3 -127 -6 0 -24 190 -25 298 -3 94 19 175
52 236 93 25 18 46 28 46 24 0 -5 -12 -31 -26 -58 -54 -102 -170 -196 -292
-235 -37 -12 -77 -26 -89 -32 -26 -13 -283 40 -378 77 l-60 24 30 -25 c56 -45
208 -90 325 -95 30 -1 62 -9 72 -16 12 -11 44 -14 121 -14 118 1 217 19 308
56 34 14 64 23 66 21 2 -2 -15 -20 -39 -41 -86 -74 -250 -139 -432 -172 -96
-17 -348 -23 -446 -11 l-55 7 50 -15 c70 -21 321 -30 426 -15 176 25 349 91
437 166 49 43 56 27 13 -31 -34 -48 -95 -99 -188 -160 -29 -19 -96 -57 -150
-85 -69 -35 -88 -48 -63 -44 53 10 178 66 244 110 l59 39 96 -16 c164 -29 323
-90 493 -190 48 -29 86 -53 84 -55 -1 -2 -36 11 -77 27 -79 33 -247 80 -283
80 -11 -1 29 -18 89 -39 134 -46 229 -87 358 -154 88 -45 110 -63 220 -176
105 -108 234 -261 262 -311 5 -8 -25 17 -66 56 -238 224 -573 367 -889 379
-104 4 -108 3 -43 -5 375 -48 726 -206 974 -439 91 -85 126 -138 250 -380 83
-163 177 -247 330 -293 l44 -13 -43 -3 c-116 -9 -260 55 -367 162 -38 39 -90
101 -114 139 -24 37 -45 67 -48 67 -2 0 15 -37 39 -82 115 -222 343 -350 531
-297 22 6 42 8 45 5 12 -13 -75 -88 -137 -119 -56 -27 -77 -32 -170 -37 -95
-4 -110 -3 -152 17 -25 12 -66 25 -90 28 -42 6 -39 3 50 -43 78 -40 100 -57
129 -98 28 -41 102 -185 102 -200 0 -2 -22 12 -48 31 -50 35 -116 67 -167 79
-18 4 4 -13 56 -44 48 -29 112 -78 142 -109 51 -51 58 -64 76 -136 26 -100 51
-248 50 -289 0 -25 -3 -20 -15 24 -19 71 -65 165 -104 213 -33 39 -198 172
-205 165 -3 -2 33 -39 79 -81 134 -122 189 -223 231 -425 24 -118 24 -118 -49
-62 -36 26 -80 54 -99 61 -44 16 -136 143 -217 302 -33 65 -60 110 -60 100 1
-38 52 -161 100 -241 96 -156 101 -286 24 -587 -13 -50 28 36 51 110 43 132
43 251 0 360 -6 14 2 10 28 -14 20 -19 34 -38 32 -42 -3 -4 2 -36 10 -71 8
-35 15 -110 15 -169 0 -180 -50 -323 -154 -436 l-49 -54 -21 24 c-41 49 -101
61 -157 31 -26 -13 -22 -5 32 63 105 132 158 281 144 406 -11 101 -22 109 -22
17 0 -152 -50 -284 -167 -440 -35 -47 -91 -107 -125 -134 l-62 -48 30 59 c106
210 151 408 152 661 1 85 -2 156 -5 159 -3 4 -6 -29 -6 -73 0 -324 -110 -683
-294 -959 l-67 -100 4 165 c3 155 5 170 35 250 57 157 65 329 21 497 -17 70
-78 218 -85 210 -2 -2 7 -34 21 -73 69 -202 79 -406 29 -624 -20 -89 -28 -78
-38 55 -9 128 -61 475 -96 645 -16 80 -30 148 -30 153 0 4 21 7 48 8 26 0 70
4 97 9 28 4 54 5 58 1 15 -15 58 -155 73 -240 8 -47 17 -162 19 -255 3 -93 7
-171 9 -173 7 -7 18 140 18 239 0 153 -23 262 -77 370 l-34 67 92 21 c94 22
196 58 165 59 -9 1 -50 -6 -90 -14 -622 -132 -1185 26 -1694 475 -58 51 -110
104 -115 117 -5 13 -5 39 -1 59 l7 36 33 -45 c60 -84 235 -197 460 -297 271
-121 557 -185 862 -194 85 -2 137 -2 115 0 -364 38 -513 65 -732 136 -326 104
-639 273 -715 385 -23 34 -27 52 -32 158 -4 66 -9 134 -11 150 -2 17 -7 54
-10 84 l-6 54 51 -76 c99 -148 270 -271 481 -345 48 -17 112 -35 143 -41 50
-9 66 -19 124 -72 238 -218 569 -351 907 -365 88 -4 153 -1 199 8 l70 13 -165
0 c-188 0 -298 19 -501 85 -172 57 -404 183 -526 287 l-34 28 114 -3 c91 -3
149 3 295 27 185 32 305 38 381 21 130 -30 216 -107 289 -258 33 -70 53 -101
66 -102 19 0 20 10 18 185 -5 430 -197 772 -515 915 -92 41 -122 46 -37 6 319
-154 493 -450 516 -881 l5 -100 -28 80 c-139 390 -457 660 -943 800 -161 47
-172 44 -24 -6 157 -53 398 -171 508 -250 179 -128 323 -293 410 -470 53 -109
71 -166 32 -99 -96 162 -218 230 -414 230 -89 0 -128 -5 -346 -46 -97 -19
-274 -21 -370 -5 -94 16 -266 74 -342 116 -229 126 -347 269 -408 495 -23 85
-116 300 -130 300 -3 0 3 -17 14 -37 48 -97 102 -278 127 -433 19 -116 27
-483 13 -625 -11 -117 -43 -318 -65 -416 l-16 -69 -51 57 c-235 256 -410 597
-487 948 -18 81 -19 84 -14 30 29 -303 203 -695 411 -925 l58 -64 -49 34 c-78
56 -248 223 -329 322 -85 106 -173 237 -235 353 -60 112 -42 54 25 -83 116
-234 295 -444 503 -590 94 -66 94 -67 -12 -29 -442 158 -791 550 -972 1090
-29 88 -72 244 -99 362 -12 54 -5 -73 8 -142 8 -43 15 -83 15 -89 0 -6 -24
-21 -52 -35 -188 -86 -385 -271 -484 -455 -43 -80 -36 -76 31 20 98 140 243
271 403 365 117 68 111 70 153 -62 l36 -114 -49 -12 c-246 -56 -527 -289 -652
-539 -49 -97 -85 -235 -93 -357 l-7 -100 -17 57 c-56 181 -51 402 15 628 14
46 23 86 21 89 -3 2 -16 -21 -30 -51 -92 -202 -99 -505 -15 -740 16 -45 27
-84 25 -86 -5 -6 -145 161 -202 241 -112 158 -197 363 -227 543 -30 178 -6
422 58 603 20 55 20 64 -1 27 -21 -40 -60 -156 -81 -241 -24 -102 -23 -362 2
-470 25 -110 71 -236 115 -322 43 -83 32 -83 -45 -1 -164 173 -265 391 -294
633 -32 265 49 491 248 697 42 43 73 80 71 83 -9 9 -126 -96 -172 -153 -69
-89 -113 -170 -148 -273 -26 -78 -32 -115 -36 -214 -10 -232 48 -439 182 -646
74 -115 105 -237 85 -339 -11 -59 -5 -64 11 -9 7 24 12 81 12 127 l-1 83 43
-40 c23 -21 62 -52 85 -67 24 -16 62 -55 85 -87 l43 -58 -29 -77 c-69 -183
-143 -478 -174 -692 -9 -63 -18 -125 -20 -137 -2 -12 -7 -60 -10 -105 -4 -46
-9 -96 -10 -113 -2 -16 -5 -79 -5 -138 -1 -60 -3 -107 -5 -105 -2 2 -9 44 -15
93 -14 112 -15 430 -1 549 6 50 9 91 7 93 -12 12 -40 -187 -45 -321 -7 -172 4
-304 37 -448 11 -49 17 -88 13 -88 -8 0 -105 283 -133 390 -17 67 -22 113 -22
215 0 120 2 137 32 222 38 111 97 231 157 318 51 75 76 148 74 219 l-2 51 -7
-62 c-11 -96 -56 -177 -148 -265 -144 -138 -280 -200 -440 -201 -104 0 -144
16 -65 27 62 8 173 61 240 114 59 47 129 143 161 219 32 76 27 76 -18 1 -97
-161 -240 -274 -410 -322 l-55 -16 30 22 c57 40 200 194 234 251 18 31 44 82
56 114 24 60 48 166 35 158 -4 -3 -10 -19 -13 -37 -16 -98 -103 -251 -190
-337 l-45 -44 -30 59 c-41 82 -68 175 -92 317 -26 151 -31 164 -24 62 13 -184
51 -340 105 -431 l19 -31 -70 -52 c-39 -29 -68 -56 -65 -61 15 -24 113 -45
208 -44 53 0 97 -1 97 -3 0 -1 -24 -18 -52 -37 -65 -43 -157 -70 -211 -63 -30
4 -37 3 -28 -6 7 -7 43 -12 89 -12 68 1 85 5 141 35 35 19 75 49 90 68 24 30
78 68 86 60 2 -2 -5 -28 -15 -58 -11 -31 -19 -81 -19 -115 l0 -60 24 82 c31
111 60 169 102 201 20 15 61 47 92 71 l55 45 -23 -35 c-45 -68 -112 -219 -126
-286 -29 -136 -15 -284 44 -460 15 -46 26 -83 25 -83 -1 0 -28 51 -59 112 -68
134 -102 187 -164 251 -117 123 -240 128 -318 13 l-32 -47 -17 38 c-56 133
-104 306 -125 453 -18 134 -20 186 -16 380 3 124 7 234 10 245 2 11 8 45 12
75 14 114 44 233 111 447 5 15 4 15 -4 3 -39 -59 -131 -395 -148 -535 -3 -33
-8 -69 -10 -80 -2 -11 -5 -103 -6 -205 -1 -202 -3 -200 -39 50 -32 222 -33
599 -1 777 81 452 330 806 726 1032 105 60 162 79 355 123 79 17 139 34 131
36 -18 6 -182 -16 -279 -39 -46 -11 -85 -18 -87 -16 -2 1 9 22 23 46 47 80
210 134 403 134 113 0 114 0 70 14 -98 30 -258 13 -365 -39 -39 -18 -38 -17
24 43 82 79 193 134 266 134 70 -1 171 -50 235 -114 27 -28 50 -48 50 -45 0
33 -96 134 -153 160 l-32 15 50 -7 c28 -3 84 -17 125 -30 41 -13 80 -24 86
-24 6 0 19 29 29 65 31 115 120 229 263 339 34 26 153 106 265 178 111 72 225
147 252 167 l50 36 -30 -36 c-43 -52 -112 -112 -255 -219 -150 -113 -236 -200
-279 -279 -44 -84 -39 -85 18 -4 55 78 118 136 296 271 135 102 206 171 260
252 l37 55 -6 -82 c-7 -96 -35 -191 -82 -284 l-33 -66 -88 -6 c-145 -10 -165
-23 -38 -25 174 -1 303 -42 459 -146 90 -60 234 -203 291 -290 21 -31 40 -54
42 -52 6 6 -23 61 -60 115 l-30 44 54 -31 c181 -103 454 -164 721 -161 l113 2
-98 8 c-408 34 -695 130 -880 296 -127 114 -219 171 -337 209 l-55 18 45 14
c25 7 97 16 160 19 134 6 252 -12 368 -57 39 -15 72 -26 72 -23 0 10 -157 76
-228 95 -60 16 -109 21 -218 22 l-142 1 72 75 c78 82 151 192 188 282 27 67
36 58 37 -39z m-656 -2026 c177 -362 414 -611 736 -772 93 -46 263 -108 333
-120 36 -7 37 -7 48 36 24 90 50 239 66 389 l17 155 93 -91 c333 -328 793
-535 1210 -545 l72 -2 22 -101 c26 -125 85 -478 100 -606 27 -234 33 -461 15
-620 -61 -547 -213 -1106 -356 -1309 -228 -325 -821 -703 -1307 -833 -105 -28
-132 -31 -267 -32 -134 -1 -162 2 -260 27 -462 120 -1021 434 -1344 757 -233
233 -318 424 -375 835 -41 297 -41 816 -1 1085 2 14 9 60 14 104 29 210 116
555 177 701 l15 37 75 -72 c78 -74 111 -86 107 -40 -22 262 4 435 89 604 79
157 248 333 425 441 46 27 210 103 230 105 1 0 30 -60 66 -133z m-1755 -1742
c47 -20 112 -83 164 -159 51 -75 169 -317 248 -511 55 -134 62 -161 71 -255
11 -122 15 -152 36 -280 23 -141 25 -133 -27 -146 -61 -16 -165 -9 -232 14
-187 66 -372 289 -454 547 -28 86 -29 98 -28 275 1 280 43 453 124 508 39 26
49 27 98 7z m5013 -145 c35 -19 71 -113 85 -220 11 -94 6 -291 -10 -367 -34
-162 -168 -385 -331 -549 -55 -55 -118 -109 -140 -119 -91 -43 -265 -23 -251
29 4 11 22 83 41 158 39 152 102 309 203 503 93 181 85 170 111 155 88 -47 88
-322 -1 -445 l-21 -30 22 19 c12 11 38 54 59 95 35 70 37 81 37 165 0 50 -6
108 -14 129 -15 45 -57 97 -78 97 -11 0 -6 15 19 60 41 75 101 146 140 166 29
15 32 15 55 -8 29 -29 48 -118 67 -308 12 -115 14 -125 16 -70 9 246 -24 400
-91 424 -58 20 -136 -51 -232 -213 -24 -42 -83 -150 -131 -241 -47 -91 -86
-160 -86 -153 0 7 7 59 16 115 12 80 25 121 55 182 99 196 230 338 379 412 53
27 55 27 81 14z m-3567 -2239 c283 -170 631 -316 876 -368 101 -21 304 -24
395 -4 138 30 360 105 490 166 6 4 10 -53 10 -157 0 -261 46 -405 167 -528 54
-54 180 -140 207 -140 16 0 41 -42 41 -69 0 -61 -24 -106 -94 -176 -97 -95
-206 -149 -403 -199 -446 -112 -1275 -90 -1701 45 -254 81 -384 190 -399 334
-6 59 -6 60 89 132 99 76 176 197 220 349 21 71 23 99 23 289 -1 116 -4 247
-8 293 -4 45 -5 82 -1 82 3 0 43 -22 88 -49z m-129 -406 c-8 -291 -147 -517
-368 -600 -26 -10 -50 -15 -54 -12 -11 11 17 117 57 220 46 118 25 111 -39
-12 -53 -102 -71 -179 -72 -303 -1 -132 26 -251 86 -373 92 -189 215 -336 431
-516 473 -393 851 -906 949 -1287 22 -87 36 -203 21 -178 -161 266 -371 448
-752 648 -107 56 -110 59 -106 87 6 43 -16 99 -48 122 l-27 21 43 115 c24 63
44 125 44 138 0 33 -40 76 -133 144 -221 159 -454 300 -712 431 -164 83 -431
201 -488 215 -15 4 -29 11 -32 15 -17 28 159 389 275 563 153 230 269 348 485
492 155 104 421 227 437 201 4 -6 5 -65 3 -131z m2163 43 c147 -78 295 -171
422 -266 121 -90 352 -314 454 -439 l58 -73 -36 -75 c-58 -123 -131 -219 -294
-386 -227 -233 -483 -459 -734 -647 -64 -48 -117 -91 -117 -97 -1 -5 26 -57
58 -115 55 -98 58 -106 42 -124 -11 -12 -17 -39 -18 -85 l-1 -67 -129 -129
c-168 -169 -255 -298 -330 -490 l-24 -60 6 170 c12 358 39 800 55 883 22 119
115 239 373 484 472 449 537 521 592 655 13 32 29 86 36 121 26 127 -20 292
-110 393 l-39 44 39 -80 c46 -94 69 -179 69 -252 0 -53 0 -53 -27 -47 -161 36
-257 76 -349 145 -80 61 -138 143 -169 241 -23 73 -44 224 -40 291 1 15 2 45
3 66 l2 40 56 -25 c30 -13 99 -48 152 -76z m-2490 -728 c-3 -38 -6 -42 -55
-65 l-53 -24 0 48 0 47 48 16 c65 22 64 23 60 -22z m2852 -28 c0 -10 -6 -12
-17 -7 -17 7 -115 21 -138 20 -5 0 -11 9 -13 20 l-3 21 86 -20 c56 -14 85 -25
85 -34z m-3632 -40 c-30 -56 -35 -60 -98 -81 -138 -48 -469 -203 -593 -278
-32 -19 -59 -34 -61 -32 -1 2 -25 34 -54 71 l-51 67 82 39 c102 50 251 109
382 152 108 36 392 118 412 119 7 1 -1 -23 -19 -57z m3583 4 l38 -11 -14 -32
c-13 -30 -16 -32 -40 -23 -15 6 -49 10 -77 10 -42 0 -49 3 -44 16 3 9 9 26 12
39 5 22 10 24 47 18 22 -3 57 -10 78 -17z m-2769 -54 l25 -48 -50 -48 c-48
-46 -51 -47 -65 -30 -22 29 -42 81 -42 107 0 19 10 29 48 45 26 12 50 21 53
22 3 0 17 -22 31 -48z m3486 -65 c37 -56 74 -117 81 -135 13 -30 12 -35 -10
-59 -13 -14 -199 -184 -414 -378 -214 -193 -425 -389 -469 -435 -74 -77 -78
-84 -73 -117 9 -50 57 -127 158 -247 l87 -105 -66 -26 c-88 -35 -237 -114
-342 -182 -289 -188 -496 -430 -612 -717 l-29 -71 4 105 c3 86 10 122 37 200
74 217 175 375 347 548 l123 124 34 -30 c60 -52 131 -54 181 -4 74 73 58 187
-35 250 -28 19 -45 23 -88 20 l-53 -3 -50 92 -50 92 101 76 c351 266 747 633
894 827 66 88 142 219 151 259 4 16 11 27 16 24 4 -3 39 -52 77 -108z m282
-16 c313 -86 484 -149 589 -215 l44 -28 -26 -25 -25 -25 -118 50 c-149 63
-340 124 -501 159 l-124 27 -40 58 c-23 34 -34 58 -26 58 7 0 110 -27 227 -59z
m-1038 43 c34 -6 36 -8 26 -28 -6 -11 -26 -42 -45 -68 l-34 -47 -32 19 c-17
11 -51 22 -74 26 -24 3 -43 7 -43 9 0 1 19 23 42 48 45 50 67 56 160 41z
m-3602 -23 c0 -5 -16 -44 -36 -87 -44 -96 -134 -363 -134 -397 0 -21 19 -32
188 -106 103 -45 370 -164 595 -263 400 -178 407 -181 392 -202 -28 -39 -102
-191 -128 -261 -28 -78 -55 -204 -59 -279 -3 -57 -6 -55 126 -76 174 -26 381
-92 539 -171 95 -47 234 -136 258 -165 15 -18 39 -388 55 -849 3 -99 7 -202 9
-230 26 -377 26 -2534 0 -2930 -2 -33 -6 -134 -10 -225 -3 -91 -8 -203 -10
-250 -3 -47 -10 -170 -15 -275 -6 -104 -12 -215 -15 -245 -2 -30 -7 -95 -10
-145 -14 -215 -67 -849 -80 -945 -2 -19 -11 -102 -20 -185 -23 -227 -23 -226
-48 -221 -12 3 -96 8 -186 11 -90 4 -171 8 -180 10 -9 1 -61 6 -116 9 -447 30
-1071 127 -1465 226 -271 68 -552 182 -612 246 -57 62 -59 156 -7 304 17 47
37 119 45 160 19 99 50 201 85 278 l28 63 30 -16 c56 -28 146 -45 247 -46
l101 -1 19 -37 c10 -19 50 -68 88 -108 l68 -73 -22 -54 c-12 -31 -20 -60 -18
-67 6 -18 133 257 215 465 246 628 547 1540 607 1841 25 124 42 277 35 310
l-7 30 -1 -30 c-1 -16 -15 -84 -31 -150 -16 -66 -30 -121 -30 -121 0 -1 -19 5
-42 13 -33 12 -71 14 -159 10 -180 -8 -195 -21 -252 -227 -31 -108 -161 -497
-169 -505 -2 -2 -32 14 -68 36 -60 37 -145 80 -197 100 -14 5 -36 37 -62 91
-22 46 -60 115 -85 153 -25 39 -46 81 -46 95 0 14 27 82 61 150 60 125 60 125
56 200 -2 44 -14 100 -27 135 -80 210 -75 185 -75 375 0 148 4 189 23 263 12
49 33 173 47 275 14 103 27 201 29 217 2 17 7 55 11 85 4 30 8 66 10 80 2 14
11 97 20 185 8 88 17 180 20 205 2 25 7 88 10 140 3 52 8 123 11 157 2 34 29
158 59 275 99 389 128 590 128 888 0 288 -30 503 -109 780 -66 230 -182 492
-305 687 l-58 92 103 56 c146 78 316 158 448 210 121 48 128 50 128 36z m972
-55 l48 -44 -36 -54 c-20 -29 -39 -54 -44 -56 -4 -2 -34 22 -66 52 l-59 55 45
45 c24 25 49 46 55 46 5 -1 31 -20 57 -44z m2500 -56 c21 -6 40 -15 43 -20 3
-5 -20 -27 -50 -48 l-56 -40 -23 23 c-12 12 -39 28 -59 36 -20 7 -37 16 -37
19 0 3 12 13 28 22 31 20 99 23 154 8z m1138 -20 c47 -12 117 -31 155 -42 83
-24 417 -147 428 -157 4 -4 -5 -23 -19 -42 -80 -107 -130 -262 -153 -474 -18
-167 4 -738 39 -1009 5 -39 12 -93 15 -121 18 -152 67 -427 95 -535 20 -78 32
-282 32 -545 1 -295 -16 -468 -82 -835 -89 -494 -95 -541 -94 -765 1 -133 5
-171 38 -329 30 -148 37 -197 35 -284 -1 -102 -2 -106 -35 -148 -18 -24 -38
-60 -45 -79 -7 -19 -16 -35 -19 -35 -3 0 -21 62 -39 138 -19 75 -38 145 -43
155 -11 21 -31 20 -227 -14 -62 -11 -115 -18 -116 -17 -1 2 -21 50 -44 108
-57 141 -168 370 -181 370 -6 0 -2 -17 9 -37 80 -157 183 -436 286 -773 131
-430 154 -517 246 -920 65 -286 85 -534 57 -728 -6 -50 -8 -86 -2 -92 14 -13
115 9 174 38 32 16 67 44 85 68 l31 41 2 -76 c2 -53 12 -112 36 -192 44 -148
69 -299 60 -353 -9 -59 -28 -90 -92 -154 -160 -160 -468 -301 -896 -412 -231
-59 -617 -127 -821 -145 -38 -3 -81 -8 -95 -10 -14 -2 -78 -7 -142 -11 -96 -5
-118 -4 -119 7 0 8 -2 21 -3 29 -2 8 -6 71 -10 140 -4 69 -9 143 -12 165 -3
34 -13 183 -49 765 -3 47 -8 119 -10 160 -9 144 -24 396 -30 500 -3 58 -7 143
-10 190 -3 47 -7 137 -10 200 -3 63 -7 144 -10 180 -3 36 -7 139 -10 230 -3
91 -8 190 -10 220 -2 30 -7 152 -10 270 -4 118 -8 242 -10 275 -28 514 -22
2126 10 2490 2 28 7 106 10 175 4 69 8 136 10 150 2 14 6 70 10 125 4 55 11
143 16 195 4 52 9 103 9 112 0 23 131 134 250 213 119 79 243 143 385 200 67
27 111 50 113 60 2 9 -25 48 -61 88 -80 90 -193 238 -202 266 -4 14 1 31 13
49 25 35 203 200 517 482 334 299 445 408 445 436 0 13 -5 35 -10 49 -9 23 -8
26 7 21 10 -3 56 -15 103 -26z m-3469 -22 l75 -34 -28 -59 c-15 -33 -28 -66
-28 -72 0 -18 -3 -17 -79 21 -95 48 -112 59 -106 74 12 33 71 112 80 108 5 -3
44 -20 86 -38z m-217 -95 c179 -132 482 -234 796 -268 248 -27 609 -27 850 -1
291 32 547 100 745 197 l60 30 -125 -117 c-192 -180 -401 -392 -453 -461 -87
-115 -105 -165 -121 -353 -11 -113 -25 -350 -31 -505 -4 -82 -8 -167 -10 -187
-2 -20 -7 -169 -10 -330 -4 -161 -8 -298 -10 -305 -12 -39 -16 -1178 -5 -1493
6 -195 13 -366 15 -380 2 -23 9 -118 20 -310 9 -148 15 -278 20 -430 3 -85 7
-213 10 -285 2 -71 7 -211 10 -310 3 -99 7 -243 10 -320 3 -77 7 -216 10 -310
5 -167 10 -333 20 -630 5 -141 9 -250 20 -575 3 -74 8 -196 11 -271 l6 -136
-133 -18 c-103 -13 -165 -16 -264 -11 -130 7 -220 18 -231 28 -3 4 1 57 10
120 28 212 64 623 81 923 3 61 8 137 10 170 2 33 7 137 10 230 3 94 8 197 10
230 2 33 7 195 11 360 4 165 8 334 9 375 5 158 5 2800 0 2895 -35 679 -77 840
-310 1195 -205 312 -439 571 -751 828 -183 150 -303 292 -385 454 -21 43 -39
80 -39 83 0 3 16 -11 36 -31 20 -20 64 -56 98 -81z m-1644 -42 c240 -358 388
-740 457 -1186 25 -158 24 -593 0 -760 -27 -179 -100 -507 -118 -528 -3 -5 -7
70 -8 167 -1 239 -15 396 -57 626 -27 145 -40 181 -30 85 18 -194 35 -625 30
-800 -6 -196 -15 -395 -19 -433 -2 -20 -9 -93 -15 -162 -6 -69 -17 -181 -26
-250 -8 -69 -19 -165 -25 -215 -18 -153 -16 -151 -60 -46 -125 298 -199 658
-199 962 0 100 -8 134 -28 114 -11 -10 -5 -292 8 -397 28 -240 102 -505 197
-713 l55 -120 -17 -145 c-24 -193 -54 -310 -111 -425 l-47 -95 9 -78 c19 -169
6 -264 -43 -322 -45 -54 -61 -54 -165 -6 -138 65 -235 87 -410 93 -176 6 -300
-11 -452 -64 -133 -45 -305 -128 -414 -199 -94 -61 -284 -244 -315 -304 l-18
-35 22 30 c45 61 188 192 271 247 163 110 378 206 570 254 131 33 360 42 478
19 230 -45 405 -147 465 -269 29 -60 41 -142 28 -200 -8 -37 -12 -41 -56 -52
-156 -40 -300 -164 -413 -355 -75 -129 -142 -299 -118 -299 5 0 40 62 78 138
90 182 141 256 235 344 81 76 167 127 253 148 46 12 47 12 77 -22 40 -42 107
-152 148 -242 l31 -69 -51 -61 c-168 -202 -304 -491 -342 -731 -17 -106 -21
-251 -10 -356 l7 -66 -69 9 c-158 21 -448 121 -505 175 -57 54 -108 190 -156
413 l-10 45 -1 -52 c-2 -97 49 -290 96 -362 19 -30 26 -32 -167 47 -80 32
-201 80 -269 107 -476 185 -804 438 -949 730 -74 150 -104 276 -104 429 1 167
31 270 167 576 127 284 156 379 170 550 23 277 52 355 165 444 136 107 284
343 304 486 6 41 4 39 -27 -35 -19 -44 -44 -100 -57 -125 -26 -51 -98 -160
-106 -160 -3 0 -3 4 0 9 10 15 54 202 141 591 126 565 219 934 257 1026 122
286 371 510 681 612 126 41 147 52 101 52 -110 -1 -345 -106 -482 -216 -88
-70 -176 -166 -231 -252 -19 -28 -36 -51 -37 -49 -4 4 77 279 127 434 48 148
57 156 184 158 84 2 105 16 39 26 -38 7 -134 -4 -154 -16 -16 -10 -12 5 34
127 98 258 201 472 294 612 53 81 195 232 290 309 73 60 199 146 276 188 l49
27 17 -21 c9 -12 45 -64 80 -116z m4078 76 c6 -5 12 -14 12 -19 0 -9 -156 -88
-176 -88 -6 0 -15 11 -18 24 -3 14 -19 38 -36 54 l-30 30 48 17 c26 8 58 22
72 29 22 13 29 12 70 -12 25 -14 51 -30 58 -35z m-2019 -7 c41 -11 76 -21 77
-23 2 -2 -5 -27 -16 -55 -11 -29 -20 -63 -20 -77 0 -18 -5 -25 -18 -25 -17 0
-161 46 -169 54 -8 7 50 146 61 146 6 0 44 -9 85 -20z m1765 -31 c25 -19 62
-77 54 -84 -5 -6 -149 -52 -185 -60 -28 -6 -33 -4 -33 13 0 10 -11 40 -24 65
l-23 47 26 6 c14 3 49 12 76 19 70 18 79 18 109 -6z m-1575 -10 c97 -15 91
-10 75 -71 -7 -29 -14 -68 -14 -87 0 -37 4 -37 -129 -9 l-53 12 6 42 c6 44 34
124 44 124 3 0 35 -5 71 -11z m-1492 -53 c404 -173 805 -394 1121 -618 158
-112 154 -102 105 -250 l-40 -121 -44 -13 c-25 -7 -55 -23 -67 -35 -67 -62
-50 -180 32 -222 32 -17 43 -18 76 -8 21 6 49 24 63 40 l24 29 79 -45 c43 -25
120 -69 169 -98 290 -170 503 -377 605 -589 33 -68 40 -95 45 -166 4 -47 9
-105 12 -130 19 -159 9 -3307 -12 -3500 -2 -19 -6 -141 -10 -270 -3 -129 -8
-253 -10 -275 -2 -22 -7 -101 -10 -175 -3 -74 -8 -153 -10 -175 -2 -22 -7 -87
-10 -145 -3 -58 -8 -127 -10 -155 -2 -27 -7 -79 -10 -115 -37 -462 -95 -858
-156 -1058 -12 -37 -26 -73 -33 -80 -15 -16 -266 -30 -266 -16 0 5 9 90 20
189 22 200 26 232 40 390 6 61 12 130 15 155 6 56 36 438 50 627 9 126 27 437
40 693 8 153 26 672 34 980 7 261 5 1896 -3 1965 -2 17 -7 156 -10 310 -4 154
-9 300 -11 325 -2 25 -7 126 -10 225 -3 99 -8 196 -10 215 -2 19 -7 98 -10
175 -3 77 -8 153 -11 168 -5 26 -4 28 14 18 33 -18 200 -206 232 -261 17 -30
21 -1 4 32 -64 124 -255 328 -397 422 -173 115 -402 204 -656 254 l-137 27 12
73 c26 154 86 307 170 433 39 60 45 73 33 84 -8 7 -174 84 -369 170 -721 318
-828 367 -825 379 22 73 57 176 60 176 2 0 39 -15 82 -34z m1744 19 l46 -6 -1
-90 -1 -91 -55 7 c-30 3 -74 8 -97 12 l-43 5 0 45 c0 24 5 64 11 89 l12 45 41
-5 c22 -3 62 -8 87 -11z m1101 -25 c9 -19 20 -47 23 -62 6 -24 4 -28 -32 -37
-102 -26 -100 -26 -108 16 -4 20 -13 50 -21 65 -20 39 -18 46 19 51 78 10 101
4 119 -33z m2563 -95 c365 -365 598 -888 855 -1915 203 -814 385 -1281 620
-1591 84 -110 109 -160 186 -369 64 -174 125 -301 213 -438 173 -270 242 -638
171 -918 -11 -43 -41 -122 -66 -174 -41 -83 -60 -108 -148 -195 -93 -92 -116
-108 -281 -202 -431 -243 -882 -483 -870 -462 5 8 21 32 36 54 24 36 63 135
54 135 -2 0 -19 -28 -37 -62 -75 -142 -248 -272 -419 -316 l-75 -19 8 56 c7
53 4 195 -8 324 -15 172 -62 322 -154 486 -134 242 -296 396 -448 426 -38 8
-37 14 4 102 27 56 73 102 134 133 79 40 291 51 461 24 46 -7 85 -11 87 -10 5
6 -86 33 -148 45 -91 17 -191 22 -268 13 -65 -7 -74 -6 -83 9 -22 43 -7 99 41
150 43 47 347 176 551 234 284 82 493 108 644 79 168 -32 436 -133 540 -203
67 -45 54 -29 -22 30 -185 139 -498 239 -711 225 -75 -4 -282 -41 -412 -72
l-25 -6 25 22 c43 36 294 156 397 189 157 50 281 71 461 78 120 4 162 9 162
18 0 17 -61 23 -190 18 -310 -11 -622 -117 -869 -294 -57 -41 -115 -72 -175
-94 -108 -39 -227 -90 -313 -134 -34 -17 -66 -31 -71 -31 -12 0 -30 64 -37
127 -6 52 16 179 42 245 8 21 16 38 17 38 0 1 28 3 61 7 133 13 395 101 395
134 0 13 -3 12 -131 -34 -113 -42 -227 -67 -302 -67 -46 0 -62 6 -118 43 -68
46 -139 128 -133 156 1 9 11 70 20 137 l17 121 51 34 c77 51 243 222 315 324
75 107 178 313 220 443 64 193 95 410 89 625 -3 122 -9 160 -23 146 -2 -3 -7
-70 -10 -150 -7 -184 -20 -295 -51 -438 -78 -353 -247 -648 -496 -867 -40 -35
-75 -64 -79 -64 -3 0 9 84 27 188 29 164 42 250 69 467 10 81 13 520 4 645 -8
120 -11 163 -30 372 -12 142 -7 179 43 336 16 52 27 96 25 99 -9 8 -38 -44
-63 -110 -22 -59 -23 -60 -24 -27 -1 19 -3 42 -4 50 -2 8 -6 78 -10 155 -4 76
-8 141 -10 142 -8 8 -17 -167 -18 -332 l-1 -180 -13 80 c-39 230 -68 472 -79
650 -3 55 -8 109 -10 121 -3 11 -7 137 -10 280 -5 271 6 419 40 549 25 94 90
217 151 284 l56 61 31 -22 c17 -12 72 -63 122 -113z m-3390 102 l40 -2 3 -88
3 -88 -95 2 c-153 3 -143 -4 -145 100 l-2 88 78 -5 c43 -3 96 -6 118 -7z m655
-29 c10 -24 20 -56 22 -73 l3 -30 -75 -12 c-125 -20 -123 -20 -116 30 3 23 2
59 -3 79 l-9 37 47 4 c117 9 110 11 131 -35z m-204 -4 c5 -30 0 -122 -9 -130
-1 -1 -36 -4 -76 -6 l-75 -3 3 55 c1 31 -2 68 -8 82 l-10 27 62 4 c34 2 72 4
84 5 18 2 23 -5 29 -34z m-201 -59 l0 -80 -82 -3 -82 -3 -3 86 -3 86 85 -3 85
-3 0 -80z m1034 -903 c37 -20 71 -73 71 -110 0 -41 -27 -90 -59 -107 -52 -26
-117 0 -145 60 -30 63 -15 134 35 161 33 18 58 17 98 -4z m-2080 -67 c45 -58
31 -138 -29 -167 -43 -21 -85 -7 -111 36 -23 37 -24 67 -4 106 19 37 41 49 87
50 27 0 41 -6 57 -25z m1741 -791 c-23 -199 -38 -394 -46 -594 -3 -80 -7 -151
-10 -158 -8 -27 -19 -699 -19 -1177 1 -452 11 -1102 20 -1245 2 -30 6 -140 10
-245 3 -104 8 -228 10 -275 3 -47 12 -229 20 -405 14 -303 19 -403 30 -590 3
-44 7 -125 10 -180 3 -55 8 -131 10 -170 4 -62 24 -388 40 -650 3 -49 8 -121
10 -160 13 -198 16 -246 20 -320 3 -44 8 -110 11 -147 l6 -68 -75 0 c-66 0
-174 14 -184 24 -6 5 -21 162 -27 281 -12 225 -25 526 -31 710 -3 105 -8 240
-10 300 -3 61 -7 182 -10 270 -8 242 -15 436 -20 580 -3 72 -7 202 -10 290 -3
88 -7 216 -10 285 -3 69 -7 208 -10 310 -3 102 -7 219 -10 260 -3 41 -7 154
-10 250 -3 96 -8 195 -10 220 -2 25 -7 99 -10 165 -4 66 -8 131 -10 145 -17
113 -28 556 -27 1125 l1 660 24 96 c46 176 112 314 219 457 53 71 109 134 115
128 2 -1 -6 -79 -17 -172z m2211 -2471 c34 -21 45 -33 39 -44 -4 -8 -15 -45
-25 -84 -22 -91 -22 -214 2 -285 l18 -55 -23 -45 c-19 -36 -23 -56 -19 -96 4
-42 2 -52 -14 -62 -10 -7 -20 -12 -23 -12 -2 0 -6 48 -9 108 -2 59 -16 165
-31 236 -34 169 -49 306 -41 379 l7 59 37 -35 c20 -19 57 -48 82 -64z m-5808
-238 c9 -27 30 -88 46 -135 46 -127 43 -167 -20 -287 -28 -54 -57 -114 -65
-133 l-13 -35 5 42 c11 92 -29 216 -94 292 l-29 35 28 23 c15 13 41 50 56 81
27 56 28 61 28 227 0 134 3 175 15 193 14 21 15 12 21 -115 4 -82 13 -158 22
-188z m991 -405 c89 -14 89 -13 55 -143 -107 -408 -312 -1020 -547 -1633 -55
-143 -110 -287 -122 -322 -13 -34 -27 -61 -31 -60 -17 6 -113 135 -132 178
-38 83 -24 262 39 515 36 142 99 332 234 705 107 295 146 411 209 627 31 106
50 123 141 132 41 5 80 9 85 10 6 0 36 -3 69 -9z m4533 -150 c23 -85 51 -178
62 -206 52 -124 121 -465 186 -919 63 -443 66 -485 41 -568 -27 -90 -101 -154
-199 -172 l-37 -7 8 33 c15 68 7 428 -12 534 -60 339 -148 683 -304 1195 -38
124 -68 226 -67 228 7 9 197 40 235 39 l45 -2 42 -155z m208 -213 c69 -35 229
-169 214 -180 -2 -2 -49 -18 -104 -36 -55 -18 -105 -34 -111 -37 -6 -3 -16 19
-23 53 -7 32 -23 95 -37 139 -13 45 -24 85 -24 89 0 9 36 -3 85 -28z m282
-264 c37 -53 133 -223 133 -235 0 -3 -29 -8 -65 -11 -36 -4 -111 -22 -168 -42
-56 -19 -108 -36 -116 -38 -19 -3 -76 294 -58 305 21 13 198 73 228 77 3 1 24
-25 46 -56z m-5741 -23 c65 -33 130 -68 143 -79 l24 -19 -38 -108 c-21 -60
-41 -112 -44 -115 -3 -4 -44 15 -91 42 -84 49 -225 109 -255 109 -8 0 -15 4
-15 9 0 4 30 50 66 102 37 51 68 99 71 106 3 7 8 13 12 13 4 0 61 -27 127 -60z
m-185 -229 c105 -46 249 -130 249 -146 0 -24 -77 -240 -86 -239 -5 0 -56 23
-114 51 -58 29 -141 62 -185 74 -44 12 -88 24 -98 28 -16 6 -11 21 49 139 36
72 73 132 80 132 8 0 55 -18 105 -39z m6086 -48 c21 -51 58 -202 51 -209 -4
-3 -21 -8 -40 -10 -84 -12 -151 -29 -250 -65 -70 -24 -108 -34 -108 -26 -1 7
-9 61 -19 120 l-18 108 59 30 c51 26 193 69 268 82 14 2 29 5 33 6 4 0 15 -16
24 -36z m-6027 -335 c52 -28 96 -51 97 -52 1 -1 -44 -179 -52 -203 -3 -8 -34
2 -97 31 -96 45 -212 88 -285 106 -24 6 -43 14 -43 18 0 12 48 185 59 214 l10
28 108 -45 c59 -25 150 -68 203 -97z m6094 50 c3 -29 6 -80 6 -113 l0 -60 -92
-22 c-59 -14 -129 -40 -190 -71 l-97 -50 -5 27 c-14 67 -26 205 -19 212 18 18
165 73 268 99 61 16 113 29 116 30 3 0 9 -24 13 -52z m-6318 -243 c61 -24 143
-59 183 -80 71 -35 73 -37 67 -68 -3 -18 -8 -62 -12 -99 -4 -39 -12 -68 -18
-68 -6 0 -56 17 -111 39 -55 21 -139 49 -187 62 -67 18 -88 29 -92 44 -6 23 2
204 10 217 7 11 21 7 160 -47z m6328 -27 c-8 -120 -19 -150 -75 -187 -100 -69
-187 -93 -252 -72 -35 12 -35 12 -42 88 -8 92 -7 93 120 154 76 37 233 89 246
83 4 -2 5 -32 3 -66z m-6403 -227 c46 -15 132 -47 192 -70 l107 -43 0 -54 0
-55 -93 5 c-108 7 -189 28 -234 62 -25 19 -34 36 -43 81 -6 32 -14 68 -17 81
-3 12 -3 22 -1 22 2 0 42 -13 89 -29z m2922 -1048 c3 -5 0 -37 -7 -73 -7 -36
-12 -95 -11 -132 l0 -68 -38 0 c-45 0 -44 -16 -12 173 17 99 20 107 41 107 13
0 25 -3 27 -7z m588 -25 c0 -18 2 -42 4 -53 2 -10 5 -58 6 -105 l2 -85 -77 -8
c-43 -5 -79 -7 -80 -5 -2 2 1 35 5 73 7 57 5 131 -5 182 0 4 28 12 64 19 36 6
68 12 73 13 4 0 7 -14 8 -31z m-425 -1 c1 -1 6 -61 10 -134 6 -126 6 -131 -12
-128 -11 2 -48 4 -83 4 l-64 1 6 130 c4 72 9 134 11 139 4 6 124 -4 132 -12z
m250 -23 c7 -27 -2 -224 -11 -232 -2 -3 -46 -5 -97 -6 l-93 -1 -2 45 c-1 25
-4 84 -7 133 l-4 87 104 0 c103 0 104 0 110 -26z m-3260 -130 c23 -6 25 -11
23 -60 -1 -31 -7 -54 -13 -54 -6 0 -26 9 -44 20 -23 14 -32 26 -28 36 3 9 6
29 6 46 0 23 4 29 16 24 9 -3 27 -9 40 -12z m103 -35 l37 -11 0 -104 c-1 -73
3 -107 12 -116 11 -11 16 -10 26 5 18 23 29 22 16 -3 -18 -34 -48 -44 -91 -31
-21 7 -43 19 -47 29 -9 17 -4 242 6 242 2 0 21 -5 41 -11z m266 -73 c77 -19
214 -49 305 -66 91 -17 175 -34 188 -36 22 -4 23 -7 16 -67 -3 -34 -9 -65 -13
-69 -11 -12 -441 82 -613 133 -71 22 -78 30 -78 100 0 42 7 52 35 45 11 -3 83
-21 160 -40z m5175 32 c0 -11 -69 -58 -84 -58 -2 0 -6 8 -8 18 -3 12 7 22 31
34 44 20 61 22 61 6z m-122 -135 c4 -101 2 -103 -64 -117 -22 -5 -37 -2 -52
11 -23 20 -33 51 -17 53 6 0 11 -8 13 -20 2 -11 7 -20 11 -20 21 0 31 30 31
97 0 67 2 74 23 83 47 19 52 11 55 -87z m-5413 0 c-8 -55 15 -100 60 -119 69
-29 142 -9 164 43 l12 29 164 -41 165 -40 0 -35 c0 -66 -38 -220 -66 -267 -35
-61 -156 -186 -249 -259 -73 -57 -251 -174 -265 -174 -11 0 -39 142 -55 280
-15 126 -21 559 -9 632 l6 37 40 -22 c38 -21 39 -23 33 -64z m3127 63 l218 1
10 -36 c24 -88 4 -437 -28 -463 -18 -15 -553 -24 -667 -11 -69 8 -70 9 -82 43
-12 37 -17 209 -7 248 5 16 14 22 36 22 44 0 71 35 98 128 l24 82 90 -7 c50
-5 189 -7 308 -7z m322 -74 c4 -48 13 -99 19 -113 17 -33 96 -58 197 -61 45
-1 83 -5 85 -8 2 -3 7 -29 11 -57 l6 -50 -88 -7 c-49 -3 -132 -9 -184 -12
l-95 -6 3 148 c2 82 0 173 -6 202 l-9 52 27 0 c27 0 27 0 34 -88z m2111 23
c36 -199 42 -637 11 -875 -9 -68 -18 -126 -20 -127 -8 -9 -195 95 -263 146
-148 111 -233 221 -273 350 -16 50 -20 92 -20 206 l0 142 113 36 c101 33 113
35 122 20 35 -57 52 -68 108 -68 41 0 63 6 84 21 26 20 28 26 28 94 l0 72 45
23 c50 26 53 24 65 -40z m-280 -11 c-26 -19 -307 -109 -438 -140 -129 -31
-137 -29 -137 26 0 25 5 27 168 63 92 20 223 54 292 75 l125 37 3 -24 c2 -15
-3 -30 -13 -37z m-4298 -22 c9 -6 10 -27 5 -77 -10 -96 -1 -180 18 -180 8 0
16 10 18 23 3 22 22 32 22 12 0 -16 -47 -60 -63 -60 -28 0 -78 23 -87 39 -5
11 -5 55 0 112 5 52 10 104 10 117 0 18 5 22 33 22 17 0 37 -4 44 -8z m318
-41 c132 -17 294 -35 360 -41 66 -5 152 -13 190 -16 39 -4 70 -7 70 -8 0 0 -1
-38 -3 -83 l-4 -83 -29 0 c-69 0 -792 91 -842 106 -16 5 -18 16 -16 77 2 80 4
88 22 82 7 -2 120 -18 252 -34z m3377 -118 c5 -103 0 -113 -65 -120 -38 -5
-46 -2 -61 18 -18 27 -20 39 -6 39 6 0 10 -7 10 -15 0 -23 28 -18 41 7 7 14 9
44 5 84 l-6 63 27 4 c16 2 33 5 39 6 8 0 13 -29 16 -86z m-121 60 c7 -49 4
-73 -10 -78 -32 -10 -271 -45 -440 -65 -123 -15 -176 -18 -181 -10 -4 6 -7 28
-8 49 l-2 39 98 6 c110 8 505 55 511 62 7 7 31 5 32 -3z m-2539 -13 c14 0 16
-16 17 -135 l2 -135 -35 0 c-25 0 -38 6 -46 20 -11 20 -13 236 -3 253 3 5 15
6 27 3 11 -3 28 -6 38 -6z m-1352 -15 c76 -14 73 -11 65 -78 -8 -72 -57 -231
-93 -302 -57 -115 -167 -229 -325 -339 -91 -63 -339 -207 -346 -201 -2 2 0 40
4 84 l7 80 96 55 c177 100 363 255 439 367 45 65 74 159 80 261 5 75 8 88 22
84 9 -3 32 -7 51 -11z m1707 5 l153 0 0 -101 0 -100 -42 5 c-24 3 -79 8 -123
10 -244 16 -281 20 -287 30 -4 6 -7 47 -7 90 l1 79 75 -7 c42 -3 145 -6 230
-6z m2588 -172 c0 -145 2 -170 22 -222 75 -198 333 -429 541 -485 37 -11 38
-12 49 -73 6 -35 9 -65 7 -67 -6 -7 -158 51 -224 85 -139 73 -301 219 -375
339 -24 38 -56 106 -70 149 -27 81 -33 155 -27 343 2 72 2 72 35 82 17 5 34
10 37 10 3 1 6 -72 5 -161z m-1075 58 c0 -79 -9 -96 -51 -96 -23 0 -27 5 -33
38 -7 44 -8 117 -1 123 2 3 23 6 45 6 l40 1 0 -72z m-911 -236 l254 -1 -6
-382 c-4 -210 -9 -395 -11 -412 -2 -16 -7 -70 -11 -120 -3 -49 -16 -155 -29
-234 -19 -121 -25 -146 -42 -153 -22 -9 -464 -98 -489 -98 -13 0 -15 8 -11 48
3 26 8 277 11 557 5 501 12 739 20 782 4 17 11 20 32 18 16 -2 142 -5 282 -5z"/>
<path d="M9420 18102 c157 -107 255 -261 325 -512 27 -98 33 -68 9 48 -43 209
-147 371 -288 453 -55 31 -87 39 -46 11z"/>
<path d="M9207 17970 c-17 -56 -19 -195 -4 -275 14 -76 55 -200 63 -193 2 2
-6 49 -17 103 -12 57 -24 163 -28 245 -4 93 -9 136 -14 120z"/>
<path d="M8468 17590 c-135 -16 -268 -79 -366 -173 -63 -61 -73 -88 -13 -36
178 153 418 220 631 175 36 -8 66 -13 68 -11 12 11 -216 60 -248 53 -3 0 -35
-4 -72 -8z"/>
<path d="M11060 17493 c-84 -6 -264 -34 -280 -43 -21 -13 -9 -12 111 4 505 70
977 -44 1300 -316 46 -39 59 -45 59 -28 0 16 -72 80 -147 131 -284 193 -652
282 -1043 252z"/>
<path d="M8595 17466 c-60 -19 -86 -34 -132 -79 -44 -42 -62 -77 -20 -40 52
48 199 113 253 113 13 0 26 5 29 10 9 14 -81 11 -130 -4z"/>
<path d="M10541 17193 c12 -23 43 -64 69 -91 139 -146 340 -238 645 -296 344
-66 402 -79 544 -123 14 -4 14 -3 -1 6 -38 25 -237 83 -418 121 -248 52 -332
74 -432 110 -176 64 -305 155 -406 285 l-23 30 22 -42z"/>
<path d="M8045 17169 c-4 -6 -5 -12 -2 -15 2 -3 7 2 10 11 7 17 1 20 -8 4z"/>
<path d="M8470 17003 c-118 -120 -189 -245 -236 -420 -15 -53 -19 -101 -18
-223 1 -85 5 -167 10 -182 6 -19 9 24 9 135 1 135 4 176 23 243 49 183 123
313 253 449 111 116 75 114 -41 -2z"/>
<path d="M7411 16677 c-60 -195 -58 -454 4 -612 8 -22 13 -28 10 -14 -33 174
-35 399 -6 569 11 63 18 116 16 118 -2 2 -13 -25 -24 -61z"/>
<path d="M10568 16544 c43 -82 276 -223 475 -289 153 -50 203 -53 77 -5 -210
81 -439 204 -524 279 -26 24 -36 29 -28 15z"/>
<path d="M7557 16471 c-13 -63 -7 -175 14 -251 23 -83 79 -198 111 -227 19
-16 18 -13 -4 32 -61 121 -97 253 -107 395 -5 69 -8 79 -14 51z"/>
<path d="M7691 15814 c0 -11 3 -14 6 -6 3 7 2 16 -1 19 -3 4 -6 -2 -5 -13z"/>
<path d="M9280 15959 c-361 -22 -649 -171 -816 -420 -47 -71 -104 -195 -104
-228 0 -28 22 -38 34 -16 36 60 109 145 165 192 88 73 186 119 298 142 91 19
147 23 518 41 105 5 208 15 230 22 49 16 75 61 75 131 0 96 -35 124 -165 133
-38 3 -83 6 -100 7 -16 2 -77 0 -135 -4z m280 -48 c72 -14 96 -63 69 -139 -18
-52 -10 -50 -564 -76 -260 -13 -396 -59 -544 -184 -47 -40 -52 -43 -36 -17
141 223 370 362 680 410 93 15 329 18 395 6z"/>
<path d="M10748 15843 c-43 -7 -68 -47 -68 -110 0 -75 20 -118 68 -142 42 -21
185 -44 390 -61 322 -27 484 -108 646 -322 30 -40 56 -50 56 -20 0 10 -16 51
-36 92 -148 310 -469 515 -876 559 -97 11 -129 12 -180 4z m294 -64 c241 -48
430 -148 581 -308 86 -92 107 -129 41 -74 -61 51 -143 97 -219 123 -64 22
-279 55 -420 65 -101 7 -194 21 -243 36 -40 13 -62 53 -62 112 0 46 10 61 45
70 36 8 178 -4 277 -24z"/>
<path d="M8935 15256 c-134 -25 -276 -117 -372 -238 -79 -101 -123 -182 -123
-231 0 -42 40 -139 77 -184 18 -23 18 -21 18 65 0 74 4 96 28 147 40 86 98
158 174 215 75 57 102 65 56 18 -18 -18 -44 -60 -60 -93 -24 -53 -28 -72 -28
-155 1 -83 4 -102 27 -150 70 -143 207 -233 367 -243 217 -14 409 128 439 326
l8 52 13 -58 c19 -86 18 -177 -2 -208 -41 -61 -189 -136 -316 -159 -92 -17
-265 -14 -352 6 -90 19 -198 70 -259 119 -38 31 -36 29 10 -16 113 -108 263
-154 475 -146 182 8 299 43 412 126 58 42 75 79 74 160 -2 211 -79 411 -200
523 -119 109 -296 156 -466 124z m220 -117 c11 -1 -8 -5 -43 -10 -152 -19
-240 -132 -230 -294 6 -84 33 -140 96 -197 92 -83 232 -83 328 -1 125 107 112
336 -25 441 -52 39 -45 41 17 5 56 -33 154 -129 179 -175 12 -24 17 -57 18
-118 0 -75 -4 -92 -29 -143 -36 -70 -99 -130 -173 -164 -191 -87 -435 -1 -521
185 -38 83 -38 194 1 273 33 69 100 132 173 166 58 26 136 44 169 37 11 -2 29
-4 40 -5z m65 -19 c18 -12 2 -12 -25 0 -13 6 -15 9 -5 9 8 0 22 -4 30 -9z m97
-106 c60 -45 17 -104 -82 -112 -135 -11 -215 77 -112 124 47 21 159 14 194
-12z"/>
<path d="M11024 15138 c-200 -26 -353 -187 -413 -434 -45 -187 -39 -226 48
-306 128 -119 316 -182 537 -180 132 1 248 39 329 109 l30 26 -35 -22 c-61
-39 -123 -62 -200 -77 -209 -41 -488 29 -635 158 -64 57 -79 89 -71 157 10 83
42 182 72 221 l26 35 -8 -35 c-38 -180 57 -359 234 -443 63 -30 74 -32 182
-32 110 0 118 1 182 33 173 85 252 276 189 457 l-21 60 21 -25 c46 -57 99
-144 115 -193 19 -55 24 -163 11 -212 l-9 -30 32 30 c37 35 90 138 90 175 0
35 -71 179 -125 255 -54 76 -157 173 -220 209 -102 56 -238 81 -361 64z m238
-146 c165 -80 247 -263 192 -426 -39 -114 -171 -205 -310 -214 -159 -10 -296
67 -371 211 -24 45 -28 63 -28 142 0 74 4 97 23 132 31 60 77 110 129 140 78
45 112 53 208 50 77 -3 100 -8 157 -35z"/>
<path d="M11016 15005 c-59 -21 -108 -66 -141 -130 -56 -109 -32 -247 57 -332
46 -44 97 -63 170 -63 112 0 199 69 234 186 15 49 18 102 8 127 -4 12 -12 13
-39 4 -67 -20 -195 29 -195 76 0 8 9 22 21 33 17 15 36 19 92 18 l71 -1 -38
33 c-68 59 -160 78 -240 49z"/>
<path d="M10246 14778 c-19 -158 -13 -278 20 -418 24 -100 103 -255 171 -340
l61 -75 -17 -28 c-56 -89 -152 -170 -233 -196 -21 -7 -38 -16 -38 -21 0 -12
66 8 125 37 56 29 163 131 189 182 17 32 17 35 -1 56 -10 13 -39 49 -66 81
-59 74 -118 192 -153 309 -23 79 -27 113 -32 273 -4 174 -15 230 -26 140z"/>
<path d="M10035 13821 c-42 -20 -85 -55 -85 -71 0 -17 15 -11 75 25 32 19 73
38 92 41 18 3 36 10 39 15 10 16 -80 9 -121 -10z"/>
<path d="M9103 13650 c-62 -13 -205 -92 -190 -106 2 -2 28 6 57 19 l54 24 57
-46 c197 -159 526 -272 871 -298 164 -13 460 -7 598 11 169 23 219 36 105 28
-155 -12 -643 -7 -750 6 -303 39 -596 142 -780 274 l-58 41 54 28 c56 29 53
33 -18 19z"/>
<path d="M10328 12970 c-128 -42 -286 -47 -410 -15 -52 14 -70 13 -52 -4 17
-17 162 -41 243 -41 126 0 301 40 301 69 0 14 -14 13 -82 -9z"/>
<path d="M7424 14803 c-44 -48 -75 -192 -76 -356 0 -54 3 -101 6 -104 3 -4 6
17 6 45 0 29 7 94 15 145 29 180 58 257 99 265 26 5 95 -73 140 -157 l39 -73
-32 -25 c-59 -46 -76 -94 -76 -213 0 -97 2 -110 32 -172 18 -38 34 -68 36 -68
2 0 -7 32 -20 71 -28 83 -33 191 -13 262 14 51 62 111 82 105 15 -5 86 -173
127 -301 26 -78 60 -209 77 -294 2 -13 9 -23 15 -23 15 0 5 96 -22 210 -25
108 -113 329 -196 492 -101 201 -175 260 -239 191z"/>
<path d="M9136 9183 c-114 -57 -241 -106 -364 -138 -132 -35 -132 -35 -132
-47 0 -33 302 57 471 142 109 55 129 67 129 81 0 14 -10 11 -104 -38z"/>
<path d="M7434 8063 c16 -219 60 -380 157 -578 133 -271 349 -503 610 -655 80
-47 214 -102 236 -98 41 8 14 31 -109 91 -198 96 -348 210 -483 363 -213 244
-345 541 -377 850 -9 87 -15 114 -26 114 -12 0 -14 -15 -8 -87z"/>
<path d="M8620 7601 c0 -17 104 -102 180 -147 41 -24 111 -56 155 -70 92 -29
205 -43 205 -26 0 12 -5 13 -107 32 -132 23 -256 82 -363 171 -61 50 -70 56
-70 40z"/>
<path d="M7340 6621 c0 -30 74 -105 138 -139 78 -42 160 -62 258 -63 129 -2
146 0 142 14 -3 8 -43 14 -129 18 -69 3 -149 13 -180 22 -72 21 -145 71 -184
124 -33 46 -45 53 -45 24z"/>
<path d="M7330 3522 c0 -4 22 -44 49 -88 98 -159 261 -305 434 -389 105 -50
214 -82 230 -66 11 11 6 14 -130 64 -211 77 -416 245 -521 424 -21 35 -43 63
-49 63 -7 0 -13 -4 -13 -8z"/>
<path d="M6950 3377 c0 -40 88 -125 177 -171 83 -42 118 -39 46 5 -104 62
-146 95 -174 135 -30 44 -49 56 -49 31z"/>
<path d="M11504 9269 c-276 -46 -533 -295 -609 -589 -59 -227 -62 -507 -9
-738 106 -459 495 -822 936 -874 486 -57 832 315 852 917 12 363 -140 765
-389 1024 -188 196 -367 273 -629 270 -55 -1 -124 -5 -152 -10z m293 -39 c170
-22 292 -87 439 -234 176 -177 291 -387 358 -658 24 -94 49 -304 41 -332 -2
-6 -6 -47 -9 -91 -10 -163 -66 -352 -143 -485 -21 -36 -72 -99 -113 -140 -152
-152 -351 -212 -583 -174 -173 28 -352 114 -493 237 -277 241 -403 538 -404
947 0 275 58 479 185 647 170 227 416 323 722 283z"/>
<path d="M11521 9114 c-243 -52 -442 -256 -511 -521 -56 -218 -49 -482 21
-703 120 -382 493 -673 861 -671 254 1 437 120 554 357 89 182 125 436 90 646
-66 398 -306 748 -593 863 -108 44 -297 57 -422 29z m380 -60 c317 -100 591
-539 604 -969 13 -413 -173 -732 -471 -810 -194 -50 -456 22 -653 181 -193
155 -318 384 -356 649 -13 93 -13 249 0 345 28 199 90 333 210 455 99 100 203
154 339 176 84 13 242 0 327 -27z"/>
<path d="M11653 8775 c-132 -36 -249 -132 -316 -261 -51 -98 -68 -170 -68
-291 0 -207 64 -385 178 -496 89 -88 236 -160 349 -172 134 -15 291 29 367
103 73 70 116 199 102 304 l-7 48 -113 0 -112 0 -7 -41 c-8 -52 -50 -95 -100
-105 -52 -9 -162 19 -206 54 -20 16 -50 57 -70 97 -33 66 -35 74 -35 175 0
123 19 188 74 252 40 47 84 68 138 68 75 -1 162 -61 198 -136 9 -19 19 -34 23
-34 18 0 198 44 205 50 11 10 -34 118 -74 177 -122 177 -332 260 -526 208z
m220 -30 c135 -35 248 -127 312 -255 19 -38 35 -71 35 -74 0 -2 -34 -12 -76
-22 l-77 -18 -15 24 c-32 50 -111 119 -149 129 -182 51 -308 -71 -321 -310
-11 -224 90 -366 275 -385 108 -12 176 29 198 119 7 27 8 27 91 27 l84 0 1
-27 c4 -123 -22 -202 -87 -267 -51 -51 -122 -81 -225 -96 -109 -16 -198 3
-322 68 -179 93 -280 271 -294 519 -11 188 37 325 154 442 73 73 122 103 206
126 69 18 140 18 210 0z"/>
<path d="M10923 7328 c15 -108 94 -294 173 -404 113 -160 333 -294 481 -294
53 0 42 26 -14 34 -213 30 -404 178 -520 401 -38 75 -103 257 -103 290 0 8 -5
15 -11 15 -8 0 -10 -14 -6 -42z"/>
<path d="M11060 6331 c0 -24 182 -61 300 -61 60 0 245 32 258 44 16 17 -17 17
-94 1 -139 -29 -310 -21 -446 21 -10 3 -18 1 -18 -5z"/>
<path d="M12504 3668 c-78 -113 -221 -252 -391 -381 -78 -59 -145 -112 -148
-118 -50 -80 263 148 416 303 72 73 199 245 199 269 0 24 -23 2 -76 -73z"/>
<path d="M12697 3723 c-6 -11 -47 -208 -47 -227 0 -9 4 -16 9 -16 10 0 61 198
61 240 0 12 -17 13 -23 3z"/>
<path d="M6350 7644 c0 -47 127 -249 218 -346 85 -91 303 -237 355 -238 41 0
13 32 -57 65 -193 92 -384 285 -475 483 -24 52 -41 67 -41 36z"/>
<path d="M6125 7094 c-260 -58 -400 -77 -595 -77 -236 -1 -342 23 -356 80 -6
22 -34 33 -34 14 0 -55 55 -93 165 -115 113 -22 416 -15 580 13 265 46 436 88
443 109 6 19 -38 14 -203 -24z"/>
<path d="M6350 6817 c-218 -19 -499 -89 -630 -158 -84 -43 -130 -83 -114 -99
22 -22 149 -22 299 -1 248 35 330 40 564 36 243 -5 287 7 86 23 -173 14 -404
5 -605 -23 -178 -26 -285 -31 -294 -17 -8 13 93 69 174 97 277 95 593 140 814
116 105 -12 135 -9 106 9 -29 18 -272 29 -400 17z"/>
<path d="M6615 5845 c-5 -2 -44 -11 -85 -20 -111 -26 -258 -95 -245 -115 3 -6
37 6 75 25 102 51 237 88 353 95 4 0 7 5 7 10 0 9 -81 13 -105 5z"/>
<path d="M4931 5721 c-30 -71 -53 -178 -45 -215 9 -44 50 -84 94 -91 41 -7
105 7 135 29 33 24 10 29 -45 11 -139 -46 -195 42 -134 210 37 104 37 105 26
105 -5 0 -19 -22 -31 -49z"/>
<path d="M5773 5371 c-39 -27 -89 -73 -113 -103 -71 -89 -134 -238 -100 -238
6 0 10 6 10 14 0 7 18 50 40 93 44 88 137 191 209 231 50 29 51 25 11 -92 -52
-156 -82 -293 -84 -385 -1 -104 9 -161 30 -161 13 0 14 8 8 48 -21 128 -3 245
72 473 24 75 42 144 38 153 -11 28 -49 18 -121 -33z"/>
<path d="M9631 8569 c-48 -29 -64 -62 -58 -116 13 -114 150 -143 202 -43 54
104 -49 217 -144 159z m103 -38 c9 -10 19 -34 22 -53 5 -27 1 -40 -21 -66 -41
-49 -100 -41 -125 17 -24 59 14 121 73 121 20 0 41 -8 51 -19z"/>
<path d="M9652 7291 c-69 -44 -79 -130 -23 -190 24 -25 37 -31 71 -31 34 0 48
6 76 34 30 30 34 40 34 85 0 41 -5 56 -27 81 -37 40 -86 48 -131 21z m81 -22
c79 -36 48 -169 -38 -169 -8 0 -26 10 -40 23 -56 48 -28 131 52 156 1 1 13 -4
26 -10z"/>
<path d="M9672 6010 c-34 -21 -62 -71 -57 -99 2 -9 4 -24 4 -34 1 -11 16 -34
35 -53 43 -43 90 -46 135 -9 66 56 61 164 -11 201 -37 19 -67 18 -106 -6z
m103 -35 c25 -24 33 -73 19 -110 -9 -23 -62 -48 -90 -41 -28 7 -54 53 -54 95
0 20 9 37 31 55 38 32 63 33 94 1z"/>
<path d="M9613 4635 c-103 -44 -72 -225 39 -225 24 0 51 8 68 20 68 49 59 175
-16 208 -32 15 -51 15 -91 -3z m72 -25 c30 -11 55 -62 49 -100 -3 -14 -16 -35
-30 -47 -40 -36 -85 -29 -109 18 -32 61 -9 114 62 138 1 1 13 -3 28 -9z"/>
<path d="M13822 8142 c-40 -235 -197 -547 -408 -809 -41 -51 -74 -97 -74 -102
0 -5 10 -17 22 -25 70 -50 237 28 405 187 76 72 193 210 193 228 0 26 -34 -1
-117 -96 -51 -57 -126 -132 -165 -165 -117 -95 -271 -165 -292 -131 -3 4 15
35 41 67 124 159 266 401 332 567 49 123 102 347 83 347 -4 0 -13 -31 -20 -68z"/>
<path d="M14405 7443 c9 -92 -9 -224 -45 -334 -34 -102 -34 -102 -20 -94 14 8
47 88 65 154 30 108 32 341 4 341 -7 0 -9 -23 -4 -67z"/>
<path d="M14815 6380 c-3 -5 7 -16 22 -24 130 -68 151 -253 39 -342 -39 -31
-45 -44 -21 -44 24 0 87 62 106 105 36 79 19 187 -39 248 -33 35 -99 70 -107
57z"/>
<path d="M14005 6061 c3 -5 31 -17 63 -26 179 -52 333 -159 416 -288 74 -118
91 -287 43 -432 -30 -91 -31 -95 -16 -95 17 0 57 101 70 178 23 141 -18 294
-111 418 -45 59 -139 133 -225 177 -108 54 -258 97 -240 68z"/>
<path d="M10930 9929 c-32 -13 -40 -26 -40 -70 0 -45 33 -79 78 -79 65 0 86
88 31 134 -34 29 -34 29 -69 15z m66 -45 c24 -35 9 -78 -28 -82 -44 -5 -77 65
-46 96 20 20 56 14 74 -14z"/>
<path d="M11420 1917 c-169 -166 -269 -248 -436 -357 -108 -71 -364 -203 -416
-216 -16 -3 -28 -12 -28 -20 0 -18 -2 -18 77 11 290 110 703 402 910 644 60
70 73 91 56 91 -5 0 -78 -69 -163 -153z"/>
<path d="M7950 1999 c0 -26 78 -124 159 -202 167 -159 630 -441 896 -547 84
-33 85 -34 85 -21 0 5 -96 59 -212 119 -477 245 -759 441 -874 607 -36 53 -54
67 -54 44z"/>
<path d="M11720 1606 c-102 -40 -426 -201 -600 -298 -168 -94 -370 -219 -370
-230 0 -16 20 -8 107 45 224 136 617 342 830 436 93 41 192 66 206 52 9 -9
-254 -196 -439 -312 -136 -85 -162 -104 -151 -115 17 -17 662 417 654 440 -2
6 -35 12 -78 13 -64 2 -86 -2 -159 -31z"/>
<path d="M7415 1480 c-9 -15 171 -127 320 -200 236 -115 457 -186 712 -229
118 -20 383 -44 392 -35 10 10 -9 14 -90 20 -429 31 -844 164 -1226 392 -57
33 -105 57 -108 52z"/>
<path d="M12362 1376 c-144 -177 -362 -304 -709 -411 -68 -21 -123 -43 -123
-48 0 -15 63 0 209 49 239 81 419 178 547 297 57 53 144 156 144 170 0 19 -22
1 -68 -57z"/>
<path d="M7215 1125 c47 -39 173 -102 271 -134 49 -16 172 -46 274 -66 277
-54 317 -63 415 -96 135 -44 143 -54 63 -71 -62 -13 -506 -21 -616 -11 -119
11 -156 -4 -52 -22 82 -14 431 -17 560 -6 139 13 175 23 194 54 15 25 -5 38
-117 75 -93 31 -208 57 -487 111 -220 43 -379 99 -482 172 -39 28 -58 22 -23
-6z"/>
<path d="M9615 799 c-247 -209 -590 -412 -921 -545 -148 -59 -187 -81 -120
-69 118 21 477 185 671 306 191 120 463 329 464 357 1 23 -24 10 -94 -49z"/>
<path d="M10085 829 c-7 -11 11 -19 126 -62 156 -59 478 -132 496 -113 13 13
-14 24 -92 36 -110 17 -278 61 -413 108 -61 22 -114 36 -117 31z"/>
</g>
</svg>
