<?xml version="1.0" standalone="no"?>
<!DOCTYPE svg PUBLIC "-//W3C//DTD SVG 20010904//EN"
 "http://www.w3.org/TR/2001/REC-SVG-20010904/DTD/svg10.dtd">
<svg version="1.0" xmlns="http://www.w3.org/2000/svg"
 width="2000.000000pt" height="2000.000000pt" viewBox="0 0 2000.000000 2000.000000"
 preserveAspectRatio="xMidYMid meet">

<g transform="translate(0.000000,2000.000000) scale(0.100000,-0.100000)"
fill="#000000" stroke="none">
<path d="M9041 18283 c-30 -118 -36 -169 -35 -323 0 -122 4 -183 17 -233 24
-96 73 -209 122 -282 l42 -63 -56 -12 c-31 -7 -117 -35 -191 -62 -303 -111
-553 -170 -720 -172 -130 -1 -195 12 -289 57 -68 33 -157 108 -180 151 -16 29
-55 36 -64 11 -4 -8 10 -47 30 -87 62 -124 205 -253 342 -307 l43 -18 -33 -13
c-137 -55 -287 -195 -524 -490 -172 -215 -265 -313 -361 -382 -68 -49 -203
-114 -270 -129 -95 -21 -95 -53 0 -98 33 -16 86 -34 116 -40 59 -13 230 -16
277 -5 l28 6 -35 -28 c-121 -98 -205 -197 -269 -316 -57 -105 -85 -198 -125
-408 -19 -102 -44 -210 -55 -241 -33 -88 -90 -167 -176 -246 -65 -60 -76 -75
-66 -87 24 -29 104 -49 211 -52 112 -4 194 10 308 51 l64 23 -6 -21 c-119
-409 -139 -679 -72 -944 49 -193 162 -487 295 -766 34 -71 61 -134 61 -140 0
-7 -31 -109 -69 -228 -116 -359 -143 -493 -143 -704 0 -376 141 -736 445
-1140 267 -354 554 -607 868 -765 162 -82 337 -126 576 -146 49 -4 87 -12 94
-20 6 -7 20 -64 30 -126 22 -126 21 -128 -46 -128 -58 0 -258 -27 -415 -56
-571 -105 -1015 -306 -1211 -548 -55 -68 -114 -175 -133 -239 l-12 -42 -129
-46 c-153 -54 -223 -88 -325 -160 -103 -72 -286 -259 -400 -408 -346 -454
-479 -587 -650 -652 l-52 -20 6 108 c12 199 48 496 86 715 11 61 14 67 43 79
18 7 64 45 102 84 122 121 201 311 227 550 17 147 2 254 -49 355 l-39 76 18
57 c9 31 22 105 28 164 29 295 42 333 182 580 79 139 98 192 98 275 0 232
-251 257 -522 51 -31 -23 -72 -62 -92 -85 -20 -24 -36 -37 -36 -29 0 7 18 126
40 265 21 138 47 305 57 371 16 111 19 122 47 145 87 73 126 115 135 143 21
68 29 170 47 582 l6 139 40 46 c122 138 171 332 124 494 -28 96 -111 198 -214
262 -2 1 2 28 8 59 7 31 12 94 12 138 -1 241 -149 410 -413 474 l-77 18 0 80
c-1 176 -98 311 -266 370 -28 10 -52 19 -53 20 -2 1 2 17 8 36 17 57 12 147
-12 195 -30 63 -86 106 -226 176 -146 72 -194 105 -227 155 -32 48 -37 98 -20
187 32 167 9 255 -81 311 -46 29 -53 30 -159 30 -128 -1 -189 -17 -194 -52 -3
-17 6 -27 36 -42 81 -41 103 -110 62 -190 -25 -51 -85 -93 -261 -187 -79 -42
-175 -97 -214 -122 -94 -62 -212 -182 -253 -259 -109 -206 -93 -487 37 -677
l31 -44 -58 -59 c-68 -69 -113 -135 -144 -212 -18 -46 -23 -78 -24 -173 l-1
-118 -35 -38 c-106 -117 -183 -258 -212 -389 -22 -100 -21 -216 4 -295 26 -85
105 -197 181 -255 32 -25 59 -49 59 -53 0 -3 -14 -19 -31 -36 -61 -57 -86
-152 -55 -212 25 -49 98 -99 167 -115 24 -6 28 -16 54 -129 39 -172 130 -502
161 -587 29 -79 43 -91 144 -121 l55 -16 51 -141 51 -141 -71 -7 c-269 -26
-519 -144 -587 -277 -61 -119 -11 -305 126 -471 l54 -65 -13 -43 c-61 -203 11
-461 149 -534 36 -19 37 -21 31 -65 -16 -126 57 -300 186 -445 39 -44 46 -57
51 -108 15 -151 140 -288 319 -350 14 -5 13 -18 -17 -124 -89 -313 -222 -642
-490 -1213 -366 -779 -475 -1132 -488 -1585 -22 -687 225 -1241 635 -1429 271
-125 607 -83 1068 131 345 161 794 475 1107 776 l72 69 38 -31 c45 -36 112
-52 163 -37 40 10 268 234 453 444 59 67 107 118 107 113 0 -5 -9 -60 -19
-123 -38 -220 -111 -767 -136 -1013 -30 -291 -64 -465 -175 -890 -317 -1212
-389 -1577 -415 -2105 -16 -328 -47 -452 -171 -677 -33 -60 -31 -69 32 -115
35 -25 48 -29 94 -26 l54 3 -62 38 c-34 21 -64 42 -67 47 -3 5 12 39 34 75 21
36 52 99 66 140 15 41 29 75 30 75 2 0 47 -19 101 -41 147 -62 446 -169 644
-232 324 -103 341 -107 421 -107 l74 1 -185 55 c-161 47 -496 158 -928 307
l-123 42 6 30 c17 84 34 233 39 340 27 541 98 919 361 1920 158 598 190 753
225 1060 53 469 112 895 171 1235 37 215 156 811 244 1220 36 168 65 315 65
326 0 26 -29 40 -46 22 -7 -7 -46 -175 -88 -372 -42 -198 -78 -362 -80 -364
-12 -11 -54 228 -66 373 -14 181 -3 337 37 535 36 173 37 180 26 180 -6 0 -20
-33 -31 -72 -86 -295 -83 -726 6 -1022 17 -59 17 -60 -10 -190 -15 -72 -44
-221 -64 -331 -25 -133 -44 -208 -56 -224 l-18 -24 0 38 c0 65 -40 237 -76
327 -41 102 -161 332 -228 435 -232 359 -543 586 -941 688 -49 13 -89 26 -87
29 1 3 2 61 2 128 l0 121 112 -7 c190 -11 359 -56 520 -137 104 -52 173 -99
268 -183 71 -62 100 -78 100 -56 0 33 -219 204 -339 265 -178 89 -397 144
-583 145 l-78 0 0 69 0 70 58 8 c31 4 172 8 312 7 252 -1 283 5 135 25 -103
15 -226 13 -370 -4 -66 -8 -123 -15 -127 -15 -9 0 -10 75 -2 106 4 14 19 25
47 34 176 52 323 185 594 538 355 460 512 594 817 696 43 14 80 26 82 26 2 0
4 -33 4 -72 1 -188 82 -372 232 -527 135 -138 311 -244 501 -301 289 -88 370
-117 512 -190 268 -136 522 -315 748 -528 148 -139 304 -218 477 -242 255 -35
462 65 831 401 194 177 772 553 1152 749 494 256 1051 431 1382 434 78 1 99
-3 160 -28 98 -41 221 -117 358 -221 65 -50 140 -105 167 -124 27 -19 48 -36
47 -38 -2 -1 -28 -5 -58 -9 -458 -52 -800 -294 -1013 -717 -123 -243 -201
-539 -235 -882 -13 -140 -11 -526 4 -650 19 -152 19 -152 -26 -45 -137 322
-247 755 -301 1185 -15 112 -35 129 -30 25 17 -384 155 -917 344 -1325 33 -71
67 -159 74 -195 18 -81 26 -392 13 -525 -11 -127 -35 -293 -60 -416 -10 -54
-17 -103 -14 -111 14 -36 207 -136 317 -163 l64 -17 -9 -66 c-4 -37 -9 -67
-10 -68 -1 -1 -74 11 -162 27 -88 16 -250 44 -360 64 -110 19 -231 41 -269 48
l-70 13 3 144 c5 301 -48 539 -180 805 -87 176 -174 298 -314 443 -181 188
-345 308 -580 425 -263 131 -519 206 -825 243 -164 19 -497 19 -664 -1 -656
-78 -1225 -349 -1667 -795 l-125 -127 -90 28 c-49 16 -107 31 -130 35 -89 13
-178 -38 -210 -121 -35 -94 5 -245 93 -353 32 -40 35 -47 25 -71 -97 -233
-138 -363 -162 -521 -6 -41 -14 -86 -16 -100 -8 -48 -4 -328 6 -401 54 -387
213 -716 484 -996 334 -348 783 -570 1321 -655 120 -19 180 -22 415 -22 233 0
297 3 415 22 360 56 700 171 987 334 60 34 108 67 108 74 0 27 -22 24 -87 -14
-321 -187 -702 -314 -1093 -364 -133 -17 -543 -17 -665 0 -556 78 -1031 303
-1362 645 -247 255 -399 544 -469 892 -22 110 -30 370 -15 492 24 187 79 388
149 545 l31 67 58 -35 c32 -19 75 -40 95 -46 21 -6 38 -12 38 -14 0 -1 -8 -22
-19 -46 -11 -27 -33 -54 -59 -72 -63 -43 -147 -136 -177 -197 -21 -41 -29 -73
-33 -131 -4 -69 -2 -84 22 -133 20 -41 39 -62 70 -80 l43 -25 6 -108 c39 -728
621 -1343 1447 -1526 198 -43 280 -51 545 -50 210 0 271 4 380 22 265 46 491
115 707 219 107 51 134 72 110 87 -5 3 -67 -21 -138 -54 -234 -106 -471 -177
-724 -217 -161 -25 -529 -25 -690 0 -784 122 -1357 575 -1544 1221 -25 85 -47
204 -28 146 38 -110 134 -180 249 -180 37 0 39 -4 18 -53 -8 -20 -15 -65 -15
-100 0 -160 133 -294 299 -300 50 -1 52 -2 70 -42 36 -81 143 -151 308 -202
230 -70 579 -14 1309 213 l211 66 454 -225 c575 -285 948 -457 1470 -677 336
-142 496 -201 698 -259 l166 -48 0 -504 c0 -505 -4 -767 -13 -847 -11 -102
-188 -213 -492 -308 l-105 -33 73 0 c60 -1 90 5 170 35 130 49 237 103 301
154 l53 42 -6 -48 c-3 -27 -8 -79 -12 -116 l-6 -68 30 0 c28 0 30 3 35 48 4
26 9 90 13 142 3 52 8 111 10 130 2 19 7 333 11 697 3 365 7 663 7 663 1 0 42
-9 91 -20 111 -24 408 -67 535 -77 152 -13 633 -9 750 5 501 62 827 208 933
418 100 198 133 576 101 1159 -12 223 -56 657 -89 879 -22 147 -24 140 43 160
186 58 433 243 458 343 13 49 -94 565 -187 903 -149 545 -289 882 -638 1535
-56 105 -138 262 -183 350 -139 273 -234 411 -389 560 -127 123 -268 214 -390
254 l-37 12 5 82 c10 159 -44 297 -156 407 -46 44 -113 92 -211 150 -137 81
-155 94 -330 265 -284 277 -319 307 -405 352 -214 111 -478 150 -939 140 -149
-3 -284 -8 -301 -11 -16 -2 -59 -7 -95 -11 -36 -3 -79 -8 -96 -11 l-32 -6 -7
60 c-10 85 -3 98 58 117 69 23 192 89 236 127 l35 31 8 -23 c40 -109 166 -171
309 -151 40 5 75 15 79 21 4 6 6 44 4 84 -3 64 17 191 32 205 3 3 10 -3 17
-14 45 -82 171 -163 285 -185 76 -14 82 -9 82 66 0 141 85 310 230 454 41 42
156 143 255 225 99 82 245 203 325 269 362 301 630 557 781 747 166 210 391
630 539 1004 31 81 63 141 96 185 27 36 70 106 96 155 94 185 136 355 148 610
5 105 16 205 28 262 44 201 51 443 18 658 -80 525 -407 1016 -904 1359 -83 57
-99 72 -81 74 31 5 148 -12 378 -54 197 -37 210 -37 211 1 0 15 -111 118 -175
162 -230 156 -491 222 -873 223 -104 1 -195 0 -202 -2 -7 -2 -20 19 -31 50
-82 237 -305 516 -502 627 -194 109 -300 187 -413 299 -123 123 -191 216 -283
383 -34 62 -80 136 -102 165 -109 146 -296 238 -485 238 -107 0 -120 -13 -75
-73 94 -126 149 -261 158 -392 l6 -80 -73 69 c-257 242 -635 369 -1250 420
-36 3 -207 8 -380 12 -329 6 -441 17 -560 55 -184 60 -321 184 -348 316 -6 31
-13 39 -34 41 -24 3 -28 -1 -37 -35z m171 -263 c99 -79 244 -135 408 -159 41
-6 215 -13 385 -16 171 -3 324 -7 340 -10 17 -2 71 -6 120 -10 244 -16 537
-75 725 -146 200 -75 376 -192 478 -319 54 -67 64 -73 87 -56 14 10 19 32 22
112 6 127 -14 222 -69 334 -23 47 -44 89 -46 94 -3 5 15 -2 39 -15 24 -13 82
-62 129 -109 66 -66 93 -102 123 -164 36 -75 77 -206 77 -248 0 -10 5 -18 11
-18 19 0 3 140 -25 213 -58 155 -183 292 -331 364 l-50 25 56 -5 c136 -12 290
-97 372 -205 24 -31 69 -104 101 -162 96 -172 174 -278 291 -396 117 -118 212
-189 365 -275 129 -72 182 -112 271 -206 124 -130 228 -300 274 -447 l21 -69
249 -2 c207 -1 270 -5 365 -23 146 -26 281 -71 388 -128 81 -42 167 -102 159
-110 -2 -3 -67 7 -143 20 -157 27 -377 49 -444 44 -37 -2 -46 -7 -48 -24 -3
-18 11 -29 72 -63 42 -23 76 -43 76 -46 0 -2 -25 5 -55 15 -151 52 -413 91
-543 82 -68 -5 -47 -27 29 -29 233 -9 472 -66 693 -167 121 -55 338 -256 487
-451 311 -406 439 -893 363 -1380 -15 -94 -34 -148 -34 -96 0 46 -52 258 -95
388 -40 121 -115 299 -138 331 -19 25 -17 4 5 -44 70 -158 159 -474 199 -704
35 -209 16 -443 -56 -657 -29 -85 -103 -234 -141 -279 l-23 -29 9 35 c9 32 51
260 65 355 9 62 13 433 5 495 -5 43 -7 24 -9 -80 -6 -412 -79 -788 -214 -1110
-104 -249 -307 -633 -417 -789 -41 -58 -69 -87 -38 -38 138 212 290 623 337
907 35 219 46 490 17 459 -2 -2 -7 -60 -11 -129 -4 -69 -8 -127 -10 -130 -1
-3 -6 -32 -9 -65 -11 -94 -55 -298 -92 -426 -97 -334 -291 -711 -454 -882
-148 -155 -363 -346 -745 -660 -317 -261 -429 -362 -501 -452 -97 -121 -161
-264 -167 -377 -1 -20 -5 -34 -9 -32 -4 3 -19 42 -34 87 -20 65 -26 102 -26
177 0 108 11 163 53 269 59 148 224 361 279 361 23 0 124 27 177 47 8 3 -30
-39 -85 -93 -122 -123 -251 -303 -239 -337 2 -6 21 15 43 47 80 118 198 259
265 317 88 75 131 102 233 146 234 100 407 216 524 353 143 166 263 399 308
595 24 105 24 301 0 400 -29 120 -96 245 -179 330 -40 42 -66 73 -57 70 31
-12 112 -27 117 -21 11 11 -7 36 -27 36 -11 0 -48 11 -81 25 -307 124 -690
720 -845 1313 -34 131 -54 175 -54 120 0 -32 55 -246 91 -352 123 -369 331
-727 551 -950 59 -59 100 -105 90 -101 -74 30 -228 8 -345 -48 l-67 -33 -78
80 c-240 247 -342 555 -342 1028 0 162 -7 207 -24 161 -9 -22 -9 -323 0 -422
3 -45 4 -81 0 -81 -11 0 -97 123 -126 181 -57 113 -103 286 -115 434 -4 44 -8
96 -10 115 -2 19 -5 89 -6 156 -1 120 -1 123 28 166 122 179 184 373 182 566
l-2 97 -7 -80 c-24 -266 -135 -501 -340 -717 l-80 -83 56 84 c108 164 183 349
224 550 25 124 37 321 22 371 -9 32 -10 29 -12 -40 -5 -218 -38 -398 -105
-570 -31 -82 -101 -230 -109 -230 -2 0 6 30 17 68 27 93 30 337 4 431 -24 87
-59 171 -98 237 -55 90 -119 158 -119 126 0 -5 18 -33 41 -63 51 -68 123 -215
145 -299 13 -48 18 -104 18 -210 1 -124 -3 -157 -23 -230 l-25 -85 -13 81
c-15 99 -41 171 -91 252 -89 147 -310 381 -449 476 l-71 48 -18 71 c-9 38 -22
106 -29 151 l-13 81 -1 -76 c-3 -198 82 -474 204 -664 48 -76 21 -59 -91 57
-254 262 -385 580 -387 933 0 172 17 262 78 408 4 10 3 17 -4 17 -15 0 -55
-82 -83 -170 -20 -66 -23 -95 -23 -245 0 -192 15 -283 72 -449 83 -238 228
-451 416 -608 32 -26 54 -48 50 -48 -18 1 -204 106 -293 165 -249 168 -427
373 -509 585 -69 179 -83 386 -38 560 79 304 193 488 380 614 167 112 349 181
516 196 l86 7 -70 3 c-104 3 -132 1 -222 -20 -152 -36 -390 -166 -479 -262
-128 -138 -235 -374 -279 -613 -23 -124 -61 -191 -165 -296 -92 -93 -175 -151
-403 -283 -169 -98 -238 -148 -319 -234 -32 -33 -58 -58 -58 -56 0 10 73 149
111 211 101 165 242 326 412 470 80 68 101 93 79 93 -38 0 -267 -206 -372
-335 -124 -153 -227 -333 -288 -505 -17 -47 -40 -104 -52 -128 -26 -53 -60
-182 -61 -231 -1 -81 -15 -78 -42 10 -44 144 -59 229 -62 364 -4 148 5 233 39
367 89 353 293 635 741 1028 102 89 185 164 185 166 0 8 -229 -172 -320 -251
-134 -116 -318 -309 -395 -412 -122 -166 -220 -384 -266 -594 -30 -134 -32
-376 -6 -512 18 -89 70 -249 90 -277 6 -8 -13 8 -41 35 -136 129 -261 378
-314 625 -39 183 -23 456 37 639 22 66 10 61 -15 -6 -121 -322 -96 -683 70
-1013 38 -75 116 -193 162 -246 l32 -36 -30 18 c-65 41 -163 110 -225 160
-102 81 -154 147 -257 328 -269 470 -190 1067 197 1470 63 67 64 68 15 28
-107 -87 -202 -209 -274 -352 -91 -183 -131 -353 -131 -553 0 -274 75 -501
253 -765 59 -88 128 -157 236 -237 44 -33 79 -61 78 -63 -6 -6 -159 79 -245
135 -280 186 -470 422 -555 692 -80 253 -71 569 25 856 139 415 523 813 873
905 85 23 58 26 -33 5 -85 -20 -214 -82 -320 -152 -125 -84 -319 -281 -401
-409 l-65 -101 -75 -22 c-137 -41 -341 -151 -460 -251 -38 -31 -55 -38 -108
-44 -212 -23 -403 -155 -560 -388 -53 -79 -95 -159 -226 -428 -121 -250 -201
-367 -360 -525 -72 -72 -160 -150 -196 -175 l-65 -44 71 76 c147 156 224 300
324 608 26 80 62 176 80 213 36 76 119 172 186 214 47 30 58 49 22 37 -78 -23
-174 -114 -226 -211 -18 -35 -62 -149 -98 -255 -76 -227 -150 -383 -231 -494
-76 -101 -100 -122 -71 -63 37 78 57 148 83 297 42 243 86 372 166 489 76 110
202 222 347 307 58 34 82 54 82 67 0 31 -20 32 -126 4 -161 -42 -396 -44 -455
-4 -11 8 -9 9 6 5 162 -43 380 21 576 169 46 35 154 129 239 210 239 226 393
333 553 385 37 12 67 24 67 27 0 13 -103 -8 -167 -33 -106 -41 -245 -140 -396
-281 -244 -227 -300 -275 -391 -334 -125 -82 -235 -120 -356 -125 -103 -5
-101 0 15 36 133 41 249 124 417 299 124 128 149 161 124 161 -7 0 -52 -44
-99 -97 -91 -103 -169 -176 -252 -235 -59 -42 -119 -74 -70 -37 70 52 230 226
362 394 310 395 442 485 728 500 177 9 244 23 467 99 206 69 307 96 365 96 20
0 33 3 30 6 -11 11 -100 5 -178 -11 -41 -9 -150 -38 -244 -64 -222 -64 -297
-75 -448 -68 -176 8 -300 51 -410 143 -35 29 -32 30 25 4 102 -45 253 -60 399
-40 129 18 406 92 590 158 168 61 241 80 314 85 57 3 56 24 -5 99 -96 118
-160 282 -174 443 l-6 70 19 -52 c110 -297 347 -472 706 -522 170 -24 372 -7
635 54 82 19 182 39 222 44 165 21 325 -5 419 -69 58 -39 82 -39 43 1 -43 45
-139 88 -235 105 -127 23 -233 12 -544 -56 -311 -69 -569 -59 -792 30 -253
101 -430 328 -457 585 l-7 60 33 -63 c36 -72 125 -173 197 -226 121 -89 295
-154 503 -189 114 -18 153 -19 135 -1 -3 3 -68 18 -144 34 -157 32 -302 81
-399 135 -119 66 -262 223 -289 315 -5 19 0 14 24 -17 17 -23 54 -61 83 -83z
m-362 -1604 c0 -2 -15 -36 -34 -77 -19 -41 -49 -123 -67 -182 l-33 -108 -74
-34 c-155 -72 -297 -171 -414 -291 -70 -70 -93 -104 -70 -104 4 0 30 23 57 51
114 116 254 221 409 304 l89 48 -6 -31 c-4 -17 -9 -61 -13 -96 -4 -36 -8 -76
-9 -88 -1 -13 -3 -37 -4 -53 -1 -26 -7 -33 -35 -43 -48 -17 -200 -115 -266
-170 -328 -276 -588 -747 -738 -1337 -89 -349 -112 -559 -112 -1012 0 -320 -4
-403 -20 -403 -11 0 -57 195 -76 326 -22 150 -22 478 0 643 44 319 140 665
286 1031 89 222 92 230 76 230 -26 0 -171 -344 -255 -603 -177 -546 -214
-1069 -106 -1488 24 -90 10 -83 -19 9 -98 311 -139 654 -114 952 20 239 21
250 11 250 -17 0 -23 -26 -39 -150 -17 -139 -16 -434 2 -575 11 -86 46 -273
60 -324 12 -42 -42 88 -83 199 -81 224 -104 327 -110 487 -8 213 22 409 102
658 33 102 40 114 91 165 127 125 220 310 238 475 8 74 -1 60 -43 -64 -83
-246 -198 -395 -354 -460 -98 -40 -209 -69 -295 -76 l-67 -5 60 18 c147 45
256 114 376 239 74 79 135 163 155 216 14 38 -14 13 -66 -60 -115 -159 -259
-284 -397 -341 -65 -28 -158 -52 -198 -52 -28 0 -27 2 23 29 209 116 404 295
542 497 42 62 122 209 200 366 144 294 216 411 316 514 115 117 232 186 367
217 l67 15 -58 -66 c-91 -105 -119 -144 -167 -235 -43 -81 -85 -186 -85 -214
0 -28 29 -11 40 25 79 244 288 493 541 643 105 63 319 153 319 135z m2100
-762 c0 -58 42 -217 78 -297 140 -308 477 -596 894 -761 121 -48 126 -34 29
96 -68 93 -127 190 -170 283 -35 74 -72 177 -67 182 9 9 128 -89 216 -179 320
-323 405 -559 289 -796 -23 -47 -28 -67 -20 -75 12 -12 18 -8 112 73 35 30 50
38 45 25 -4 -11 -10 -83 -13 -160 -8 -220 10 -298 139 -585 127 -280 162 -402
161 -555 -1 -147 -38 -253 -137 -398 -225 -329 -335 -600 -327 -804 1 -31 20
-29 97 9 85 42 231 152 355 267 l99 92 -20 -46 c-24 -56 -25 -71 -4 -79 11 -4
20 5 31 32 57 139 110 222 232 366 174 206 406 332 573 313 202 -24 384 -242
427 -512 54 -341 -161 -799 -490 -1045 -129 -96 -320 -184 -584 -270 -176 -57
-312 -44 -408 41 -25 21 -55 59 -66 82 l-21 44 55 91 c55 91 70 126 37 86 -9
-12 -110 -129 -223 -260 -430 -498 -740 -756 -1154 -960 -444 -218 -892 -306
-1470 -290 -132 3 -262 9 -290 12 -27 3 -113 12 -190 20 -272 29 -377 54 -538
128 -491 228 -1046 868 -1227 1415 -51 153 -72 285 -72 446 0 209 26 327 166
762 103 320 105 332 110 788 2 215 9 428 15 475 80 618 298 1198 585 1556 132
164 389 376 459 378 18 1 22 -5 24 -44 19 -284 162 -574 386 -786 120 -113
251 -203 418 -288 136 -68 339 -146 382 -146 17 0 18 6 10 68 -15 128 0 237
51 364 42 102 88 170 186 268 79 79 118 108 230 174 256 150 361 221 448 302
48 45 98 100 112 122 28 45 40 39 40 -24z m-6101 -870 c40 -23 71 -80 71 -131
0 -21 -7 -74 -16 -118 -30 -155 2 -241 121 -322 17 -12 86 -49 154 -83 138
-70 194 -114 212 -167 13 -40 7 -124 -11 -164 l-12 -26 -176 4 c-196 5 -274
19 -367 63 -158 75 -271 242 -280 413 -4 67 -11 82 -21 41 -12 -46 13 -181 46
-251 39 -86 132 -181 218 -226 106 -55 165 -67 382 -77 219 -9 306 -29 394
-89 101 -70 141 -162 134 -308 -5 -82 -10 -103 -41 -166 -60 -120 -161 -210
-345 -306 -166 -88 -140 -116 29 -32 199 100 330 227 371 361 l13 42 47 -5
c26 -3 79 -17 119 -31 245 -85 342 -278 280 -553 -22 -95 -55 -147 -154 -240
-115 -108 -247 -184 -454 -263 -68 -25 -113 -48 -113 -56 0 -19 10 -18 109 15
118 40 262 109 350 169 86 58 197 164 244 234 17 26 36 48 41 48 21 0 107 -75
140 -123 47 -68 66 -132 66 -222 0 -180 -113 -347 -293 -434 -101 -49 -206
-77 -393 -101 -226 -31 -253 -54 -238 -209 4 -47 8 -119 9 -159 0 -65 -3 -76
-22 -92 -29 -23 -58 -16 -88 24 -25 32 -55 129 -55 176 0 86 -46 150 -108 150
-48 0 -64 -17 -89 -89 -34 -103 -101 -119 -151 -36 -15 24 -32 46 -37 48 -6 3
-64 -6 -130 -19 -101 -20 -334 -57 -490 -79 -22 -3 -121 -8 -220 -11 -201 -7
-280 5 -342 52 -71 54 -69 108 9 190 l50 53 116 -6 c81 -3 148 0 217 10 128
20 275 65 275 85 0 9 -6 12 -17 7 -45 -18 -204 -54 -263 -59 -212 -20 -274
-13 -363 44 -153 96 -237 239 -237 401 0 82 38 217 86 310 30 57 146 209 159
209 3 0 16 -25 31 -56 47 -100 143 -172 249 -189 37 -6 36 -5 -19 19 -33 14
-75 38 -95 54 -91 74 -146 208 -146 358 0 84 3 95 37 165 39 80 94 148 157
198 l39 31 59 -31 c41 -21 80 -32 124 -36 77 -7 70 8 -13 26 -71 15 -165 75
-199 127 -168 254 -155 549 33 750 71 76 171 144 357 243 215 115 264 153 299
234 27 63 10 171 -33 207 -26 22 2 31 81 27 45 -2 82 -11 103 -23z m7634 -659
c5 -220 20 -326 67 -467 32 -96 108 -222 171 -286 44 -45 58 -66 62 -98 35
-222 201 -533 341 -636 25 -18 45 -36 46 -39 0 -4 -26 -26 -57 -50 -79 -59
-180 -163 -255 -262 -73 -96 -271 -297 -379 -384 -74 -60 -227 -163 -242 -163
-11 0 39 94 85 163 72 106 156 194 292 306 73 61 159 139 191 173 70 78 133
202 142 278 6 62 -7 60 -27 -5 -48 -153 -116 -244 -285 -385 -193 -160 -302
-277 -365 -391 -35 -64 -37 -60 -8 18 42 114 105 213 215 340 30 34 50 64 45
67 -14 9 -98 -69 -153 -142 -27 -36 -49 -61 -49 -57 0 19 108 209 188 330 140
214 175 307 174 474 -1 159 -41 297 -168 572 -119 258 -146 367 -138 559 5
158 22 226 64 278 19 23 36 36 37 29 1 -7 4 -106 6 -222z m-6272 -2486 c-2
-63 -5 -127 -6 -144 -2 -16 -3 -41 -4 -55 -1 -23 -111 -181 -129 -187 -7 -2
-159 204 -175 237 -6 11 6 39 40 94 48 77 48 77 130 110 45 18 92 40 105 49
13 9 27 15 33 13 6 -1 8 -47 6 -117z m-273 -11 c-13 -18 -35 -48 -48 -67 l-24
-34 -42 49 -43 49 87 16 c48 9 89 17 91 18 2 0 -8 -14 -21 -31z m-128 -62 l41
-54 -132 -202 -133 -201 -34 34 c-33 34 -34 35 -18 65 19 36 20 112 6 231 -18
137 -6 154 112 171 111 16 113 15 158 -44z m-562 -100 c12 -39 12 -39 -43
-111 -30 -40 -90 -124 -133 -187 l-78 -116 -146 152 c-141 147 -145 153 -129
173 10 13 38 24 81 32 36 7 74 15 85 17 15 4 25 -3 38 -25 9 -16 32 -39 51
-50 48 -30 95 -27 143 8 37 27 56 60 79 139 8 26 39 7 52 -32z m788 -287 c-9
-16 -48 -85 -85 -154 -56 -103 -76 -130 -105 -146 -51 -27 -61 -24 -91 26 -14
25 -53 74 -86 109 -32 35 -59 68 -59 74 0 6 48 80 106 164 59 84 118 170 131
192 l25 39 90 -138 91 -138 -17 -28z m-1336 207 c0 -3 -4 -8 -10 -11 -5 -3
-10 -1 -10 4 0 6 5 11 10 11 6 0 10 -2 10 -4z m587 -103 c22 -64 54 -106 98
-127 36 -18 42 -18 82 -4 l43 16 30 -36 c17 -20 30 -40 30 -44 0 -10 -262
-408 -269 -408 -3 0 -16 15 -27 33 -21 32 -151 195 -219 274 l-37 42 119 179
c115 175 118 178 126 148 5 -17 15 -50 24 -73z m-621 86 c3 -6 -3 -23 -14 -37
-41 -52 -159 -228 -188 -279 l-29 -53 -137 137 c-125 125 -135 138 -126 159 8
17 22 25 52 28 23 3 101 13 175 22 74 8 152 19 175 24 60 12 84 11 92 -1z
m1525 -113 c-15 -155 -16 -156 -58 -101 -19 25 -33 51 -31 58 5 19 93 165 97
161 2 -1 -2 -55 -8 -118z m-1346 -79 l135 -151 -17 -26 c-31 -45 -203 -325
-207 -335 -2 -5 -21 10 -42 35 -22 25 -87 97 -147 160 -64 68 -106 121 -104
131 8 30 228 350 237 344 6 -3 71 -74 145 -158z m-731 124 c16 -17 16 -21 -5
-55 -11 -20 -40 -84 -64 -142 -24 -58 -45 -108 -48 -110 -2 -3 -21 64 -42 148
-20 84 -38 159 -41 166 -2 9 20 12 90 12 78 0 96 -3 110 -19z m34 8 c-2 -6 -8
-10 -13 -10 -5 0 -11 4 -13 10 -2 6 4 11 13 11 9 0 15 -5 13 -11z m145 -197
l124 -134 -100 -200 c-103 -207 -130 -284 -37 -106 51 97 147 268 156 277 2 2
30 -25 61 -60 32 -35 97 -105 145 -155 48 -49 88 -95 88 -102 0 -13 -40 -84
-55 -95 -16 -13 -361 1 -440 17 -121 25 -119 23 -154 128 -17 51 -41 134 -54
183 -27 101 -29 87 40 230 55 111 83 157 94 153 4 -2 64 -63 132 -136z m1826
26 l40 -43 -27 -29 c-28 -30 -197 -146 -213 -146 -6 0 -4 10 2 23 19 34 151
237 155 237 2 0 21 -19 43 -42z m-436 -187 l85 -109 -57 -25 c-121 -55 -401
-160 -401 -151 0 2 22 35 48 72 27 37 88 124 137 195 49 70 92 127 96 127 4 0
45 -49 92 -109z m-523 -135 c144 -162 138 -153 104 -167 -51 -19 -246 -68
-339 -84 l-90 -15 -28 32 c-53 63 -56 52 70 243 l117 177 31 -34 c16 -19 77
-87 135 -152z m7240 -23 c-51 -58 -95 -149 -116 -239 -20 -85 -15 -221 10
-278 25 -60 36 -33 21 52 -19 110 0 252 47 347 19 38 93 145 101 145 4 0 24
-11 45 -24 47 -31 115 -51 180 -55 8 -1 -15 -32 -50 -70 -207 -224 -282 -536
-184 -765 9 -22 15 -41 12 -43 -2 -2 -29 8 -60 23 -71 33 -137 105 -157 170
-13 41 -19 49 -39 49 -49 0 -110 -162 -110 -292 l0 -58 -20 30 c-51 80 -59
217 -20 353 11 41 53 153 92 250 51 126 73 194 76 235 3 34 0 57 -6 57 -5 0
-13 -26 -17 -57 -4 -33 -26 -103 -52 -163 -117 -270 -148 -382 -141 -515 3
-63 11 -95 31 -136 14 -29 24 -55 22 -57 -1 -2 -26 7 -54 19 -57 24 -101 69
-101 102 0 12 -5 29 -10 37 -18 27 -11 -60 6 -90 9 -15 35 -39 57 -54 34 -22
37 -26 19 -26 -36 0 -98 37 -126 73 -41 54 -43 86 -7 140 66 97 102 210 100
315 l-1 57 -9 -44 c-43 -221 -181 -394 -390 -490 -105 -48 -109 -48 -109 -8 0
80 6 89 88 127 125 57 249 165 296 258 24 47 9 54 -22 12 -80 -108 -231 -234
-325 -269 -28 -11 -28 -10 -23 16 2 16 10 59 17 97 l13 68 101 76 c268 202
554 483 733 720 l55 73 34 -61 34 -61 -41 -46z m-6419 -19 l-18 -112 -98 -138
c-54 -77 -101 -142 -104 -146 -4 -5 -36 31 -71 80 -36 48 -89 115 -118 150
l-53 62 28 11 c78 29 269 114 353 158 52 27 96 48 96 48 1 -1 -6 -52 -15 -113z
m-423 -166 c97 -131 174 -258 168 -274 -13 -33 -251 -363 -260 -361 -6 2 -56
60 -112 128 l-102 126 95 169 c52 93 107 190 121 216 15 26 32 48 39 48 7 0
30 -24 51 -52z m-94 15 c-10 -16 -65 -104 -122 -198 -58 -93 -106 -171 -107
-173 -1 -1 -53 57 -114 129 -62 72 -111 132 -109 133 1 2 50 15 108 29 58 15
157 44 220 66 142 49 148 49 124 14z m458 -230 c-20 -128 -39 -233 -42 -233
-3 0 -20 28 -38 63 -17 34 -41 78 -53 97 l-22 36 92 138 c51 75 94 136 96 134
1 -2 -14 -108 -33 -235z m-1133 193 c32 -33 32 -33 9 -40 -30 -8 -98 -8 -98 0
0 12 41 74 49 74 4 0 22 -15 40 -34z m171 -80 c0 -2 -49 -84 -110 -182 -60
-98 -112 -183 -114 -189 -2 -5 -5 -8 -8 -5 -61 67 -288 330 -288 333 0 2 78 7
173 11 174 6 234 11 297 26 45 10 50 11 50 6z m141 -123 c56 -71 107 -134 112
-141 7 -8 -10 -44 -55 -120 -36 -59 -89 -151 -118 -204 -30 -54 -56 -98 -59
-98 -3 0 -19 19 -36 43 -16 23 -65 86 -108 140 -43 53 -77 101 -75 105 24 60
216 402 225 402 7 0 58 -57 114 -127z m-705 87 c18 0 54 -39 164 -175 77 -97
143 -181 146 -188 2 -7 -4 -33 -15 -57 -17 -37 -21 -41 -26 -25 -21 63 -31 83
-53 107 -27 29 -88 53 -163 63 l-46 7 -46 131 c-26 73 -47 136 -47 141 0 5 14
6 31 2 17 -3 42 -6 55 -6z m2078 -120 c60 -22 83 -120 51 -211 -9 -23 -45 -94
-81 -158 -125 -216 -160 -316 -175 -500 -9 -114 -32 -258 -43 -268 -2 -2 -25
10 -51 26 -52 33 -117 57 -180 66 -32 5 -24 0 38 -26 147 -58 242 -174 268
-325 29 -169 -41 -475 -147 -640 -72 -113 -185 -212 -293 -256 l-46 -19 58 4
c31 2 57 1 57 -3 0 -4 -9 -65 -20 -136 -53 -355 -69 -601 -71 -1089 0 -371
-12 -875 -24 -1045 -53 -762 -234 -1443 -465 -1756 l-50 -69 45 50 c114 124
237 381 320 668 95 325 169 758 190 1107 8 130 15 180 25 180 43 0 334 -279
469 -449 161 -204 307 -441 361 -588 l28 -79 -126 -137 c-487 -523 -1045 -919
-1574 -1116 -224 -83 -288 -96 -473 -96 -141 0 -168 3 -230 23 -117 39 -202
90 -292 175 -231 219 -362 561 -393 1027 -22 320 30 648 161 1011 75 210 156
398 361 839 258 554 378 860 473 1203 l16 57 87 0 c111 0 218 27 335 85 100
49 83 54 142 -50 16 -27 46 -76 67 -108 37 -55 42 -58 76 -55 46 4 68 35 112
156 91 252 259 1046 386 1827 44 270 64 336 139 441 117 163 350 280 469 234z
m-656 -137 l61 -91 -33 -201 c-18 -110 -38 -206 -44 -214 -6 -7 -9 -22 -6 -34
3 -11 0 -47 -6 -79 -6 -32 -13 -71 -15 -87 -15 -100 -89 -493 -95 -500 -3 -4
-52 47 -108 114 l-102 121 38 46 c22 26 78 100 126 165 47 64 90 117 94 117 4
0 13 -9 20 -21 20 -32 26 -14 7 19 -18 29 -17 30 10 66 15 20 25 39 22 42 -3
3 -17 -11 -32 -30 l-27 -36 -80 113 c-44 61 -95 130 -112 152 -18 22 -36 45
-40 52 -8 14 244 397 254 386 4 -5 34 -49 68 -100z m-468 -147 l98 -129 -126
-186 c-69 -102 -127 -188 -129 -190 -8 -11 -41 34 -52 70 -15 51 -72 115 -117
131 -19 6 -34 15 -34 19 0 4 35 63 78 131 44 68 99 160 123 205 24 46 48 82
52 80 5 -1 53 -60 107 -131z m-865 59 c32 -9 65 -21 73 -27 42 -36 58 -139 28
-195 -18 -37 -77 -90 -120 -108 -17 -8 -74 -25 -126 -39 -176 -48 -333 -146
-410 -255 -19 -28 -38 -50 -41 -51 -4 0 -25 24 -47 53 -117 156 -155 293 -106
388 46 91 253 198 444 229 41 6 82 13 90 15 45 9 163 3 215 -10z m422 -245
c80 -83 84 -105 18 -89 -22 5 -107 9 -189 10 l-148 0 20 22 c27 30 48 75 56
120 4 21 21 58 39 83 l32 46 50 -59 c27 -32 82 -92 122 -133z m6503 114 c-33
-165 -37 -562 -5 -664 62 -202 253 -399 513 -529 45 -23 82 -45 82 -49 0 -34
-109 -258 -182 -376 -243 -391 -763 -751 -1299 -896 -210 -57 -324 -73 -534
-73 -222 -1 -319 13 -496 73 -194 64 -361 159 -487 277 -63 57 -64 59 -82 144
-28 131 -41 232 -45 359 -4 134 6 226 37 328 l21 74 120 59 c65 32 121 59 123
59 7 0 -25 -49 -89 -135 l-60 -80 62 60 c73 70 162 198 195 282 41 100 58 205
57 358 0 120 -16 270 -37 337 -4 15 1 16 43 10 86 -12 701 -8 818 6 427 50
824 180 1165 381 46 27 86 48 88 47 1 -2 -2 -25 -8 -52z m-5899 -141 c18 -27
68 -91 109 -143 42 -52 79 -101 84 -108 5 -8 -30 -58 -101 -145 -60 -72 -118
-144 -129 -159 -10 -15 -22 -28 -25 -28 -3 0 -29 30 -58 66 -29 36 -82 96
-117 134 l-64 68 127 181 c71 99 131 181 134 181 3 0 21 -21 40 -47z m-579
-129 c91 -21 134 -58 153 -131 24 -93 5 -165 -60 -221 -50 -45 -100 -68 -250
-118 -225 -73 -493 -197 -601 -277 -33 -24 -74 -65 -91 -90 l-30 -46 -30 19
c-96 58 -157 234 -133 388 38 246 263 424 602 477 123 19 354 18 440 -1z m241
-179 c4 -8 2 -17 -3 -20 -6 -4 -10 3 -10 14 0 25 6 27 13 6z m99 -120 c36 -44
78 -91 93 -105 15 -14 36 -37 47 -52 l19 -28 -24 -32 c-42 -57 -41 -64 2 -23
l42 40 70 -75 c38 -41 90 -98 114 -126 l45 -51 -20 -99 -21 -99 -112 -107
c-101 -96 -113 -105 -125 -90 -7 9 -42 62 -77 117 -61 95 -86 123 -47 53 10
-18 39 -71 65 -118 l46 -85 -79 -84 c-75 -80 -78 -82 -65 -45 8 21 14 71 15
109 0 58 -5 81 -30 134 l-30 63 49 61 c78 94 114 176 119 270 10 166 -61 250
-222 263 l-74 7 34 44 c19 25 37 57 41 71 8 34 45 85 53 75 4 -5 36 -44 72
-88z m7068 64 c228 -21 405 -64 535 -132 70 -37 107 -69 310 -267 234 -229
283 -268 484 -386 111 -65 189 -141 229 -225 39 -82 57 -185 45 -259 -8 -50
-11 -55 -32 -52 -192 28 -235 30 -451 27 -253 -3 -345 -14 -580 -66 -173 -39
-474 -139 -660 -219 -367 -157 -821 -417 -1150 -658 -41 -30 -68 -47 -59 -36
8 10 49 57 90 104 439 502 836 1105 950 1442 72 212 23 385 -133 468 -56 31
-73 35 -159 38 -63 3 -122 -1 -173 -12 -43 -9 -81 -14 -86 -11 -9 6 -43 95
-38 100 6 6 128 23 228 31 107 9 376 9 455 0 182 -21 230 -28 287 -46 183 -57
264 -162 240 -308 -25 -150 -209 -427 -446 -669 -60 -62 -104 -113 -97 -113
22 0 282 269 351 362 150 201 219 336 227 443 13 153 -67 251 -252 310 -139
44 -243 54 -540 50 -195 -2 -296 -7 -364 -19 -52 -9 -95 -15 -97 -13 -2 1 -6
21 -10 44 l-6 40 115 13 c265 28 596 36 787 19z m-3049 -204 c1 -8 2 -21 3
-27 1 -9 -36 -21 -104 -35 -327 -70 -602 -199 -714 -336 -65 -79 -90 -149 -92
-257 -5 -183 55 -416 161 -625 68 -136 210 -364 232 -372 41 -16 28 19 -61
162 -135 215 -203 363 -249 540 -68 261 -58 395 38 517 77 98 240 198 437 266
114 40 347 102 351 94 5 -9 -10 -159 -17 -170 -3 -6 -18 -13 -33 -17 -90 -22
-221 -131 -287 -238 -158 -256 -166 -612 -25 -1096 62 -211 176 -471 274 -623
25 -38 45 -71 45 -74 0 -2 -35 24 -77 59 -284 232 -598 401 -883 477 -335 88
-593 275 -711 515 -57 116 -72 189 -67 310 8 161 66 283 194 410 245 243 712
420 1359 515 158 23 225 25 226 5z m-4058 -53 c52 -30 72 -76 72 -162 0 -89
-25 -149 -105 -247 l-50 -62 -58 0 c-83 1 -169 -36 -377 -159 -60 -35 -164
-91 -230 -123 -92 -45 -131 -71 -167 -109 l-46 -49 -37 45 c-131 159 -178 322
-127 437 36 81 108 139 277 222 246 121 474 202 631 224 86 12 181 5 217 -17z
m6661 -36 c66 -32 105 -77 131 -148 20 -58 24 -165 6 -211 l-11 -27 -68 34
c-124 62 -246 152 -336 246 -47 50 -86 95 -86 100 0 5 17 14 38 19 20 5 46 12
57 15 11 3 64 4 117 2 81 -2 105 -7 152 -30z m-2629 -228 c-4 -13 -18 -48 -31
-78 l-25 -55 -125 -63 -126 -62 24 42 c36 67 145 170 217 206 35 18 66 32 68
32 3 0 1 -10 -2 -22z m-3676 -439 c-22 -107 -43 -196 -44 -198 -2 -1 -18 25
-36 60 -17 35 -43 81 -56 102 l-25 39 28 32 c77 85 169 175 172 167 2 -5 -16
-96 -39 -202z m-447 161 c14 -10 35 -43 48 -72 18 -42 21 -65 18 -118 -7 -86
-43 -156 -127 -244 -66 -68 -227 -195 -309 -243 -24 -14 -41 -28 -38 -31 9 -9
175 76 252 129 41 29 76 50 78 48 9 -10 77 -151 74 -154 -2 -2 -34 -19 -73
-38 -250 -125 -478 -111 -634 38 -114 109 -139 247 -59 332 12 13 76 51 141
84 64 32 179 96 255 141 157 94 273 148 318 148 17 0 43 -9 56 -20z m351 -325
l46 -70 -25 -104 c-50 -212 -127 -441 -148 -441 -9 0 -134 216 -196 341 l-61
121 37 41 c20 23 87 90 148 148 l111 107 21 -37 c12 -20 42 -67 67 -106z
m8302 -245 c33 -6 97 -15 143 -19 153 -15 316 -114 493 -299 88 -91 181 -218
254 -345 26 -46 23 -44 -62 41 -75 76 -104 97 -183 135 -103 50 -220 77 -334
77 -60 0 -64 2 -117 48 -148 132 -346 279 -459 342 l-75 42 140 -6 c77 -3 167
-10 200 -16z m-2267 -190 c-40 -56 -78 -105 -85 -107 -6 -2 -23 3 -38 13 l-27
18 28 20 c16 11 65 53 109 92 44 39 81 70 83 69 2 -2 -29 -49 -70 -105z m-142
-126 l34 -26 -38 -49 c-20 -26 -42 -50 -48 -53 -6 -2 -30 15 -53 38 l-42 43
53 36 c29 20 54 36 56 36 2 1 19 -11 38 -25z m-131 -115 c22 -23 36 -43 30
-45 -5 -3 -39 -24 -75 -48 l-65 -44 -47 46 -47 46 72 42 c40 23 77 43 82 43 6
1 29 -18 50 -40z m-2205 -35 c0 -2 -9 -18 -20 -36 -13 -22 -21 -28 -24 -17
-21 56 -36 103 -36 111 0 5 18 -6 40 -23 22 -18 40 -34 40 -35z m5228 20 c159
-32 305 -129 419 -277 50 -64 398 -715 512 -955 180 -383 305 -737 418 -1193
52 -212 55 -232 44 -270 -17 -57 -95 -133 -175 -170 -104 -49 -190 -62 -341
-52 -71 4 -206 8 -300 8 -223 -1 -267 -12 -635 -165 -208 -87 -359 -132 -530
-160 -117 -20 -158 -22 -320 -17 -190 6 -294 21 -458 68 l-78 23 4 185 c5 219
-6 348 -47 531 -16 74 -33 164 -36 200 -4 36 -9 76 -12 90 -9 48 -11 476 -2
580 66 775 372 1302 869 1499 213 84 478 114 668 75z m-5130 -82 c28 -19 52
-35 52 -36 0 -5 -62 -141 -66 -145 -10 -10 -78 57 -94 92 l-19 41 27 47 c15
27 31 45 37 41 5 -4 34 -22 63 -40z m1907 -2 c16 -23 35 -44 43 -49 10 -6 -7
-20 -63 -50 l-77 -42 -53 50 -53 51 56 25 c31 14 68 32 82 39 35 20 34 20 65
-24z m188 -34 c-36 -64 -389 -448 -535 -583 -316 -294 -495 -393 -708 -394
-182 -1 -334 61 -501 204 -135 116 -297 344 -384 541 l-26 59 33 -22 c63 -42
214 -112 293 -136 142 -43 249 -58 445 -61 467 -7 926 117 1305 354 92 58 88
56 78 38z m-1952 -45 c35 -16 81 -36 102 -45 l38 -15 -20 -38 c-10 -21 -24
-57 -31 -80 -7 -24 -18 -43 -23 -43 -10 0 -160 71 -185 88 -9 6 -7 21 11 68
13 32 27 67 30 77 8 21 3 22 78 -12z m1583 -30 l49 -50 -55 -24 c-75 -33 -127
-52 -130 -46 -11 15 -52 106 -53 114 0 9 99 52 125 54 9 1 38 -21 64 -48z
m-198 -66 c14 -31 24 -62 21 -69 -3 -7 -25 -18 -49 -24 -23 -7 -64 -18 -90
-26 l-47 -15 -21 65 c-12 36 -19 68 -16 72 7 7 142 49 164 51 7 0 25 -24 38
-54z m-1086 -10 c71 -19 85 -25 83 -41 -2 -11 -6 -47 -9 -81 -7 -60 -8 -63
-34 -63 -28 0 -219 46 -227 54 -6 6 24 100 44 139 11 23 18 27 36 21 12 -4 60
-17 107 -29z m865 -60 c9 -36 15 -68 13 -71 -9 -8 -218 -47 -224 -41 -4 4 -9
37 -12 75 l-4 69 83 15 c133 24 124 27 144 -47z m-602 19 l87 -7 0 -80 0 -80
-120 5 c-66 3 -123 8 -126 11 -4 3 -3 43 1 87 l7 82 32 -6 c17 -3 70 -8 119
-12z m349 -66 c2 -40 3 -74 3 -75 -1 -3 -217 -24 -220 -21 -2 2 -6 38 -10 80
l-7 77 70 3 c39 2 91 4 116 6 l44 3 4 -73z m-4152 -850 c52 -17 99 -32 103
-35 5 -3 -6 -16 -24 -29 -17 -12 -81 -69 -140 -124 l-109 -102 0 167 0 166 38
-7 c20 -3 80 -20 132 -36z m210 -83 c38 -19 83 -43 100 -54 l31 -18 -78 -58
c-100 -75 -236 -191 -292 -248 l-43 -45 -54 32 -53 31 1 51 c0 50 2 53 72 122
67 65 238 221 244 222 1 0 34 -16 72 -35z m222 -136 c29 -23 65 -53 80 -67
l27 -25 -72 -45 c-103 -64 -206 -144 -295 -227 l-77 -72 -74 68 -74 69 44 40
c24 22 98 84 164 137 66 53 138 111 160 129 22 18 45 33 52 34 6 0 35 -19 65
-41z m199 -181 c30 -34 68 -80 86 -102 l31 -39 -81 -50 c-100 -60 -220 -147
-307 -221 l-64 -55 -88 92 c-48 51 -87 97 -88 103 -1 30 399 329 446 333 6 1
35 -27 65 -61z m3699 -152 c216 -37 393 -86 570 -156 550 -219 963 -635 1130
-1139 67 -199 83 -300 84 -508 1 -100 -2 -184 -6 -188 -7 -7 -112 8 -179 25
l-36 10 -6 157 c-10 276 -69 485 -198 711 -74 128 -134 208 -244 321 -166 172
-317 280 -540 387 -303 145 -619 215 -980 216 -199 1 -288 -6 -445 -33 -501
-87 -950 -307 -1302 -638 l-97 -92 -98 17 c-54 9 -105 20 -113 24 -11 6 14 36
100 122 63 63 153 144 200 182 385 308 872 514 1365 580 66 9 131 18 145 20
65 11 559 -2 650 -18z m-3514 -87 c25 -39 44 -72 42 -73 -1 -2 -46 -30 -98
-62 -52 -32 -151 -100 -219 -151 -68 -51 -124 -93 -126 -93 -2 0 -27 30 -56
66 l-53 67 30 24 c96 79 226 172 321 228 59 35 109 65 111 65 1 0 23 -32 48
-71z m105 -181 c23 -45 37 -84 33 -85 -8 -3 -336 -210 -406 -257 l-27 -17 -46
68 -45 68 27 23 c72 58 404 282 419 282 2 0 22 -37 45 -82z m3269 51 c456 -57
876 -244 1167 -523 323 -308 484 -669 492 -1104 l2 -104 -43 7 c-60 10 -402
97 -588 150 -505 143 -761 265 -1195 568 -369 258 -617 341 -995 331 -145 -4
-185 -7 -350 -30 -134 -18 -514 -23 -530 -7 -3 3 27 34 65 70 372 345 860 569
1385 637 120 16 477 18 590 5z m-3201 -181 c5 -13 21 -48 34 -79 l26 -57 -112
-75 c-62 -42 -148 -102 -192 -132 -121 -85 -107 -86 -159 6 -46 82 -53 99 -38
99 10 0 363 212 401 240 32 24 30 24 40 -2z m87 -233 c8 -31 14 -58 12 -59 -2
-2 -39 -32 -83 -68 -78 -63 -296 -221 -300 -216 -1 2 -16 33 -33 71 l-31 67
47 24 c26 14 119 74 207 134 88 60 161 108 163 107 2 -2 10 -29 18 -60z m-22
-297 c-32 -33 -113 -104 -179 -159 l-120 -98 -17 86 c-9 47 -19 87 -22 90 -3
3 32 29 78 57 74 47 189 131 271 200 l30 24 9 -70 9 -69 -59 -61z m634 37
c190 -66 361 -95 607 -102 167 -5 236 -2 420 18 373 39 582 29 792 -40 167
-54 288 -123 553 -311 317 -226 642 -380 1050 -498 499 -145 684 -184 1645
-352 715 -125 719 -125 995 -176 283 -52 496 -97 593 -125 38 -11 71 -18 74
-15 8 8 -269 93 -427 130 -201 48 -435 97 -700 147 -124 23 -226 43 -227 44
-1 0 1 29 5 64 l7 64 210 2 c283 2 396 24 955 180 403 112 437 118 690 121
118 2 226 4 240 6 28 3 24 23 64 -297 99 -787 106 -1413 19 -1715 -58 -203
-205 -323 -503 -414 -142 -42 -381 -83 -555 -95 -123 -8 -505 -6 -570 3 -16 2
-64 7 -105 10 -319 28 -739 120 -1044 231 -443 160 -1407 596 -2086 942 l-285
145 -175 -56 c-500 -159 -877 -248 -1105 -262 -76 -5 -106 -2 -190 20 -130 34
-234 85 -279 138 -20 23 -36 49 -36 58 0 19 40 25 237 37 62 3 113 9 113 14 0
12 -118 16 -320 13 -101 -2 -200 1 -220 6 -81 22 -157 119 -167 212 -4 42 -1
65 17 105 12 28 30 59 39 67 10 9 130 48 267 87 137 39 251 73 254 76 7 6
-109 -6 -213 -23 -48 -8 -149 -30 -223 -49 -150 -39 -196 -42 -271 -20 -93 28
-149 122 -123 207 16 56 63 121 110 153 21 15 123 62 227 106 395 167 453 193
453 202 0 5 -7 6 -16 3 -9 -4 -58 -18 -108 -33 -108 -30 -352 -123 -486 -184
-87 -39 -102 -43 -180 -43 -72 -1 -91 3 -127 23 -86 49 -107 165 -50 277 53
104 275 279 478 376 160 77 323 169 439 249 202 140 186 149 -41 23 -228 -127
-550 -284 -581 -284 -79 0 -205 59 -287 136 -125 115 -169 295 -95 384 46 54
117 59 242 15z m8002 -274 c17 -87 28 -165 24 -174 -9 -24 -24 -21 -24 5 0 30
-37 160 -67 235 l-24 61 23 36 c29 44 28 46 68 -163z m-8661 152 c-19 -21 -91
-98 -159 -171 -67 -73 -125 -131 -127 -129 -1 2 0 24 3 49 6 43 11 49 73 92
36 25 104 79 151 120 47 41 87 75 90 76 2 0 -12 -17 -31 -37z m8601 -243 l39
-145 -30 -30 c-18 -19 -32 -26 -38 -20 -6 6 -24 62 -41 125 -17 63 -39 137
-51 165 -11 27 -16 51 -11 53 5 1 24 14 43 28 l34 25 8 -28 c4 -15 25 -93 47
-173z m-120 -34 c22 -87 45 -167 51 -178 8 -15 7 -23 -8 -34 -50 -39 -49 -40
-87 69 -45 129 -88 268 -84 271 6 5 83 34 85 32 1 -1 20 -73 43 -160z m-596
87 c28 -59 167 -466 161 -472 -6 -5 -74 -6 -173 -3 l-53 2 -41 86 c-39 85
-158 387 -158 404 0 13 34 17 146 19 l100 1 18 -37z m168 22 c78 -5 97 -10
101 -23 2 -10 30 -108 62 -220 32 -111 56 -205 53 -207 -9 -9 -169 -47 -175
-42 -3 3 -38 97 -79 208 -40 111 -83 221 -94 244 -26 53 -25 54 8 50 15 -2 70
-7 124 -10z m273 -27 c8 -49 68 -240 96 -304 l18 -44 -60 -31 c-34 -17 -62
-29 -64 -27 -1 2 -28 91 -60 198 -31 107 -61 202 -66 210 -6 12 4 17 54 26 34
6 65 12 69 13 3 0 9 -18 13 -41z m-706 -80 c19 -57 60 -166 92 -243 32 -76 57
-140 56 -140 -1 -1 -45 -8 -98 -16 l-95 -15 -28 111 c-24 92 -86 287 -111 347
-5 14 5 20 57 37 35 11 70 20 78 20 11 1 26 -29 49 -101z m-175 -76 c33 -102
80 -276 88 -326 2 -15 -7 -22 -45 -32 -26 -6 -49 -8 -52 -4 -3 5 -19 74 -35
154 -16 80 -41 180 -56 222 -14 41 -24 77 -22 79 11 12 74 33 79 27 4 -4 23
-58 43 -120z m-115 -53 c41 -163 67 -319 54 -327 -21 -13 -223 -65 -229 -59
-10 9 -23 76 -44 227 -11 80 -24 159 -29 176 l-8 31 106 44 c76 32 108 42 113
33 4 -7 21 -63 37 -125z m-269 -76 c7 -60 21 -157 31 -217 10 -61 18 -111 16
-112 -4 -4 -182 -54 -193 -54 -7 0 -14 29 -19 78 -5 60 -38 249 -58 333 -2 9
165 74 199 78 7 1 16 -41 24 -106z m-1272 -41 c-21 -118 -63 -290 -72 -300 -4
-3 -11 -1 -17 5 -8 8 -5 44 10 130 11 65 23 147 26 183 10 109 11 110 44 99
l28 -10 -19 -107z m118 77 c37 -10 43 -14 39 -33 -3 -11 -23 -111 -46 -221
-22 -109 -41 -201 -43 -203 -2 -2 -27 9 -56 23 -47 24 -52 29 -47 53 4 15 17
76 31 136 14 59 28 140 32 180 8 82 11 89 31 82 9 -4 35 -11 59 -17z m927
-176 c14 -93 28 -188 31 -213 l5 -46 -97 -22 c-53 -12 -102 -22 -109 -22 -18
0 -25 39 -39 215 -3 44 -10 111 -14 150 -5 38 -8 70 -7 71 4 3 163 32 183 33
19 1 22 -11 47 -166z m-768 141 c85 -12 87 -13 81 -42 -3 -15 -7 -43 -10 -62
-2 -19 -15 -113 -27 -208 l-23 -173 -30 6 c-76 14 -166 38 -166 43 0 8 81 425
86 441 3 8 12 11 27 7 12 -3 40 -9 62 -12z m281 -28 c1 0 4 -106 8 -233 l7
-233 -115 0 c-63 0 -117 3 -120 8 -2 4 4 79 14 167 10 88 21 180 24 205 3 25
5 57 5 72 l1 27 88 -6 c48 -3 88 -6 88 -7z m231 -66 c2 -41 7 -128 13 -192 5
-64 10 -130 10 -146 l0 -30 -100 -12 c-56 -7 -103 -11 -105 -9 -2 2 -6 67 -9
144 -4 77 -9 179 -12 227 l-6 87 58 4 c33 2 79 3 104 3 l45 -1 2 -75z m-5926
-570 l30 0 -19 -27 c-25 -35 -52 -114 -53 -156 -2 -51 -17 57 -18 132 -1 54 1
62 15 57 9 -3 29 -6 45 -6z"/>
<path d="M9293 17113 c9 -2 23 -2 30 0 6 3 -1 5 -18 5 -16 0 -22 -2 -12 -5z"/>
<path d="M9870 16968 c-140 -20 -346 -107 -488 -208 -155 -109 -288 -259 -368
-415 -46 -88 -60 -125 -47 -125 4 0 29 42 56 93 61 119 125 203 229 303 186
178 400 286 656 330 156 27 125 45 -38 22z"/>
<path d="M10033 16796 c-154 -83 -318 -227 -426 -375 -49 -67 -151 -260 -142
-269 6 -6 4 -10 35 53 113 227 361 479 577 588 53 27 75 47 51 47 -7 0 -50
-20 -95 -44z"/>
<path d="M12775 16630 c3 -5 12 -10 18 -10 7 0 39 -13 72 -28 128 -61 248
-192 322 -352 19 -41 42 -91 51 -110 15 -33 16 -33 20 -11 9 56 -78 232 -168
340 -55 66 -160 141 -233 165 -54 18 -91 21 -82 6z"/>
<path d="M12395 16473 c-54 -4 -155 -24 -160 -33 -2 -4 57 -5 133 -2 106 4
157 1 222 -12 219 -45 406 -176 514 -360 26 -45 42 -64 49 -57 19 19 -81 167
-171 252 -158 150 -367 225 -587 212z"/>
<path d="M11253 16242 c-63 -93 -123 -251 -143 -380 -14 -85 -14 -263 0 -333
16 -75 58 -202 75 -225 19 -26 19 -3 -1 44 -28 67 -54 195 -60 297 -11 178 36
377 130 550 25 47 46 87 46 90 0 16 -19 -1 -47 -43z"/>
<path d="M12760 16031 c0 -6 29 -24 65 -42 65 -32 116 -79 137 -125 6 -13 15
-24 20 -24 25 0 -13 80 -58 120 -60 52 -164 97 -164 71z"/>
<path d="M13520 15692 c0 -4 33 -18 73 -31 93 -30 267 -117 365 -182 253 -170
441 -389 580 -679 65 -133 90 -159 56 -58 -52 161 -186 368 -343 531 -163 169
-396 320 -614 396 -91 32 -117 37 -117 23z"/>
<path d="M13480 15370 c0 -5 4 -10 9 -10 19 0 176 -157 216 -217 47 -71 69
-74 29 -4 -68 116 -254 286 -254 231z"/>
<path d="M13100 14019 c0 -19 89 -219 142 -319 185 -348 418 -547 707 -606
103 -20 253 -13 229 12 -3 3 -39 7 -80 9 -152 7 -257 35 -377 101 -208 114
-350 287 -515 626 -83 170 -106 209 -106 177z"/>
<path d="M13440 13871 c0 -19 121 -128 187 -167 76 -46 171 -84 208 -84 46 0
25 15 -60 44 -97 33 -208 102 -275 170 -43 45 -60 55 -60 37z"/>
<path d="M14162 12173 c0 -148 -21 -260 -73 -406 -23 -62 -43 -123 -46 -137
-4 -25 -4 -25 12 -5 45 54 108 244 124 375 11 91 7 268 -7 282 -6 6 -10 -30
-10 -109z"/>
<path d="M8659 14610 c-344 -55 -610 -227 -798 -515 -63 -96 -88 -152 -73
-167 8 -8 25 2 64 37 189 170 416 273 673 304 50 6 175 11 278 11 l189 0 26
29 c79 84 123 210 90 254 -8 11 -39 26 -69 34 -65 17 -300 26 -380 13z m369
-55 c42 -13 52 -20 52 -38 0 -33 -43 -118 -80 -160 l-32 -37 -187 0 c-364 -1
-586 -57 -807 -206 -38 -25 -73 -48 -78 -52 -29 -17 91 134 160 203 167 167
386 274 619 304 101 12 290 5 353 -14z"/>
<path d="M10413 14575 c-25 -10 -33 -22 -39 -50 -13 -72 14 -248 44 -285 16
-19 28 -21 152 -21 165 -1 282 -19 420 -65 239 -79 571 -274 861 -505 54 -43
103 -79 108 -79 25 0 19 27 -20 93 -149 251 -371 500 -584 652 -176 127 -417
231 -605 261 -111 18 -295 18 -337 -1z m323 -40 c171 -30 384 -116 543 -219
99 -64 237 -182 330 -283 81 -88 207 -250 245 -313 17 -30 12 -27 -60 27 -252
191 -571 374 -769 441 -143 48 -227 63 -408 69 -197 7 -180 -6 -199 150 -13
103 -8 123 33 134 44 13 196 9 285 -6z"/>
<path d="M8195 13789 c-82 -12 -147 -35 -235 -81 -92 -48 -109 -63 -92 -80 9
-9 30 -3 95 29 163 81 291 106 415 79 105 -22 192 -69 279 -150 86 -80 136
-144 194 -249 44 -78 43 -59 -1 39 -129 287 -391 452 -655 413z"/>
<path d="M8144 13576 c-142 -33 -265 -99 -365 -197 -100 -96 -100 -136 -4
-180 70 -32 99 -26 168 37 133 120 207 154 339 154 181 -1 344 -64 458 -179
36 -36 82 -86 102 -110 73 -85 92 -15 29 106 -90 172 -230 296 -401 353 -84
28 -240 35 -326 16z"/>
<path d="M10715 13574 c-271 -49 -469 -165 -627 -368 -24 -29 -9 -19 52 37
140 130 271 208 420 251 165 48 405 61 575 31 162 -29 372 -109 493 -190 60
-39 92 -45 92 -16 0 37 -203 149 -373 206 -56 18 -144 40 -196 49 -116 20
-327 19 -436 0z"/>
<path d="M10639 13391 c-199 -37 -450 -156 -592 -280 -37 -33 -51 -81 -24 -81
6 0 57 22 112 49 202 99 365 136 560 128 144 -6 242 -31 372 -92 115 -54 218
-125 307 -210 l67 -65 59 0 c64 0 144 22 173 48 41 37 -10 165 -102 255 -104
103 -280 184 -501 228 -106 22 -357 33 -431 20z"/>
<path d="M9276 13247 c-91 -261 -263 -479 -559 -711 -158 -124 -153 -112 -90
-225 47 -84 160 -197 248 -249 72 -42 160 -75 230 -86 33 -5 27 -1 -38 28
-143 64 -281 184 -354 307 -51 86 -54 79 49 156 256 192 419 401 491 628 27
83 52 194 45 200 -2 2 -12 -19 -22 -48z"/>
<path d="M13370 12410 c-77 -29 -157 -87 -213 -156 -51 -62 -132 -216 -143
-271 l-6 -33 64 2 c86 3 150 -28 195 -96 42 -61 54 -102 60 -204 8 -120 -7
-163 -82 -239 -52 -52 -72 -64 -129 -82 -38 -12 -78 -21 -90 -21 -15 0 -17 -3
-8 -9 19 -11 108 6 169 34 122 55 183 151 183 288 0 215 -110 367 -265 367
l-45 0 17 43 c62 156 158 268 281 325 76 36 195 38 257 5 144 -77 237 -316
222 -572 -3 -53 -13 -116 -21 -140 -9 -24 -14 -46 -12 -48 7 -7 45 119 57 191
7 40 9 103 6 149 -17 219 -100 382 -228 452 -72 39 -186 45 -269 15z"/>
<path d="M9178 12225 c-13 -13 2 -25 30 -25 47 -1 115 -38 159 -88 35 -39 43
-44 48 -29 10 24 -35 80 -89 112 -44 26 -134 44 -148 30z"/>
<path d="M10267 11916 c-37 -14 -114 -52 -170 -85 -246 -145 -455 -205 -692
-196 -154 5 -276 32 -527 114 -242 79 -304 88 -352 50 -36 -29 -53 -64 -77
-166 -18 -75 -20 -108 -16 -228 6 -159 20 -222 78 -342 120 -250 364 -402 724
-453 101 -14 367 -14 471 0 293 40 566 183 739 388 155 185 237 385 239 587 2
169 -48 274 -153 328 -72 36 -166 37 -264 3z m42 -73 c-142 -234 -355 -399
-599 -465 -75 -20 -106 -23 -275 -22 -172 0 -199 3 -290 27 -153 41 -273 104
-359 191 -64 64 -136 170 -123 182 3 3 92 -24 198 -60 270 -90 374 -110 574
-110 167 -1 261 12 390 56 83 27 227 96 321 153 62 38 157 82 182 85 2 0 -7
-17 -19 -37z m-96 -628 c104 -22 227 -92 227 -130 0 -6 -32 -46 -72 -89 -61
-66 -75 -77 -97 -73 -14 3 -82 17 -151 32 -114 26 -144 28 -340 29 -118 1
-241 -2 -273 -7 l-57 -7 25 50 c54 107 147 169 265 178 67 4 150 -11 150 -29
0 -5 -7 -24 -16 -40 -21 -42 -11 -47 16 -10 33 47 80 79 141 95 69 19 98 19
182 1z m-193 -295 c101 -17 200 -41 200 -48 0 -11 -111 -79 -180 -110 -168
-77 -336 -109 -560 -110 -223 0 -406 31 -540 90 l-55 25 125 41 c210 68 389
107 555 119 44 3 82 7 85 10 8 7 304 -6 370 -17z"/>
<path d="M8993 10473 c-9 -23 65 -88 142 -124 153 -72 319 -63 483 27 43 24
62 41 62 54 0 26 -3 25 -64 -9 -141 -81 -312 -93 -442 -32 -37 17 -84 47 -105
66 -43 38 -66 44 -76 18z"/>
<path d="M4316 14243 c-84 -127 -107 -349 -55 -520 76 -247 256 -423 524 -512
92 -31 223 -46 225 -26 1 6 -56 24 -126 42 -267 68 -439 196 -546 407 -86 170
-90 377 -12 573 14 35 24 67 21 70 -3 2 -17 -13 -31 -34z"/>
<path d="M5485 13470 c-3 -6 -4 -19 0 -30 8 -26 -21 -79 -48 -89 -34 -13 -75
-2 -97 26 -11 14 -25 23 -32 21 -8 -3 0 -18 24 -41 26 -27 45 -37 67 -37 39 0
87 24 101 49 21 40 7 136 -15 101z"/>
<path d="M4250 12658 c1 -30 40 -96 78 -130 53 -48 120 -68 252 -75 63 -3 114
-11 127 -19 12 -8 40 -52 62 -97 32 -66 49 -89 81 -111 87 -58 200 -57 258 1
23 23 24 30 19 91 -9 106 -48 195 -73 169 -3 -3 5 -46 17 -96 29 -113 23 -139
-39 -161 -80 -28 -184 21 -219 102 -61 143 -82 158 -219 158 -159 0 -284 58
-315 145 -13 34 -29 47 -29 23z"/>
<path d="M3890 12064 c0 -87 69 -155 158 -156 70 0 142 42 142 84 0 25 -7 23
-41 -12 -59 -58 -141 -57 -196 4 -31 33 -38 55 -34 99 1 9 -4 17 -13 17 -12 0
-16 -10 -16 -36z"/>
<path d="M13280 8843 c0 -5 6 -28 14 -53 17 -56 3 -119 -39 -180 -70 -101
-283 -236 -468 -296 -48 -15 -87 -32 -87 -37 0 -21 181 37 295 95 266 134 382
302 313 453 -10 23 -28 34 -28 18z"/>
<path d="M8035 8777 c-40 -85 -53 -163 -43 -261 9 -95 55 -183 169 -326 109
-136 136 -189 119 -230 -40 -96 -198 -65 -358 70 -76 65 -99 72 -63 21 35 -48
101 -100 176 -137 111 -55 186 -57 244 -8 69 58 46 134 -93 308 -95 119 -128
170 -150 234 -36 101 -22 239 34 338 35 62 35 64 15 64 -8 0 -30 -32 -50 -73z"/>
<path d="M14405 6298 c38 -568 72 -761 182 -1047 45 -118 169 -378 186 -388 5
-3 13 -1 19 5 6 6 -2 33 -25 78 -207 413 -288 716 -323 1214 -5 58 -9 108 -10
113 -1 4 -2 32 -3 62 -1 43 -4 55 -17 55 -14 0 -15 -12 -9 -92z"/>
<path d="M13020 6123 c0 -22 95 -259 145 -362 79 -162 155 -273 254 -372 121
-121 264 -208 405 -245 113 -30 296 -30 296 0 0 10 -31 15 -127 18 -109 4
-140 9 -209 35 -135 49 -228 108 -335 213 -151 148 -259 327 -362 602 -24 61
-48 113 -55 116 -7 2 -12 0 -12 -5z"/>
<path d="M12996 5438 c22 -117 122 -346 206 -472 64 -94 149 -195 222 -264
107 -99 109 -73 3 37 -229 239 -334 421 -413 719 -8 28 -23 10 -18 -20z"/>
<path d="M8620 6979 c0 -5 33 -25 73 -43 165 -76 344 -198 503 -343 47 -43 89
-79 94 -81 48 -17 -99 136 -219 227 -105 80 -221 152 -334 207 -93 45 -117 52
-117 33z"/>
<path d="M11144 6914 c-137 -72 -335 -227 -316 -246 6 -6 46 19 110 69 55 43
143 105 196 137 87 54 112 76 87 76 -5 0 -40 -16 -77 -36z"/>
<path d="M8650 6511 c0 -5 24 -23 53 -40 28 -17 60 -36 69 -43 24 -17 36 -1
12 17 -26 21 -117 75 -126 75 -5 0 -8 -4 -8 -9z"/>
<path d="M11820 6443 c0 -36 69 -223 129 -348 109 -229 237 -434 390 -625 82
-103 228 -260 242 -260 19 0 6 21 -58 91 -262 292 -480 639 -628 1004 -59 145
-75 174 -75 138z"/>
<path d="M11810 5749 c0 -40 28 -136 56 -192 33 -64 104 -157 121 -157 20 0
15 22 -11 49 -42 44 -94 140 -122 225 -29 89 -44 114 -44 75z"/>
<path d="M7380 2412 c0 -13 89 -132 170 -227 305 -356 761 -648 1286 -823 335
-112 689 -178 1159 -217 274 -22 1235 -8 1262 18 16 17 -17 19 -179 16 -290
-7 -855 -4 -1007 4 -823 43 -1515 253 -2046 619 -202 140 -423 347 -554 521
-67 88 -91 112 -91 89z"/>
<path d="M7160 1995 c0 -2 20 -57 44 -122 170 -457 320 -758 492 -989 112
-152 397 -415 435 -402 7 2 -19 28 -57 58 -38 29 -116 101 -174 159 -248 251
-426 554 -631 1069 -50 127 -96 232 -100 232 -5 0 -9 -2 -9 -5z"/>
<path d="M12556 1180 c-56 -43 -198 -113 -296 -148 -121 -42 -268 -77 -473
-111 -179 -30 -267 -58 -267 -84 0 -28 41 -66 93 -85 92 -34 287 -63 442 -65
104 -1 147 1 156 11 11 10 9 12 -6 12 -243 2 -386 16 -535 55 -62 16 -120 47
-120 65 0 16 86 40 235 65 265 45 488 107 619 172 63 30 206 125 206 135 0 14
-14 8 -54 -22z"/>
</g>
</svg>
