<?xml version="1.0" standalone="no"?>
<!DOCTYPE svg PUBLIC "-//W3C//DTD SVG 20010904//EN"
 "http://www.w3.org/TR/2001/REC-SVG-20010904/DTD/svg10.dtd">
<svg version="1.0" xmlns="http://www.w3.org/2000/svg"
 width="2000.000000pt" height="2000.000000pt" viewBox="0 0 2000.000000 2000.000000"
 preserveAspectRatio="xMidYMid meet">

<g transform="translate(0.000000,2000.000000) scale(0.100000,-0.100000)"
fill="#000000" stroke="none">
<path d="M7318 18233 c-41 -5 -50 -24 -24 -52 13 -15 3 -16 -112 -16 -140 -1
-212 -15 -212 -43 0 -9 14 -25 30 -34 17 -9 30 -21 30 -25 0 -4 -37 -8 -83 -9
-125 -1 -278 -55 -336 -118 -29 -30 -23 -38 37 -55 24 -7 42 -15 39 -17 -3 -3
-33 -12 -67 -20 -83 -19 -158 -56 -213 -104 -47 -42 -87 -110 -87 -149 0 -21
3 -22 42 -16 37 7 40 6 33 -11 -43 -103 -48 -124 -48 -192 l0 -73 -26 7 c-63
17 -65 15 -74 -61 -12 -111 11 -325 44 -413 8 -21 7 -23 -8 -17 -10 4 -27 8
-38 9 -18 1 -20 -4 -16 -54 4 -71 34 -189 65 -256 14 -29 46 -76 72 -104 l47
-50 -37 0 c-46 0 -46 -11 0 -103 107 -214 310 -396 539 -482 47 -17 88 -34 91
-37 3 -3 -13 -42 -35 -85 -112 -224 -227 -549 -304 -863 -63 -255 -107 -477
-227 -1155 -38 -212 -88 -455 -159 -776 -156 -698 -219 -1146 -226 -1609 -10
-650 105 -1004 396 -1222 42 -32 45 -36 32 -55 -8 -12 -17 -45 -20 -75 l-6
-53 -85 -40 c-277 -130 -550 -376 -721 -652 -167 -270 -217 -433 -341 -1108
-46 -247 -72 -353 -131 -535 -128 -387 -318 -728 -607 -1087 -266 -328 -328
-439 -373 -655 -24 -122 -28 -340 -8 -508 19 -159 18 -163 -45 -305 -134 -300
-192 -565 -166 -754 82 -603 349 -973 816 -1134 252 -88 561 -116 874 -82 246
27 436 81 638 180 73 36 120 55 116 45 -54 -117 -91 -323 -79 -432 3 -29 12
-111 20 -183 13 -124 13 -232 0 -320 -7 -46 -128 -578 -215 -953 -75 -318 -87
-408 -71 -515 7 -44 20 -99 28 -121 21 -54 98 -171 129 -195 30 -23 30 -27 -1
-125 -30 -92 -60 -227 -70 -308 l-6 -58 33 0 c33 0 34 1 37 43 4 83 69 347 90
369 4 5 36 -8 72 -27 79 -42 216 -87 330 -110 l85 -17 -26 -101 c-44 -169 -43
-157 -22 -157 14 0 21 12 31 53 26 116 54 207 61 202 4 -2 74 -7 156 -11 82
-3 178 -7 214 -9 36 -2 81 -4 101 -4 l36 -1 -18 -82 c-25 -111 -25 -148 0
-148 15 0 20 10 25 53 4 28 12 80 17 115 l11 62 269 0 c148 0 269 -3 269 -7 0
-5 -5 -28 -11 -53 -6 -25 -14 -73 -18 -107 -7 -55 -5 -63 9 -63 14 0 20 17 29
88 6 49 11 100 11 115 l0 27 298 0 298 0 -12 -78 c-18 -108 -18 -152 1 -152 8
0 15 3 15 8 1 10 11 106 19 172 6 53 7 55 36 56 17 1 174 3 350 5 l319 4 -2
-50 c-2 -27 -5 -83 -7 -122 -4 -68 -3 -73 15 -73 19 0 20 7 21 110 2 122 2
126 9 133 3 3 147 8 320 12 173 4 327 8 341 10 26 3 51 -7 50 -19 -1 -3 -1
-60 -1 -127 0 -119 0 -120 23 -117 12 2 21 8 20 14 -1 6 -5 206 -10 445 -16
857 -7 3711 12 4019 2 36 7 175 10 310 4 135 8 268 10 295 2 28 6 133 10 235
3 102 7 223 10 270 3 47 7 126 10 175 2 50 8 149 11 220 4 72 8 139 9 150 1
11 3 36 4 55 1 34 3 36 37 38 51 4 71 17 93 60 11 20 20 29 21 20 0 -9 12 -31
27 -48 25 -30 29 -31 85 -28 l58 3 1 -30 c1 -16 3 -41 4 -55 32 -299 40 -2653
10 -3216 -2 -43 -7 -196 -10 -339 -3 -143 -7 -312 -10 -375 -3 -63 -7 -200
-10 -305 -3 -104 -8 -244 -10 -310 -3 -66 -7 -196 -10 -290 -3 -93 -7 -231
-10 -305 -5 -141 -11 -324 -20 -595 -3 -88 -8 -217 -11 -287 -5 -125 -5 -128
15 -128 12 0 21 1 22 3 0 1 3 63 6 137 3 74 7 137 9 139 6 7 26 8 292 16 l232
7 1 -33 c0 -19 2 -45 4 -59 3 -21 14 -179 15 -202 0 -5 7 -8 17 -8 14 0 15 11
10 103 -4 56 -9 125 -13 153 l-6 51 218 7 c121 3 258 9 305 12 l86 6 27 -143
c15 -79 29 -154 32 -166 2 -13 12 -23 20 -23 14 0 15 9 9 68 -4 37 -18 109
-31 161 -13 52 -23 96 -21 97 3 4 125 12 267 19 63 3 158 8 212 11 l96 6 11
-53 c10 -49 41 -277 41 -300 0 -5 9 -9 20 -9 21 0 21 -13 0 160 -10 75 -20
125 -36 182 -6 21 16 25 186 33 69 4 177 10 240 15 63 6 131 10 151 10 l35 0
23 -114 c13 -63 26 -152 30 -198 5 -71 9 -83 25 -86 18 -4 19 1 12 80 -6 71
-19 147 -52 301 -6 26 -6 27 42 28 27 1 63 3 79 5 17 1 84 8 150 14 66 6 134
13 150 15 145 20 198 26 201 22 11 -10 45 -253 51 -354 6 -104 8 -113 26 -113
19 0 19 5 13 107 -7 96 -35 291 -52 349 -5 19 3 23 88 44 143 36 264 78 363
127 50 25 95 49 101 54 16 13 20 -7 39 -198 24 -239 3 -348 -88 -440 l-41 -43
45 0 c35 0 50 5 65 23 34 37 52 72 71 133 23 77 23 270 -1 447 l-18 129 57 58
c99 105 131 211 142 475 4 116 2 169 -11 236 -23 121 -38 166 -213 604 -229
575 -303 795 -336 1006 l-14 86 121 -63 c295 -154 605 -237 931 -251 594 -24
962 201 1165 712 77 195 180 650 180 798 0 188 -70 460 -184 712 l-31 70 22
150 c19 126 22 180 19 340 -3 170 -6 199 -30 278 -49 165 -122 288 -321 542
-224 286 -357 508 -475 796 -127 308 -171 496 -265 1114 -48 321 -99 506 -195
703 -165 341 -413 598 -746 772 -79 42 -99 57 -101 75 -2 32 -30 83 -59 110
l-24 22 105 77 c204 150 339 304 431 491 103 212 122 406 70 720 -37 221 -49
301 -96 605 -232 1503 -508 2598 -866 3430 -46 108 -84 198 -84 200 0 3 49 6
108 7 173 3 342 62 517 183 96 67 225 194 225 221 0 20 -4 21 -42 15 l-43 -7
70 41 c80 48 134 90 196 155 53 55 117 148 125 182 8 30 -10 53 -28 35 -30
-30 -24 -8 9 36 63 83 112 223 113 324 0 50 -14 55 -57 19 -21 -17 -40 -31
-44 -31 -4 0 13 39 37 88 58 113 80 203 65 259 -13 49 -84 147 -147 202 -45
39 -45 40 -17 38 25 -2 28 1 26 25 -5 78 -120 232 -228 304 -29 20 -42 34 -32
34 32 0 18 39 -38 105 -47 56 -51 63 -28 54 31 -12 48 0 39 28 -11 33 -115
133 -192 183 -140 91 -274 130 -458 131 -164 1 -283 -35 -371 -112 l-35 -31 0
35 c0 20 4 46 9 60 15 38 0 50 -50 42 -113 -19 -245 -84 -325 -160 -55 -52
-69 -48 -42 10 9 20 9 28 -1 38 -9 9 -24 5 -69 -18 -80 -41 -154 -118 -179
-185 l-20 -54 -18 27 c-9 15 -23 27 -30 27 -26 0 -98 -97 -146 -195 -51 -107
-99 -256 -99 -311 0 -19 -3 -34 -6 -34 -4 0 -41 30 -83 67 -394 345 -802 510
-1466 590 -176 21 -593 24 -745 5 -449 -56 -851 -204 -1223 -450 -54 -36 -99
-63 -100 -61 -2 2 -18 50 -36 107 -37 113 -84 199 -148 266 -83 88 -123 97
-123 29 l-1 -38 -21 30 c-120 164 -325 295 -487 312 l-54 6 7 -47 7 -48 -43
25 c-89 52 -227 81 -330 70z m202 -63 c36 -11 87 -33 113 -50 26 -16 54 -30
62 -30 19 0 35 32 35 69 l0 30 53 -15 c28 -8 90 -33 136 -55 99 -49 210 -149
271 -245 22 -35 45 -64 50 -64 13 0 40 54 40 82 1 20 8 15 55 -35 65 -68 126
-188 152 -296 l18 -74 -39 -31 c-98 -77 -223 -184 -295 -252 l-79 -75 -34 63
c-20 38 -64 95 -113 144 -93 94 -185 145 -305 170 -119 25 -213 9 -343 -58
-177 -92 -312 -286 -337 -485 -33 -262 106 -529 348 -665 l53 -30 -25 -33
c-38 -50 -136 -187 -145 -203 -7 -13 -15 -12 -62 3 -61 20 -180 77 -222 107
-16 11 -31 17 -35 13 -15 -15 120 -103 215 -140 75 -29 74 -29 45 -73 -7 -10
-26 -5 -88 21 -117 49 -213 116 -325 224 -54 53 -99 92 -99 86 0 -5 14 -30 31
-56 61 -93 223 -218 368 -285 42 -19 77 -36 79 -37 6 -5 -60 -115 -69 -115
-20 0 -149 54 -217 90 -164 89 -315 238 -391 387 -11 23 -21 47 -21 52 0 6 26
11 57 13 73 4 83 26 23 53 -86 39 -161 154 -194 302 -9 40 -16 76 -16 81 0 5
21 7 47 4 42 -4 46 -3 40 14 -58 180 -80 316 -70 430 l5 59 52 -3 51 -4 0 104
c0 97 2 107 33 166 18 35 30 68 27 73 -4 5 -24 12 -45 15 l-40 7 18 30 c42 73
162 138 292 159 36 6 69 14 73 18 17 15 -5 50 -45 74 l-41 24 50 25 c87 44
159 60 271 59 100 -1 102 -1 102 22 0 13 -10 35 -21 50 -12 15 -19 29 -17 32
15 15 169 15 232 0 82 -19 95 -13 79 38 -6 19 -8 37 -6 40 9 9 93 -4 163 -24z
m6191 6 c94 -20 207 -69 286 -125 75 -53 123 -100 90 -88 -93 34 -94 10 -3
-83 42 -43 76 -80 76 -82 0 -2 -29 -2 -65 0 -62 4 -65 3 -65 -18 0 -14 8 -24
22 -28 62 -16 182 -88 246 -148 66 -60 142 -168 128 -181 -3 -3 -25 2 -49 11
-100 38 -101 12 -4 -73 97 -84 195 -197 206 -237 5 -20 5 -51 -1 -81 -13 -66
-98 -239 -143 -291 -23 -26 -35 -48 -31 -58 8 -20 33 -12 109 32 32 19 60 34
62 34 2 0 -3 -28 -11 -62 -23 -103 -76 -198 -144 -261 -33 -31 -60 -61 -60
-67 0 -8 17 -11 50 -8 28 1 50 1 50 -1 0 -14 -83 -111 -142 -166 -49 -46 -101
-80 -170 -115 -55 -28 -106 -50 -114 -50 -19 0 -18 -36 2 -44 9 -3 36 -6 62
-6 l46 0 -39 -41 c-107 -112 -299 -225 -455 -269 -75 -21 -218 -33 -277 -23
-29 5 -37 16 -113 161 -68 130 -170 302 -265 446 l-19 29 29 -7 c284 -64 589
79 714 334 52 106 70 190 66 300 -9 232 -155 423 -375 491 -135 42 -346 20
-498 -51 -167 -78 -310 -217 -367 -355 l-22 -55 -71 92 c-39 51 -110 136 -156
188 -83 92 -85 96 -86 146 0 94 54 260 126 385 43 73 74 108 81 91 7 -17 62
-45 77 -39 7 3 16 24 19 47 7 55 52 126 105 167 53 41 62 41 62 4 0 -40 17
-81 33 -81 8 0 28 20 46 45 54 75 195 161 314 190 27 7 27 7 26 -41 -2 -64 9
-114 26 -114 8 0 38 24 67 53 54 55 122 89 213 107 66 13 235 11 306 -4z
m-3226 -201 c490 -47 798 -125 1098 -277 346 -176 604 -411 923 -843 144 -195
544 -799 628 -948 404 -716 719 -1714 981 -3108 20 -105 35 -195 33 -201 -2
-5 -21 34 -43 88 -50 123 -123 255 -253 455 -198 308 -283 525 -342 874 -26
158 -29 167 -43 162 -31 -10 26 -343 94 -552 55 -165 126 -305 280 -545 157
-245 240 -413 309 -617 49 -148 65 -228 130 -643 5 -36 31 -195 56 -355 43
-271 46 -299 41 -430 -4 -116 -10 -155 -32 -225 -61 -193 -180 -366 -356 -516
-92 -78 -286 -214 -306 -214 -7 0 -13 -4 -13 -9 0 -14 -371 -197 -505 -251
-157 -62 -539 -200 -543 -195 -2 1 18 18 45 36 100 68 691 520 762 582 168
149 275 304 317 459 20 78 17 115 -5 48 -58 -181 -189 -356 -395 -524 -167
-137 -671 -513 -799 -597 -65 -43 -149 -89 -186 -103 -36 -14 -232 -87 -436
-162 -203 -75 -611 -228 -905 -339 -653 -247 -659 -249 -666 -242 -10 10 92
193 173 312 111 163 211 282 373 449 265 272 461 420 1040 791 450 288 520
333 714 463 336 225 555 397 680 534 l63 69 41 -123 c91 -276 89 -406 -10
-602 -51 -102 -149 -236 -235 -323 -66 -67 -72 -77 -36 -50 107 76 246 251
323 404 51 104 62 151 62 258 -2 178 -54 355 -187 630 -214 442 -341 744 -446
1058 -95 283 -119 392 -224 992 -151 863 -262 1166 -588 1609 -379 515 -835
922 -1240 1111 -396 183 -694 168 -1162 -60 -362 -177 -784 -471 -1210 -845
-66 -58 -136 -117 -155 -131 -68 -51 -222 -203 -302 -298 -204 -242 -361 -530
-515 -941 -57 -153 -165 -482 -159 -487 1 -2 47 111 101 249 272 700 420 966
702 1257 l102 106 -51 -120 c-149 -355 -351 -1058 -683 -2387 -99 -395 -181
-700 -225 -833 -141 -431 -163 -529 -164 -735 -1 -119 3 -170 16 -218 61 -218
205 -430 426 -628 181 -162 385 -302 546 -373 36 -17 66 -29 66 -26 0 2 -46
32 -102 66 -214 133 -445 315 -586 463 -151 159 -267 350 -309 511 -38 145
-21 355 50 611 l22 82 1 -182 c0 -154 4 -193 23 -261 55 -201 166 -356 340
-474 104 -71 406 -210 515 -237 33 -8 55 -51 105 -208 35 -108 76 -328 67
-353 -7 -18 10 -43 29 -43 7 0 49 42 94 93 78 88 144 196 171 280 6 20 15 37
19 37 12 0 180 -117 256 -178 102 -82 518 -501 682 -687 260 -294 532 -635
496 -621 -10 4 -207 73 -438 153 -983 340 -1230 432 -1381 514 -218 118 -482
301 -689 477 -147 126 -390 373 -472 482 -195 257 -264 448 -287 798 -7 110
-16 100 -16 -19 0 -125 15 -257 41 -359 25 -97 121 -293 196 -397 199 -278
563 -609 948 -863 61 -40 103 -70 94 -67 -69 23 -259 79 -504 147 -324 91
-522 153 -668 211 -292 116 -495 258 -589 414 -208 343 -237 986 -87 1897 30
186 95 505 154 758 19 80 52 240 75 355 70 362 81 407 122 535 143 439 362
899 589 1236 27 40 49 78 49 84 0 25 -28 -1 -91 -84 -161 -213 -334 -546 -480
-921 -32 -82 -59 -148 -59 -145 0 13 100 525 124 630 135 595 322 1044 599
1435 237 335 534 699 762 934 595 612 1217 926 1940 980 113 8 383 6 490 -4z
m-2790 -527 c136 -44 294 -188 349 -319 l14 -33 -104 -109 c-152 -158 -487
-561 -548 -659 -16 -26 -30 -23 -104 26 -188 123 -303 322 -304 526 -1 150 58
293 170 412 156 165 335 218 527 156z m5728 -96 c204 -74 339 -286 320 -507
-6 -78 -52 -212 -95 -276 -75 -113 -204 -204 -343 -245 -84 -24 -242 -23 -315
2 l-55 19 -138 204 -137 203 36 59 c19 32 58 85 85 118 53 63 57 71 35 71 -18
0 -99 -89 -144 -159 -30 -47 -36 -52 -49 -38 -13 13 -13 20 5 60 47 105 166
243 270 312 45 30 56 51 20 39 -42 -13 -122 -71 -175 -125 -67 -70 -83 -91
-125 -166 -26 -48 -37 -60 -46 -51 -20 20 -14 52 23 126 87 173 285 320 495
367 91 20 257 14 333 -13z m-3040 -920 c35 -39 60 -116 67 -209 4 -51 9 -96
13 -99 29 -29 37 103 12 200 -9 32 -25 71 -36 87 l-20 29 33 0 c115 0 261
-212 308 -445 16 -83 20 -95 31 -95 16 0 -1 128 -28 210 -26 79 -68 162 -113
220 -45 58 -46 65 -10 44 61 -36 177 -142 229 -210 69 -91 134 -228 161 -337
17 -68 21 -117 21 -222 0 -74 4 -135 9 -135 34 0 37 277 5 395 -50 180 -175
366 -319 472 -32 24 -56 43 -52 43 15 0 160 -62 219 -94 164 -89 341 -209 413
-282 44 -44 131 -205 160 -299 19 -58 40 -77 29 -24 -7 32 -52 147 -64 164 -4
6 -20 33 -36 60 -34 60 -31 58 107 -69 118 -108 159 -173 238 -373 7 -18 16
-31 20 -28 10 6 -16 108 -37 148 -8 16 -13 31 -10 33 10 10 123 -135 163 -211
25 -47 50 -82 56 -79 5 3 7 12 4 20 -11 29 6 10 87 -98 140 -187 224 -322 291
-471 l36 -77 -123 126 c-151 157 -374 354 -400 354 -18 0 -19 -5 -14 -45 15
-109 102 -312 192 -449 25 -38 44 -71 42 -72 -5 -6 -134 111 -180 163 -133
151 -229 358 -252 546 -5 41 -11 57 -23 57 -12 0 -14 -10 -8 -64 26 -260 174
-519 401 -704 35 -28 37 -31 12 -22 -131 47 -325 208 -409 340 -80 125 -127
263 -143 420 -12 113 -35 108 -54 -10 -14 -87 -64 -196 -116 -255 l-36 -40 17
34 c102 211 106 489 9 708 -34 75 -113 193 -131 193 -21 0 -17 -17 17 -66 155
-226 192 -517 96 -764 l-26 -65 -1 110 c-1 61 -3 119 -5 130 -2 11 -7 36 -10
55 -10 60 -16 70 -36 70 -13 0 -19 -7 -19 -24 0 -48 -52 -202 -101 -297 -46
-90 -176 -285 -185 -277 -1 2 8 35 23 73 36 99 92 324 85 347 -8 31 -19 8 -36
-77 -9 -44 -31 -125 -49 -180 l-32 -100 -2 65 c-2 36 -8 106 -13 157 -11 92
-11 92 25 205 34 103 86 320 84 351 0 6 -15 -37 -34 -98 -77 -257 -164 -456
-261 -601 -64 -94 -220 -273 -274 -313 l-35 -26 20 30 c110 170 192 344 230
491 28 108 46 292 27 280 -7 -4 -12 -23 -12 -43 0 -105 -66 -330 -145 -496
-40 -83 -190 -337 -200 -337 -9 0 -86 256 -101 336 -39 217 -24 464 42 677 3
11 0 17 -10 17 -18 0 -59 -127 -76 -235 -14 -88 -13 -318 1 -420 12 -92 50
-228 84 -305 l25 -55 -30 34 c-72 84 -158 308 -220 574 -18 76 -36 135 -41
130 -11 -11 24 -234 51 -330 25 -91 74 -215 107 -273 l26 -45 -27 25 c-42 38
-142 192 -201 310 -105 209 -154 433 -156 710 -1 172 -17 145 -23 -40 -5 -147
7 -255 45 -405 17 -66 31 -127 30 -135 0 -133 41 -473 69 -569 l9 -34 -23 22
c-45 43 -136 178 -185 277 -140 283 -174 576 -105 914 4 19 4 32 0 29 -4 -4
-48 -89 -99 -190 -106 -210 -210 -379 -347 -561 -101 -134 -258 -318 -271
-318 -9 0 -29 65 -29 97 0 12 -4 24 -9 28 -6 3 -56 -26 -113 -64 -104 -70
-319 -194 -325 -187 -6 6 93 170 190 316 182 273 322 444 566 692 162 165 202
217 134 173 -42 -27 -288 -277 -374 -380 -215 -257 -318 -407 -508 -735 l-32
-55 7 45 c20 139 89 309 178 438 78 116 63 135 -45 55 -84 -61 -187 -161 -257
-248 -73 -91 -80 -98 -52 -50 93 160 186 286 308 419 65 71 86 106 64 106 -10
0 -106 -100 -173 -180 -30 -36 -86 -112 -124 -170 -38 -58 -73 -109 -77 -115
-19 -21 95 254 128 311 79 135 643 594 1022 833 196 123 195 123 90 20 -54
-52 -98 -101 -98 -108 0 -8 42 26 93 75 128 124 214 186 342 249 159 78 171
79 108 14 -58 -61 -133 -165 -133 -186 0 -26 18 -12 58 45 41 58 177 196 222
225 34 21 144 50 132 34 -5 -7 -30 -38 -55 -70 -58 -72 -130 -220 -152 -312
-19 -82 -17 -160 4 -160 11 0 18 22 26 80 20 137 53 219 136 340 85 123 125
152 215 154 27 1 46 -5 57 -17z m-857 -845 c-11 -82 -8 -284 4 -366 39 -271
146 -497 337 -718 56 -64 83 -78 83 -43 0 10 -11 64 -25 118 -28 109 -51 254
-60 371 l-7 76 42 -75 c99 -179 228 -338 304 -377 17 -8 38 -22 47 -29 24 -21
52 -7 150 79 151 132 307 322 381 465 l33 62 7 -47 c11 -84 8 -216 -7 -288 -8
-38 -15 -76 -15 -82 0 -51 105 57 212 216 73 109 123 203 153 286 10 28 22 54
27 60 14 16 9 -183 -8 -262 -19 -95 -11 -107 47 -68 63 44 135 131 171 206
l32 67 26 -86 c91 -302 301 -515 628 -638 65 -25 122 -31 122 -14 0 6 -21 36
-47 68 -61 75 -142 200 -186 287 -40 82 -91 219 -86 234 6 16 223 -171 349
-298 58 -58 121 -131 141 -161 37 -56 100 -233 135 -383 17 -76 17 -83 0 -205
-61 -440 -246 -1182 -387 -1561 -114 -304 -188 -420 -396 -622 -435 -419
-1027 -739 -1463 -791 -91 -11 -100 -10 -190 16 -182 51 -550 249 -917 493
-422 280 -602 444 -744 679 -229 379 -396 1111 -425 1865 l-6 166 57 189 c52
173 61 196 113 269 51 72 308 343 316 334 2 -2 -20 -53 -50 -114 -60 -123
-100 -262 -105 -370 -3 -56 -1 -70 11 -72 18 -4 262 128 373 202 80 53 82 54
91 32 45 -117 53 -119 128 -36 192 211 410 532 544 802 32 64 60 117 62 117 3
0 1 -24 -2 -53z m-1566 -1627 c10 -162 44 -479 56 -525 3 -12 -10 -2 -33 25
-44 53 -72 81 -132 134 l-44 39 69 253 c38 139 70 252 71 251 1 -2 7 -81 13
-177z m4655 -185 l24 -139 -86 -91 c-48 -49 -93 -97 -101 -105 -12 -13 -12
-13 -8 0 7 19 78 370 102 505 l17 100 14 -65 c7 -36 24 -128 38 -205z m-4705
-286 l29 -36 -20 -53 c-51 -135 -60 -277 -24 -381 18 -52 79 -129 102 -129 10
0 3 13 -20 41 -50 58 -71 143 -64 256 5 85 40 223 56 223 22 0 66 -128 107
-308 47 -209 101 -405 141 -511 13 -35 22 -66 19 -68 -7 -7 -72 15 -127 43
-121 60 -311 234 -390 357 -70 108 -70 105 -4 359 32 123 65 245 72 272 l15
49 40 -39 c22 -22 53 -55 68 -75z m4740 92 c0 -21 83 -475 101 -553 l20 -87
-36 -70 c-70 -132 -229 -274 -355 -316 -48 -16 -160 -18 -175 -4 -3 3 9 46 25
95 40 117 100 324 146 504 34 136 70 226 101 251 16 14 27 -13 50 -128 27
-138 1 -264 -72 -352 -39 -46 -5 -41 35 6 66 75 90 170 78 309 -4 44 -17 112
-30 150 l-23 69 58 68 c55 62 77 79 77 58z m-4944 -708 c30 -39 30 -40 -1
-125 -72 -200 -74 -477 -5 -688 41 -126 77 -193 207 -383 133 -195 182 -293
255 -509 49 -147 68 -185 68 -139 0 29 -66 251 -101 339 -41 104 -82 175 -205
358 -115 171 -139 215 -177 321 -73 202 -82 443 -26 653 29 111 31 112 80 64
l41 -41 -13 -83 c-15 -107 -6 -248 22 -334 21 -65 47 -93 36 -38 -4 15 -13 59
-21 97 -15 69 -21 269 -10 312 6 21 10 20 68 -31 l61 -54 34 -139 c44 -179 72
-270 132 -424 49 -126 100 -219 119 -219 19 0 10 31 -40 129 -57 114 -113 271
-165 463 -20 73 -38 140 -41 149 -4 13 14 8 73 -22 43 -21 97 -41 119 -45 l42
-6 57 -116 c133 -273 290 -446 616 -680 72 -51 90 -70 107 -109 38 -90 53
-167 59 -310 6 -140 14 -175 27 -112 18 91 -3 285 -42 386 -23 62 -29 63 98
-24 l85 -58 17 -80 c26 -126 48 -290 53 -412 l5 -113 -62 0 c-125 0 -307 -52
-389 -111 -17 -12 -32 -19 -34 -17 -3 2 1 22 7 44 6 21 11 89 11 149 -1 229
-80 411 -321 744 -59 81 -120 171 -137 199 -29 50 -55 67 -55 37 0 -32 70
-144 200 -320 138 -186 219 -346 256 -503 21 -90 22 -240 1 -322 -18 -68 -74
-190 -129 -277 l-33 -52 0 172 c-1 354 -73 564 -333 984 -108 173 -173 296
-216 408 -31 83 -42 102 -53 92 -14 -14 27 -141 81 -252 30 -60 98 -180 152
-265 181 -290 263 -471 310 -690 15 -66 19 -126 18 -275 -1 -172 -3 -199 -27
-288 -32 -121 -85 -221 -158 -301 l-57 -61 48 98 c81 164 112 309 112 514 -1
147 -20 269 -58 372 -44 116 -65 114 -29 -3 61 -198 72 -460 26 -643 -20 -78
-80 -248 -86 -241 -1 2 -5 51 -8 110 -8 129 -37 277 -78 395 -34 96 -87 203
-100 203 -15 0 -10 -19 22 -93 45 -103 85 -224 104 -318 21 -100 35 -287 24
-314 -6 -17 -8 -15 -8 10 -1 40 -35 180 -68 280 -34 106 -110 266 -165 351
-49 76 -128 168 -136 160 -2 -3 22 -47 55 -98 82 -127 116 -188 110 -194 -7
-7 -120 50 -177 90 -67 46 -207 183 -255 251 -154 216 -221 492 -193 805 l7
75 -16 -55 c-12 -40 -16 -102 -17 -225 -1 -155 2 -178 26 -266 52 -185 132
-330 262 -467 50 -54 59 -67 31 -45 -157 124 -296 334 -374 568 -35 102 -41
86 -12 -28 48 -185 149 -357 294 -501 l91 -90 -59 33 c-217 121 -355 285 -416
491 -33 115 -38 354 -10 520 16 94 283 1173 317 1284 5 15 10 9 26 -25 10 -24
30 -58 44 -76z m5146 -195 l53 -166 -38 -82 c-85 -185 -92 -230 -102 -685 -10
-492 -70 -589 -665 -1085 -135 -112 -282 -241 -328 -287 -91 -91 -94 -87 -33
42 48 99 127 205 272 360 61 66 137 154 169 195 53 70 116 177 108 185 -2 2
-30 -33 -63 -77 -33 -45 -105 -129 -160 -187 -55 -59 -125 -134 -156 -168
l-56 -61 -49 40 c-27 21 -67 48 -88 59 l-39 21 7 81 c17 228 94 478 213 692
30 55 112 188 182 295 70 107 144 223 165 257 73 122 133 270 160 395 5 19 19
34 47 49 23 11 43 18 47 15 11 -11 19 -100 16 -175 -6 -146 -79 -335 -192
-504 -29 -42 -96 -132 -150 -199 -243 -306 -331 -443 -375 -583 -26 -86 -29
-105 -13 -105 8 0 24 31 41 78 58 165 137 290 341 547 284 357 376 550 376
790 -1 55 -5 116 -11 135 -10 31 -9 37 11 53 13 10 45 36 71 58 27 23 50 39
52 37 17 -17 44 -221 44 -342 1 -90 20 -76 28 20 5 73 -7 183 -33 293 l-16 66
49 73 c38 57 49 69 55 55 3 -10 30 -93 60 -185z m-519 -167 c28 5 52 7 53 6 2
-1 -15 -49 -37 -106 -49 -130 -105 -236 -228 -424 -53 -82 -124 -192 -159
-245 -132 -204 -212 -377 -262 -567 -30 -112 -57 -260 -62 -328 -2 -34 -5 -38
-25 -32 -68 17 -70 19 -78 94 -18 183 22 405 121 664 19 49 33 92 30 94 -2 2
-24 -38 -49 -89 -93 -191 -139 -398 -136 -606 1 -62 0 -115 -2 -116 -2 -2 -33
2 -69 10 -36 7 -91 14 -122 14 l-58 0 0 103 c0 56 3 180 7 275 l6 172 99 70
c55 39 101 70 103 70 2 0 -3 -21 -11 -47 -33 -106 -56 -245 -61 -370 -4 -89
-3 -133 4 -133 15 0 23 35 23 100 0 137 51 400 91 469 11 20 57 65 101 101
109 88 273 252 337 336 56 75 160 277 211 415 l32 85 45 -11 c29 -7 64 -9 96
-4z m670 -266 c0 -11 -8 -63 -18 -115 -18 -101 -17 -204 5 -485 24 -286 -19
-453 -159 -628 -56 -69 -121 -124 -216 -183 -26 -16 -23 -11 15 31 63 69 106
134 145 218 66 145 76 247 46 473 -14 111 -21 215 -21 335 0 243 18 349 92
548 l21 54 45 -114 c24 -63 45 -123 45 -134z m125 -277 c125 -284 144 -388
102 -552 -38 -151 -107 -238 -280 -356 l-95 -64 33 41 c44 57 97 164 118 243
13 48 18 105 18 220 1 148 -9 361 -20 425 -9 51 18 269 31 253 1 -2 43 -96 93
-210z m239 -505 l13 -33 -76 -80 c-42 -44 -80 -80 -85 -80 -4 0 -1 17 8 38 35
83 45 139 45 242 l1 105 40 -80 c22 -44 46 -95 54 -112z m-563 -140 c-9 -167
-93 -338 -245 -498 -53 -56 -107 -96 -236 -177 -93 -58 -262 -165 -378 -237
-202 -127 -208 -131 -160 -81 66 69 242 223 445 390 361 296 496 465 547 686
l18 78 6 -44 c4 -25 5 -77 3 -117z m-3284 -21 c159 -94 402 -212 505 -247 114
-37 187 -41 330 -17 132 23 285 71 428 133 107 47 299 147 375 195 29 19 55
34 57 34 3 0 4 -161 3 -357 -3 -354 -3 -359 20 -415 13 -31 37 -69 53 -83 43
-36 52 -31 15 9 -18 18 -37 51 -44 72 -16 55 -26 154 -16 154 5 0 52 -14 104
-31 185 -60 233 -102 231 -207 -2 -170 -209 -387 -532 -555 -144 -76 -236
-110 -439 -162 -122 -32 -191 -55 -229 -78 -84 -51 -149 -141 -192 -270 l-22
-68 -31 93 c-18 52 -44 115 -59 141 -52 88 -166 152 -467 262 -459 169 -596
250 -670 398 -68 136 -26 232 136 304 122 56 238 102 243 98 9 -10 -30 -151
-64 -229 -33 -76 -33 -78 -9 -55 36 34 89 151 111 244 27 120 25 426 -5 590
-12 66 -25 131 -28 144 l-7 25 39 -25 c21 -13 95 -57 164 -97z m1852 -462
c185 -36 325 -94 411 -170 l41 -37 -51 -76 c-67 -99 -102 -174 -128 -272 l-22
-80 -74 -50 c-292 -197 -429 -305 -628 -500 -204 -199 -351 -381 -482 -597
-53 -88 -57 -88 -34 6 51 201 117 358 211 498 36 54 64 103 62 109 -6 18 -97
-86 -147 -170 -82 -135 -150 -334 -185 -536 -10 -55 -22 -119 -28 -142 -11
-43 -11 -43 -57 -43 l-46 0 0 153 c-1 83 -7 202 -14 262 -11 103 -11 115 9
190 42 165 121 287 213 333 25 12 120 42 213 66 172 45 276 82 387 137 407
205 646 475 597 678 -24 101 -102 147 -335 198 -34 7 -40 13 -41 36 -1 32 -3
32 128 7z m-2036 -26 c-3 -9 -6 -28 -6 -43 0 -32 -11 -38 -171 -95 -165 -59
-227 -96 -266 -163 -52 -88 -22 -220 74 -323 106 -115 227 -179 593 -315 356
-132 441 -182 494 -291 35 -72 80 -247 100 -393 21 -148 22 -411 2 -411 -8 0
-18 9 -21 21 -4 11 -26 49 -50 84 -24 35 -42 65 -40 67 9 9 -57 305 -82 367
-51 128 -183 315 -205 293 -7 -7 6 -32 41 -79 94 -124 163 -298 185 -468 7
-59 17 -67 -121 100 -340 410 -783 852 -1023 1020 -41 28 -105 70 -142 91 -65
37 -68 40 -62 69 4 17 25 50 48 75 38 41 114 159 129 202 9 25 105 98 163 124
66 29 116 43 239 64 129 23 128 23 121 4z m4499 -831 c17 -36 17 -44 1 -198
-60 -553 -154 -1215 -256 -1790 -21 -121 -51 -294 -65 -385 -15 -91 -53 -316
-86 -500 -32 -184 -59 -347 -59 -362 0 -16 -5 -28 -11 -28 -20 0 -131 72 -202
132 -38 32 -81 61 -94 64 -29 8 -31 -10 26 204 44 170 103 454 122 593 7 49
17 90 23 92 103 27 153 62 204 142 45 71 64 138 64 224 0 92 -22 149 -75 196
-35 30 -90 53 -131 53 -17 0 -18 6 -11 68 4 37 8 67 8 67 1 0 34 22 74 48 90
61 182 158 218 231 67 138 26 325 -71 328 -39 1 -93 -31 -135 -80 l-31 -37 6
35 c17 106 27 322 24 527 l-3 232 135 69 c74 38 162 85 194 105 55 33 61 35
86 22 15 -8 35 -31 45 -52z m-7193 -72 c62 -32 161 -78 221 -101 97 -39 107
-45 108 -69 1 -14 3 -35 4 -46 1 -11 5 -101 9 -200 4 -99 9 -200 11 -225 2
-25 7 -92 10 -150 20 -373 79 -1033 115 -1285 72 -502 130 -804 218 -1146 l48
-186 -22 -29 c-13 -15 -25 -26 -28 -23 -10 10 -138 315 -194 466 -76 201 -176
505 -246 750 -84 291 -135 497 -226 923 -42 195 -119 683 -135 855 -4 39 -8
80 -10 92 -23 148 -28 393 -9 424 7 13 0 15 126 -50z m7502 -204 c49 -34 138
-108 197 -165 l109 -104 -41 -30 c-106 -77 -303 -308 -441 -518 -75 -113 -139
-232 -262 -490 -13 -28 -16 -30 -11 -9 2 15 9 55 14 90 5 35 17 111 26 169 33
213 94 682 120 915 14 132 28 250 31 263 4 22 5 22 87 -19 45 -23 122 -69 171
-102z m-799 103 c11 -17 7 -447 -4 -552 -6 -53 -13 -120 -16 -150 -11 -105
-12 -105 -48 -51 -59 87 -131 116 -181 71 -101 -92 -100 -287 4 -444 37 -58
106 -130 143 -150 13 -8 15 -20 10 -66 -6 -57 -6 -57 -44 -63 -83 -14 -159
-88 -201 -196 -28 -74 -29 -205 -1 -269 27 -61 92 -118 143 -126 37 -6 40 -9
40 -38 0 -94 -70 -425 -171 -808 -8 -30 -15 -38 -32 -38 -12 0 -37 -9 -56 -21
-32 -19 -34 -19 -52 -3 -11 10 -48 60 -83 111 -58 85 -63 97 -56 126 12 47 19
122 26 312 3 94 7 184 9 201 27 238 26 1686 -1 1904 l-5 45 163 59 c90 32 213
80 273 106 119 52 131 55 140 40z m-6854 -365 c50 -453 142 -958 258 -1418 27
-105 47 -193 46 -194 -1 -2 -28 41 -60 95 -122 205 -340 519 -484 699 -145
182 -391 424 -510 503 l-23 15 62 85 c86 117 285 312 398 389 52 35 135 85
185 112 l92 48 8 -77 c4 -42 17 -158 28 -257z m808 219 c85 -24 157 -47 161
-49 4 -3 8 -139 9 -302 1 -164 3 -325 5 -358 3 -33 7 -170 11 -305 3 -135 8
-265 10 -290 2 -25 7 -166 10 -315 4 -148 9 -272 10 -275 2 -3 6 -178 9 -390
3 -212 9 -454 12 -537 l6 -153 -64 -80 c-35 -44 -66 -80 -69 -80 -8 0 -100
376 -138 560 -73 359 -134 768 -176 1195 -10 104 -44 514 -50 605 -3 52 -7
115 -10 140 -2 25 -7 106 -10 180 -3 74 -8 151 -10 170 -2 19 -7 105 -11 190
-3 85 -8 158 -11 163 -13 23 15 23 80 1 39 -14 141 -45 226 -70z m274 -77 c27
-6 52 -18 56 -26 5 -9 11 -68 15 -131 3 -63 13 -196 21 -295 32 -381 38 -1006
14 -1420 -15 -256 -51 -679 -64 -745 -3 -14 -6 -62 -7 -107 -1 -61 -6 -88 -20
-105 -17 -22 -18 -14 -20 267 -1 160 -2 313 -3 340 -1 28 -5 181 -9 340 -4
160 -9 310 -11 335 -2 25 -6 142 -10 260 -3 118 -8 247 -10 285 -2 39 -7 153
-10 255 -3 102 -8 235 -10 295 -19 467 -19 479 1 471 11 -4 41 -12 67 -19z
m5168 -169 c11 -471 1 -1608 -16 -1763 -2 -22 -7 -103 -10 -180 -6 -150 -16
-288 -21 -293 -1 -2 -33 58 -69 135 -55 113 -66 144 -62 173 3 19 12 81 21
137 28 180 60 517 76 798 7 129 4 838 -4 895 -2 14 -7 73 -11 131 l-7 106 39
15 c21 9 43 16 49 17 7 1 12 -56 15 -171z m-4871 83 c91 -27 273 -90 405 -139
343 -129 721 -261 1258 -440 260 -86 462 -159 456 -163 -9 -5 -10 -40 -5 -136
17 -319 25 -348 97 -359 l41 -7 -6 -71 c-4 -39 -7 -132 -7 -206 -1 -74 -3
-138 -6 -143 -9 -15 -120 77 -203 170 -166 187 -354 356 -426 383 -41 16 -132
14 -181 -4 -42 -15 -44 -14 -117 20 -101 46 -189 68 -249 61 -56 -7 -127 -40
-159 -74 -15 -16 -33 -23 -57 -23 -20 0 -50 -8 -66 -19 -36 -21 -147 -173
-342 -466 -224 -338 -307 -468 -542 -854 -57 -94 -105 -171 -108 -171 -2 0 -2
8 1 18 6 20 42 365 52 492 3 47 7 96 9 109 2 13 7 96 10 185 7 196 9 206 47
320 35 105 79 197 149 307 52 83 54 89 40 89 -27 0 -143 -190 -192 -313 l-28
-72 1 175 c1 157 4 186 29 280 37 141 71 234 134 366 49 103 170 292 250 392
60 75 41 87 -26 17 -123 -129 -282 -409 -350 -615 l-34 -105 -6 135 c-4 74
-10 198 -14 275 -3 77 -8 160 -10 185 -3 25 -9 104 -15 175 -6 72 -15 157 -20
190 -14 86 -13 97 8 91 9 -3 91 -28 182 -55z m4741 -3 c1 -24 3 -54 5 -68 2
-14 6 -182 9 -375 l6 -350 -34 85 c-54 132 -125 251 -205 340 -66 74 -58 38
16 -72 88 -129 151 -255 191 -381 33 -104 34 -129 15 -376 l-6 -74 -32 58
c-37 70 -114 151 -176 187 -98 56 -126 43 -31 -15 73 -45 170 -149 201 -213
13 -27 27 -51 31 -54 12 -8 -18 -299 -65 -625 -2 -16 -5 -34 -5 -40 -1 -5 -35
49 -77 120 -146 251 -490 749 -540 782 -14 9 -42 16 -63 15 -29 -1 -43 4 -62
24 -40 44 -116 74 -186 74 -68 0 -120 -15 -228 -64 -67 -31 -72 -32 -115 -19
-61 19 -139 18 -185 -1 -21 -9 -70 -42 -109 -73 -81 -66 -349 -333 -372 -372
-12 -20 -132 -114 -164 -129 -3 -1 -11 69 -18 155 -7 87 -15 175 -18 196 -5
30 -4 37 9 37 9 0 29 11 44 24 l28 24 3 154 c2 93 -2 182 -10 228 l-13 75 195
66 c216 74 440 154 1330 478 333 121 611 221 618 221 7 0 12 -16 13 -42z
m1932 -186 c30 -42 80 -124 110 -182 127 -241 171 -401 246 -906 58 -389 96
-559 171 -779 132 -381 280 -647 569 -1018 201 -258 275 -393 311 -567 31
-148 22 -395 -21 -633 -10 -57 -9 -60 40 -175 165 -390 197 -606 132 -917 -87
-424 -164 -632 -303 -817 -187 -248 -446 -364 -828 -373 -180 -4 -277 5 -450
41 -533 110 -956 388 -1161 761 -19 34 -31 64 -28 67 3 3 45 -10 94 -29 121
-48 297 -107 302 -101 5 5 -262 140 -370 186 -46 20 -99 53 -131 82 -32 28
-85 61 -126 79 -207 88 -401 248 -498 410 -31 51 -59 137 -67 203 l-7 55 33
-9 c19 -6 70 -10 114 -10 184 1 382 121 593 360 248 282 402 613 453 969 17
123 7 379 -19 454 l-19 58 27 23 c72 60 190 59 315 -3 111 -56 195 -122 370
-292 133 -129 161 -151 245 -194 86 -44 108 -61 230 -186 74 -75 176 -169 225
-209 298 -239 504 -462 617 -667 22 -40 41 -73 43 -73 10 0 -22 86 -61 167
-72 149 -199 304 -381 464 -59 52 -123 108 -142 126 l-36 31 30 -5 c175 -30
337 -119 543 -298 60 -53 92 -68 92 -44 0 34 -250 238 -362 295 -80 41 -194
74 -275 80 l-78 6 -155 157 c-141 142 -164 160 -250 205 -79 41 -116 69 -219
168 -260 249 -424 353 -576 365 -73 6 -127 -7 -187 -47 l-46 -30 -116 61 c-64
33 -118 65 -122 70 -7 12 103 147 198 240 115 114 243 206 417 301 39 22 42
43 4 33 -46 -11 -186 -91 -275 -157 -97 -71 -221 -190 -280 -265 -22 -30 -42
-52 -44 -50 -6 5 51 203 80 277 118 311 303 564 574 787 98 81 117 103 90 103
-17 0 -168 -113 -242 -181 -162 -148 -330 -392 -433 -629 -28 -65 -28 -65 12
170 15 85 53 308 85 495 66 390 88 463 230 750 129 263 257 446 493 706 151
167 132 164 220 41z m-8709 -291 c234 -208 453 -477 721 -886 302 -462 266
-394 339 -635 124 -411 241 -728 402 -1086 3 -6 -41 -55 -98 -107 -131 -123
-331 -283 -335 -270 -7 20 26 152 51 206 30 62 32 77 11 77 -8 0 -29 -32 -49
-73 l-36 -73 -87 -34 c-49 -19 -185 -83 -303 -142 -118 -59 -215 -106 -217
-105 -6 6 46 104 63 118 22 19 57 38 274 145 85 42 197 105 248 141 117 81
172 106 238 106 54 0 116 -28 128 -58 8 -23 36 -18 36 6 0 60 -121 111 -214
90 -50 -11 -73 -24 -192 -107 -68 -47 -187 -114 -203 -114 -22 0 -162 333
-209 500 -43 152 -50 182 -77 315 -21 106 -24 114 -24 67 -1 -77 27 -260 60
-389 35 -139 86 -277 150 -408 27 -55 49 -103 49 -106 0 -20 -74 -29 -255 -33
-316 -7 -544 -47 -712 -126 -103 -48 -154 -83 -222 -153 -51 -52 -56 -55 -128
-67 -142 -23 -249 -68 -399 -169 -92 -62 -256 -204 -296 -256 l-23 -30 35 28
c201 162 327 250 425 299 61 31 185 74 240 84 l40 7 -30 -33 c-16 -17 -91 -82
-165 -143 -334 -274 -487 -443 -594 -654 -49 -98 -46 -106 5 -13 22 41 66 109
96 150 82 110 307 329 478 465 83 66 213 181 291 256 128 125 148 141 237 183
53 26 132 56 174 66 111 29 356 60 518 66 l140 5 -64 -35 c-117 -65 -140 -100
-191 -299 -121 -466 -43 -956 215 -1352 164 -253 342 -375 530 -363 124 8 158
31 387 262 l199 201 -6 -55 c-9 -85 -14 -109 -42 -191 -51 -153 -163 -276
-313 -345 -41 -19 -115 -55 -163 -80 -97 -50 -701 -311 -783 -338 -28 -9 -80
-23 -115 -31 l-64 -15 80 5 c112 6 184 29 478 150 143 59 261 104 264 101 3
-2 -19 -39 -48 -82 -156 -225 -389 -399 -682 -508 -448 -167 -1030 -163 -1400
9 -345 160 -544 445 -643 920 -29 140 -26 330 9 462 34 130 96 299 159 433
l50 105 -17 166 c-21 198 -17 416 10 529 42 178 109 294 326 565 331 413 510
728 649 1146 56 168 91 317 151 644 74 410 124 602 200 773 46 104 112 213
125 210 7 -2 60 -45 118 -97z m7720 59 c16 -26 21 -52 20 -101 -1 -125 -78
-235 -243 -348 -85 -58 -87 -58 -161 31 -84 103 -120 221 -101 329 11 66 48
119 82 119 50 0 128 -119 132 -201 3 -67 29 -64 50 5 31 96 133 211 181 204
11 -2 29 -19 40 -38z m-3137 -354 c4 -4 9 -92 11 -195 l4 -189 -24 -16 c-21
-14 -51 -16 -189 -14 l-164 3 -7 40 c-4 22 -14 110 -24 195 -9 85 -19 160 -21
167 -3 7 9 13 34 16 62 7 372 1 380 -7z m1283 -253 c30 -16 55 -32 57 -38 1
-5 -46 -30 -105 -54 -299 -122 -954 -479 -1185 -645 -61 -44 -85 -56 -115 -56
-20 0 -44 5 -52 10 -12 7 -11 13 10 36 98 105 703 509 1003 669 204 109 292
126 387 78z m-2585 -88 c283 -117 1175 -709 1132 -751 -3 -4 -24 -10 -46 -14
-38 -7 -45 -3 -158 74 -248 170 -901 520 -1157 621 l-99 39 29 23 c76 61 166
63 299 8z m2123 37 c9 -6 -29 -33 -115 -85 -70 -41 -189 -114 -263 -161 l-135
-86 142 139 c166 163 222 201 303 201 30 0 61 -4 68 -8z m669 -55 c80 -92 340
-465 460 -662 86 -141 115 -194 224 -415 111 -226 213 -373 378 -542 l94 -98
-6 -77 c-17 -207 -120 -475 -267 -690 l-67 -98 -194 0 c-376 0 -519 56 -919
358 -224 170 -410 238 -685 252 -158 7 -200 0 -359 -64 -128 -52 -184 -67
-202 -54 -38 27 -44 105 -13 170 81 167 392 290 966 384 232 37 290 65 349
165 68 115 30 361 -108 714 -33 85 -64 160 -69 165 -4 6 23 30 68 60 l75 49
21 -30 c37 -51 140 -155 186 -186 l43 -31 -7 -51 c-13 -95 -13 -340 1 -468 33
-317 133 -606 290 -843 61 -93 141 -189 160 -193 23 -6 17 6 -44 88 -199 264
-325 589 -359 927 -10 102 -10 363 0 479 l8 91 -49 32 c-57 36 -153 135 -201
204 l-33 48 -31 -19 c-18 -11 -97 -61 -177 -111 -251 -160 -503 -272 -676
-302 -75 -13 -238 -7 -298 11 l-40 12 25 19 c222 178 1046 623 1344 727 55 19
81 14 112 -21z m1449 -8 c154 -49 130 -359 -37 -475 -37 -25 -51 -29 -113 -29
-58 0 -77 4 -104 23 -122 87 -102 355 34 458 52 40 140 50 220 23z m-3877 -19
c41 -20 210 -170 301 -266 40 -41 47 -52 25 -39 -205 130 -373 234 -432 267
-82 47 -80 58 10 58 38 0 71 -7 96 -20z m-624 -65 c335 -135 1158 -587 1233
-678 16 -18 11 -21 -53 -35 -79 -18 -141 -21 -218 -11 -223 29 -443 124 -773
335 -73 46 -136 84 -141 84 -5 0 -30 -29 -56 -64 -56 -75 -156 -171 -204 -194
l-34 -16 8 -101 c21 -260 3 -546 -49 -770 -60 -261 -196 -549 -344 -732 -19
-23 -34 -47 -34 -53 0 -58 181 182 268 356 145 289 212 594 213 957 0 98 -3
208 -6 245 l-6 67 41 25 c41 25 141 123 190 187 l25 33 70 -46 c39 -25 70 -48
70 -52 0 -4 -24 -63 -53 -131 -144 -337 -199 -580 -162 -713 25 -88 128 -171
243 -196 28 -7 117 -19 197 -27 495 -52 865 -165 940 -287 28 -45 27 -126 -1
-162 -28 -35 -67 -34 -199 5 -117 35 -207 41 -395 28 -148 -11 -283 -35 -385
-71 -173 -61 -252 -112 -420 -272 -176 -167 -242 -220 -334 -265 -115 -57
-224 -81 -372 -81 l-120 0 -70 -42 c-211 -126 -491 -412 -618 -630 -15 -27
-31 -48 -36 -48 -4 0 -34 28 -66 62 -198 215 -328 548 -340 873 l-5 140 67 45
c311 206 586 504 828 895 56 90 143 232 194 315 88 142 172 272 397 615 129
196 292 422 318 441 30 21 82 13 192 -31z m1496 -51 c9 -51 17 -144 25 -275
l6 -105 -65 -52 c-36 -29 -67 -58 -69 -64 -3 -8 -23 3 -51 26 l-47 38 0 158
c0 86 3 191 6 233 l7 76 71 3 c112 5 110 6 117 -38z m1157 -484 c127 -336 172
-552 140 -678 -13 -53 -78 -125 -133 -148 -19 -8 -119 -28 -222 -44 -333 -54
-566 -115 -729 -190 l-81 -37 -7 146 c-4 80 -9 166 -11 191 -3 25 -12 124 -20
220 -8 96 -17 193 -20 215 -21 200 -28 184 70 160 121 -29 295 -12 461 45 102
36 314 137 424 203 50 30 77 41 82 33 3 -6 24 -58 46 -116z m-2290 -18 c331
-190 620 -260 850 -207 l32 8 0 -134 c0 -74 -3 -279 -7 -457 -6 -290 -8 -322
-22 -316 -169 74 -483 143 -771 169 -160 14 -227 29 -300 65 -65 33 -82 50
-109 110 -54 119 -12 307 177 797 9 23 18 40 21 38 3 -1 61 -35 129 -73z
m1147 -97 c2 -5 6 -48 9 -95 3 -47 17 -209 30 -360 14 -151 28 -337 32 -413
l7 -139 -51 -44 c-31 -27 -62 -68 -80 -104 -28 -56 -30 -57 -35 -31 -8 36 -48
84 -104 122 l-44 31 7 471 c7 526 3 500 77 512 50 8 87 30 87 50 0 18 60 18
65 0z m2703 -762 c13 -8 40 -29 60 -47 62 -55 155 -113 308 -193 162 -84 208
-118 223 -166 14 -45 24 -117 16 -117 -32 0 -560 340 -576 370 -4 8 -13 34
-20 58 -12 43 -34 70 -46 58 -3 -3 -1 -25 6 -48 7 -24 14 -52 17 -63 3 -11
-23 10 -60 50 -36 39 -66 75 -66 81 0 18 62 44 90 37 14 -3 35 -12 48 -20z
m346 -412 c75 -47 166 -101 203 -121 l68 -37 3 -88 c2 -49 -1 -92 -5 -96 -17
-15 -406 180 -546 274 -55 37 -59 41 -53 71 3 17 9 72 12 122 l7 91 88 -66
c49 -36 149 -104 223 -150z m-273 -100 c76 -60 207 -133 384 -216 83 -38 152
-70 154 -72 2 -2 -1 -41 -8 -88 -9 -57 -17 -85 -26 -85 -40 0 -557 236 -618
282 -18 13 -17 18 15 121 18 59 35 106 38 104 3 -1 30 -22 61 -46z m-2096 -12
c199 -26 364 -105 616 -295 200 -151 321 -216 478 -258 136 -37 265 -50 420
-43 l136 6 -110 -107 c-119 -116 -210 -182 -349 -252 -49 -25 -91 -50 -93 -56
-7 -20 27 -24 64 -9 19 8 39 15 44 15 5 0 23 -28 40 -62 76 -151 232 -347 370
-466 49 -41 86 -79 83 -84 -3 -4 -38 -8 -78 -8 -61 0 -82 5 -135 31 -53 26
-74 46 -139 128 -42 53 -110 134 -150 181 -47 55 -90 118 -120 179 -45 91 -47
96 -47 185 0 107 20 162 98 265 26 35 46 66 43 68 -20 20 -103 -79 -150 -177
-28 -59 -31 -74 -31 -160 1 -79 5 -106 26 -156 32 -76 100 -178 180 -269 33
-38 85 -102 114 -141 30 -40 71 -86 93 -104 39 -31 40 -33 41 -98 4 -253 233
-523 569 -668 79 -34 192 -117 192 -141 0 -28 61 -146 122 -235 70 -103 187
-226 293 -310 l70 -55 14 -99 c30 -231 98 -440 335 -1036 184 -464 209 -537
227 -657 22 -152 -5 -415 -54 -520 -34 -74 -147 -179 -252 -233 -246 -126
-520 -184 -1050 -223 -44 -3 -100 -8 -125 -10 -25 -2 -83 -7 -130 -10 -47 -3
-114 -8 -150 -10 -36 -3 -110 -7 -165 -10 -55 -3 -129 -8 -165 -10 -36 -3
-155 -9 -265 -15 -110 -5 -240 -12 -290 -15 -49 -2 -160 -7 -245 -10 -85 -3
-182 -8 -215 -10 -103 -7 -504 -19 -639 -20 l-129 0 3 130 c1 72 3 142 4 158
2 15 3 83 4 151 l2 124 38 -1 c50 0 383 13 452 18 30 3 141 9 245 15 105 6
219 13 255 15 36 3 144 10 240 15 96 6 198 12 225 15 28 2 95 7 150 10 55 3
123 8 150 10 28 3 91 7 140 10 50 3 110 7 135 10 25 2 88 7 140 10 247 16 690
52 695 57 4 3 1 32 -4 65 -6 32 -15 175 -21 318 -5 143 -14 280 -20 304 -27
110 -148 307 -460 746 -343 483 -426 631 -534 943 -68 198 -114 290 -178 359
-61 64 -131 99 -218 110 -36 4 -352 8 -702 8 l-638 0 0 135 0 135 128 61 c228
110 491 303 683 500 144 150 252 289 211 272 -5 -1 -43 -43 -84 -93 -162 -194
-394 -398 -605 -531 -77 -49 -313 -174 -328 -174 -3 0 -4 190 -3 422 l3 422
60 24 c110 43 399 190 502 256 56 35 146 97 200 137 106 80 293 256 293 277 0
27 -32 8 -117 -69 -161 -148 -298 -254 -453 -349 -131 -81 -474 -250 -485
-239 -2 2 -6 103 -9 224 -11 414 -25 784 -32 843 l-5 42 58 26 c144 65 181 74
303 73 63 -1 147 -6 185 -10z m-1070 -74 c50 -14 98 -28 108 -31 15 -5 17 -14
13 -57 -5 -50 -8 -108 -21 -367 -3 -63 -8 -140 -10 -170 -2 -30 -7 -143 -11
-250 -3 -107 -8 -208 -9 -225 -2 -16 -3 -75 -4 -131 l-1 -100 -52 -14 c-29 -7
-123 -35 -208 -62 -356 -112 -761 -203 -1055 -238 -49 -6 -112 -13 -140 -16
-111 -14 -320 -21 -493 -18 -143 3 -183 1 -180 -9 6 -18 199 -28 403 -22 278
9 557 41 835 96 245 48 643 156 790 214 48 19 90 35 93 35 3 0 4 -16 2 -36 -2
-20 -6 -178 -10 -352 -4 -175 -8 -346 -9 -382 -2 -36 -3 -87 -4 -113 l-2 -48
-863 3 -863 3 -76 -38 c-140 -69 -205 -167 -331 -497 -186 -487 -358 -816
-609 -1163 -227 -314 -271 -388 -293 -495 -8 -39 -19 -160 -25 -269 -5 -109
-15 -224 -21 -256 -7 -34 -8 -62 -3 -67 10 -9 275 -64 499 -104 350 -62 810
-119 1220 -151 39 -3 88 -7 110 -10 22 -2 101 -7 175 -11 74 -3 153 -8 175
-10 22 -2 231 -7 465 -10 234 -4 427 -9 430 -11 3 -3 6 -128 8 -278 l3 -273
-83 -6 c-46 -3 -225 -8 -398 -11 -173 -3 -364 -8 -425 -11 -212 -9 -1782 -12
-1993 -4 -235 9 -311 19 -453 55 -333 85 -503 248 -522 500 -7 84 8 165 113
621 56 241 113 489 127 549 65 289 73 393 47 600 -26 205 -19 342 26 476 39
116 80 179 183 284 117 119 175 196 236 317 52 101 42 93 281 207 120 56 199
121 262 213 75 111 118 258 118 402 0 68 4 81 40 148 21 40 47 102 56 138 29
114 2 254 -67 350 l-31 43 88 89 c91 92 232 204 329 262 53 32 58 33 197 39
164 6 239 23 353 77 104 50 183 111 341 262 179 172 268 230 442 287 128 43
281 64 492 69 99 2 128 -1 205 -23z m3095 -144 c90 -58 234 -129 416 -206
l162 -67 -19 -67 c-10 -36 -26 -85 -34 -108 l-16 -42 -72 31 c-141 60 -274
126 -427 212 -85 48 -158 91 -163 95 -8 8 73 190 85 191 4 0 35 -18 68 -39z
m-6234 13 c-3 -9 -9 -54 -12 -100 l-7 -84 -41 -11 c-146 -38 -374 -132 -506
-208 -47 -27 -87 -47 -89 -45 -2 2 4 37 14 79 l18 76 100 56 c55 31 157 82
226 115 69 32 162 76 206 98 90 44 100 46 91 24z m6118 -213 c102 -77 382
-226 558 -297 27 -10 48 -26 48 -33 0 -22 -113 -243 -126 -248 -18 -7 -167 72
-264 138 -47 32 -153 114 -236 182 l-151 123 56 86 c31 48 58 87 60 87 2 1 27
-16 55 -38z m-6135 -78 c1 -47 3 -91 4 -96 1 -5 -29 -20 -68 -33 -165 -57
-416 -181 -577 -288 l-28 -18 1 63 c0 35 4 84 7 109 7 42 12 48 72 88 94 63
285 155 440 212 74 27 138 49 141 50 4 0 7 -39 8 -87z m6029 -144 c157 -146
350 -288 486 -356 39 -19 72 -37 74 -38 9 -8 -129 -194 -145 -195 -36 -1 -633
463 -633 492 0 6 29 42 65 81 36 39 65 75 65 79 0 16 14 6 88 -63z m-6009 -46
c6 -38 13 -77 16 -88 5 -17 -4 -24 -57 -44 -134 -51 -394 -189 -550 -291 -100
-66 -95 -69 -100 59 l-2 83 94 60 c52 33 136 80 185 106 82 41 382 179 396
181 3 1 11 -29 18 -66z m5823 -111 c48 -62 328 -294 485 -402 l92 -64 -33 -40
c-18 -22 -59 -63 -92 -92 l-59 -52 -105 80 c-147 111 -205 164 -365 333 l-140
147 40 32 c22 17 60 50 85 73 25 23 45 43 46 43 0 0 21 -26 46 -58z m-5774
-94 c12 -39 21 -72 20 -73 -2 -1 -39 -21 -83 -45 -93 -50 -339 -200 -504 -307
-62 -41 -116 -71 -119 -68 -9 9 -40 169 -35 178 6 10 131 93 233 154 89 54
438 232 455 233 6 0 20 -32 33 -72z m5701 -202 c41 -47 101 -109 135 -139 64
-56 259 -212 285 -227 14 -8 12 -13 -9 -29 -37 -29 -120 -78 -161 -95 l-36
-15 -69 56 c-135 111 -251 243 -397 454 l-66 96 82 49 82 49 40 -57 c22 -31
73 -95 114 -142z m-5681 -113 c-102 -60 -308 -206 -487 -344 -69 -54 -130 -94
-134 -90 -13 13 -78 202 -72 211 5 9 342 223 557 354 71 43 131 83 135 89 4 6
25 -29 48 -78 l41 -90 -88 -52z m147 -38 c26 -38 49 -73 51 -76 2 -4 -26 -26
-63 -50 -146 -95 -338 -254 -511 -423 l-103 -101 -19 25 c-19 24 -100 173
-100 183 0 10 304 241 470 357 96 68 186 131 199 141 13 11 25 18 27 17 1 -2
23 -34 49 -73z m473 32 c102 -174 82 -341 -64 -532 -83 -109 -400 -417 -456
-443 -49 -23 -128 -40 -128 -27 0 3 47 57 104 118 119 127 318 363 380 450 33
47 44 57 61 51 34 -11 78 -10 82 3 3 8 -15 21 -42 33 -57 25 -155 89 -162 106
-2 7 10 35 28 61 53 79 159 213 169 213 4 0 17 -15 28 -33z m-354 -191 l46
-53 -83 -84 c-45 -46 -183 -191 -307 -322 l-225 -238 -67 70 c-103 107 -104
93 20 212 166 161 536 469 563 469 4 0 28 -24 53 -54z m114 -105 c26 -21 57
-44 70 -50 12 -7 22 -15 22 -19 0 -21 -387 -467 -503 -581 l-56 -54 -45 13
c-52 14 -139 66 -134 79 2 5 84 96 184 202 100 107 232 251 295 322 62 70 115
127 117 127 2 0 24 -17 50 -39z m1412 -893 c0 -5 -18 -51 -41 -102 l-40 -92
-132 42 c-73 24 -172 55 -222 70 l-90 27 52 24 c28 13 77 27 110 32 86 12 363
12 363 -1z m734 1 l579 0 -7 -337 c-4 -185 -6 -626 -6 -979 0 -353 -3 -644 -8
-646 -10 -6 -292 80 -417 128 -260 97 -459 219 -624 382 -57 57 -105 103 -107
103 -36 0 131 -169 266 -271 187 -141 479 -270 778 -344 l112 -27 0 -511 0
-510 -392 6 c-216 4 -418 9 -448 11 -30 3 -111 7 -180 11 -69 3 -147 8 -175
10 -27 2 -90 7 -140 10 -313 22 -816 83 -1180 145 -211 36 -514 96 -522 103
-1 2 1 17 6 34 5 18 46 66 106 124 346 334 726 813 1008 1271 216 349 461 831
612 1203 40 99 40 98 105 91 30 -3 316 -6 634 -7z m2208 -27 c3 -4 30 -69 58
-145 290 -781 712 -1520 1199 -2102 118 -141 341 -385 351 -385 4 0 11 -30 15
-67 4 -38 8 -70 9 -72 1 -6 -9 -7 -269 -26 -115 -8 -237 -17 -270 -20 -68 -5
-309 -22 -430 -30 -80 -6 -151 -10 -287 -20 -157 -11 -206 -15 -293 -20 -49
-3 -119 -7 -155 -10 -36 -2 -108 -7 -160 -10 -52 -3 -165 -10 -250 -15 -85 -5
-216 -12 -290 -15 -74 -3 -155 -8 -180 -10 -25 -2 -87 -5 -139 -6 l-94 -2 2
94 c1 52 6 218 11 369 5 151 12 349 15 440 3 91 7 224 10 295 12 347 35 1294
36 1515 0 113 3 216 6 230 l4 25 547 -3 c301 -2 550 -7 554 -10z m306 -18 c29
-9 69 -32 89 -49 l38 -32 -35 -8 c-34 -7 -243 -69 -274 -81 -17 -7 -25 7 -73
135 l-24 64 113 -6 c67 -3 135 -12 166 -23z m-3466 -144 l117 -42 -13 -31 c-8
-18 -28 -62 -46 -99 l-31 -67 -102 36 c-91 31 -320 129 -356 152 -21 13 -5 46
55 110 l54 58 102 -37 c57 -20 156 -56 220 -80z m3625 22 c20 -27 83 -146 83
-157 0 -17 -293 -135 -334 -135 -10 0 -86 172 -86 195 0 7 269 115 311 124 3
0 15 -12 26 -27z m-4035 -107 c62 -42 227 -121 323 -155 49 -17 91 -32 93 -34
2 -2 -21 -51 -50 -110 -33 -66 -58 -106 -68 -106 -28 0 -154 38 -215 65 -33
15 -99 49 -147 77 l-87 51 24 61 c37 97 74 176 83 176 4 0 24 -11 44 -25z
m4135 -97 c5 -13 25 -69 43 -126 37 -118 42 -106 -61 -161 -48 -26 -170 -61
-213 -61 -16 0 -111 210 -99 219 4 4 35 15 68 25 67 21 152 62 205 100 43 31
45 31 57 4z m-4239 -174 c63 -48 228 -129 315 -155 40 -12 73 -23 75 -24 2 -1
-23 -50 -55 -109 -39 -70 -64 -106 -75 -106 -18 0 -88 26 -167 62 -50 23 -231
137 -231 146 0 10 83 222 87 222 2 0 25 -16 51 -36z m4370 -176 c23 -51 42
-96 42 -100 0 -18 -141 -105 -211 -130 l-78 -27 -51 104 c-29 57 -49 108 -46
113 3 5 34 15 68 22 65 12 155 53 198 89 14 11 27 20 30 21 3 0 24 -42 48 -92z
m-4458 -83 c82 -60 155 -101 253 -141 45 -19 81 -39 79 -45 -6 -26 -108 -189
-117 -189 -42 0 -365 190 -365 214 0 11 83 205 87 206 2 0 30 -20 63 -45z
m4574 -140 c32 -52 54 -100 50 -106 -20 -33 -275 -173 -288 -158 -2 2 -27 48
-55 101 -48 88 -51 99 -34 104 114 41 195 86 237 133 11 11 22 21 26 21 4 0
33 -43 64 -95z m-4558 -178 c34 -21 88 -49 120 -63 33 -14 60 -27 62 -29 4 -4
-115 -194 -133 -214 -12 -12 -26 -5 -97 42 -91 61 -241 185 -236 195 2 4 26
51 53 104 l49 97 60 -48 c34 -26 89 -64 122 -84z m4698 -41 c55 -81 64 -100
53 -110 -189 -153 -268 -204 -285 -183 -18 23 -124 209 -120 211 2 2 42 21 90
44 50 24 109 62 140 91 29 27 54 48 54 48 1 -1 31 -46 68 -101z m-4769 -252
c47 -32 85 -60 85 -64 0 -7 -60 -96 -107 -158 l-24 -32 -62 47 c-34 26 -100
84 -146 129 l-84 80 54 96 54 96 72 -69 c40 -38 111 -94 158 -125z m4897 -114
c-42 -42 -105 -97 -139 -123 l-62 -48 -61 90 c-33 50 -60 94 -60 100 0 5 37
34 83 64 45 31 106 80 136 111 l54 55 63 -87 63 -87 -77 -75z m-5050 -95 c40
-32 77 -62 82 -66 6 -6 -78 -129 -124 -182 -12 -14 -49 11 -119 77 -69 66
-155 172 -149 184 2 4 28 47 58 94 l55 87 62 -68 c33 -37 94 -94 135 -126z
m5201 61 c31 -46 57 -86 57 -90 0 -32 -224 -256 -255 -256 -5 0 -39 41 -74 92
l-64 91 29 21 c60 43 164 138 201 181 20 25 40 45 43 45 4 0 32 -38 63 -84z
m-5508 -113 c25 -47 156 -186 201 -214 l34 -21 -82 -100 -82 -101 -38 44 c-37
42 -124 169 -162 235 l-18 31 58 81 c33 44 61 81 64 81 3 1 14 -16 25 -36z
m5643 -84 c30 -46 51 -87 48 -96 -11 -28 -129 -195 -171 -240 l-41 -46 -69 89
c-37 49 -72 94 -76 100 -5 6 15 27 52 54 59 43 141 132 176 191 10 16 20 29
23 29 3 0 29 -37 58 -81z m-5765 -131 c21 -40 67 -113 103 -161 l65 -88 -70
-78 c-103 -114 -95 -111 -131 -55 -32 50 -81 171 -102 247 l-12 45 53 81 c30
45 54 81 56 81 1 0 18 -33 38 -72z m5903 -84 l35 -62 -30 -82 c-27 -73 -87
-194 -114 -228 -8 -10 -15 -8 -31 12 -12 14 -47 57 -80 95 l-58 71 39 47 c50
61 114 155 143 213 l22 44 20 -24 c10 -13 35 -51 54 -86z m-6056 -69 c0 -35
53 -176 94 -249 l35 -62 -112 -112 c-62 -62 -114 -112 -117 -112 -8 0 9 319
20 388 18 108 80 222 80 147z m6129 -92 c11 -38 22 -90 25 -118 8 -75 10 -329
3 -335 -4 -3 -49 41 -101 98 l-94 103 39 67 c40 69 99 209 99 237 0 31 10 13
29 -52z"/>
<path d="M7420 17996 c0 -9 6 -16 14 -16 33 0 197 -95 270 -156 56 -48 81 -63
89 -55 8 8 -4 26 -44 63 -62 59 -140 109 -226 143 -92 36 -103 39 -103 21z"/>
<path d="M7180 17887 c-43 -11 -40 -12 75 -18 92 -5 137 -12 196 -32 88 -31
89 -31 89 -13 0 49 -246 92 -360 63z"/>
<path d="M12570 17770 c-58 -115 -103 -293 -76 -302 6 -2 23 42 38 97 25 84
41 127 95 253 3 7 -2 12 -11 12 -9 0 -28 -24 -46 -60z"/>
<path d="M12406 17615 c-32 -49 -56 -127 -67 -220 -11 -97 -5 -205 12 -205 5
0 9 1 9 3 1 1 5 61 10 134 7 98 15 149 35 205 38 109 38 108 27 108 -5 0 -17
-11 -26 -25z"/>
<path d="M14199 16638 c-17 -29 -39 -64 -47 -78 -9 -14 -38 -48 -64 -77 -47
-49 -51 -76 -9 -54 47 26 143 163 166 239 12 39 -12 24 -46 -30z"/>
<path d="M14074 16309 c-42 -47 -154 -123 -247 -167 -96 -45 -118 -72 -42 -51
73 20 193 90 259 151 37 33 66 66 66 74 0 20 -14 17 -36 -7z"/>
<path d="M10130 17301 c-33 -4 -46 -11 -48 -25 -4 -17 2 -18 62 -14 72 5 81 9
73 33 -7 16 -12 16 -87 6z"/>
<path d="M9790 17250 c-373 -76 -865 -367 -1118 -663 -77 -91 -172 -225 -172
-244 0 -32 29 -7 77 65 164 248 447 480 788 647 169 83 312 135 460 168 161
35 129 60 -35 27z"/>
<path d="M10240 16953 c-496 -56 -919 -243 -1375 -607 -115 -92 -465 -433
-465 -453 0 -7 5 -13 12 -13 6 0 88 76 182 168 316 310 560 488 881 643 558
270 1165 301 1666 85 57 -24 130 -59 162 -76 40 -22 57 -27 57 -18 0 20 -154
106 -275 155 -202 82 -370 113 -625 117 -102 2 -201 1 -220 -1z"/>
<path d="M7155 13418 c-16 -74 -26 -174 -24 -262 2 -118 22 -263 38 -279 14
-14 15 20 1 111 -19 136 -17 297 5 415 8 41 -11 55 -20 15z"/>
<path d="M7004 12715 c-9 -36 13 -183 34 -224 30 -61 42 -48 21 21 -11 35 -23
100 -26 146 -6 82 -17 104 -29 57z"/>
<path d="M13761 10824 c0 -11 3 -14 6 -6 3 7 2 16 -1 19 -3 4 -6 -2 -5 -13z"/>
<path d="M7445 17402 c-22 -10 -46 -26 -53 -34 -11 -14 -9 -14 30 -1 23 8 69
14 102 14 90 0 159 -28 264 -108 49 -37 62 -40 62 -17 0 25 -65 79 -146 120
-92 46 -194 57 -259 26z"/>
<path d="M7620 17300 c0 -5 21 -21 48 -34 26 -13 72 -42 102 -65 58 -43 80
-51 80 -26 0 19 -69 70 -145 106 -63 31 -85 35 -85 19z"/>
<path d="M9302 15628 c-153 -125 -311 -381 -373 -603 -20 -75 -25 -135 -9
-119 5 5 28 63 50 129 84 243 167 377 354 573 81 84 69 95 -22 20z"/>
<path d="M9170 14724 c-229 -49 -432 -167 -618 -358 -124 -127 -188 -214 -173
-229 15 -15 30 -5 147 90 127 103 275 189 396 231 97 34 112 36 260 40 110 3
201 -1 302 -13 80 -9 150 -14 155 -10 52 31 -92 228 -185 254 -53 15 -205 12
-284 -5z m318 -61 c40 -32 112 -121 112 -139 0 -7 -32 -6 -102 2 -235 28 -438
22 -565 -17 -84 -26 -215 -91 -308 -153 l-70 -47 50 51 c203 209 511 346 758
336 80 -3 92 -6 125 -33z"/>
<path d="M11151 14699 c-57 -11 -107 -46 -153 -107 -64 -83 -94 -167 -64 -178
7 -3 94 12 192 32 161 33 195 37 334 38 144 0 161 -2 240 -28 114 -38 254
-110 384 -196 98 -66 136 -80 136 -50 0 21 -235 246 -310 297 -144 98 -287
158 -443 188 -85 16 -244 18 -316 4z m372 -63 c161 -41 342 -138 472 -251 39
-35 38 -34 -55 14 -280 146 -481 165 -857 82 -51 -12 -98 -21 -104 -21 -28 0
72 141 125 176 62 40 263 40 419 0z"/>
<path d="M9205 14225 c-5 -2 -22 -6 -37 -9 -16 -4 -28 -13 -28 -20 0 -10 28
-15 123 -18 102 -4 132 -9 185 -30 100 -41 169 -87 250 -167 81 -80 82 -79 16
15 -68 97 -185 176 -310 208 -55 14 -176 27 -199 21z"/>
<path d="M11180 14130 c-64 -11 -135 -37 -205 -74 -66 -34 -178 -139 -214
-201 -22 -38 -19 -36 45 26 162 154 329 225 518 217 56 -2 81 1 84 10 9 29
-118 41 -228 22z"/>
<path d="M9085 14084 c-45 -9 -113 -36 -190 -76 -137 -69 -167 -73 -290 -39
-38 11 -71 18 -74 16 -7 -8 45 -64 81 -87 21 -12 38 -26 38 -30 0 -13 -116
-50 -180 -57 l-65 -6 89 -33 c112 -41 157 -51 227 -52 60 0 83 11 209 104 124
92 218 128 330 128 136 0 281 -59 425 -173 79 -62 115 -77 115 -46 0 30 -133
174 -215 232 -162 115 -327 154 -500 119z"/>
<path d="M11220 14004 c-153 -30 -320 -130 -445 -267 -105 -115 -79 -148 41
-52 171 137 392 207 549 175 86 -18 166 -57 273 -134 104 -75 146 -96 194 -96
50 0 164 27 247 57 l74 27 -69 12 c-38 6 -96 22 -129 34 -55 21 -57 24 -35 32
35 13 85 53 110 87 l20 30 -67 -20 c-37 -10 -95 -22 -128 -25 -57 -6 -64 -4
-150 40 -156 81 -214 98 -345 101 -63 2 -126 1 -140 -1z"/>
<path d="M10116 13760 c-21 -275 -83 -457 -192 -560 -30 -28 -54 -60 -54 -70
0 -11 25 -40 59 -68 116 -97 225 -143 335 -141 l61 1 -62 13 c-83 18 -189 75
-260 140 l-58 52 41 45 c75 81 110 156 139 296 17 81 21 274 7 347 -7 35 -9
29 -16 -55z"/>
<path d="M8950 13442 c0 -13 285 -292 298 -292 27 0 7 30 -70 106 -105 102
-209 194 -220 194 -4 0 -8 -4 -8 -8z"/>
<path d="M8755 13410 c-4 -6 15 -30 42 -53 26 -22 91 -83 144 -134 91 -89 119
-108 119 -80 0 19 -274 277 -295 277 -2 0 -7 -5 -10 -10z"/>
<path d="M11392 13294 c-92 -69 -172 -133 -179 -142 -12 -15 -9 -32 6 -32 10
0 355 278 359 290 9 25 -30 1 -186 -116z"/>
<path d="M8580 13377 c0 -18 276 -290 290 -285 17 5 -70 105 -184 211 -52 48
-97 87 -100 87 -3 0 -6 -6 -6 -13z"/>
<path d="M9225 13380 c-15 -24 199 -220 218 -201 8 8 -18 39 -92 109 -57 53
-107 98 -112 100 -4 2 -10 -2 -14 -8z"/>
<path d="M11588 13255 c-150 -112 -194 -155 -155 -155 6 0 55 34 107 76 52 41
130 100 173 131 42 31 77 60 77 65 0 25 -52 -5 -202 -117z"/>
<path d="M11824 13249 c-161 -129 -204 -168 -204 -186 0 -21 21 -6 170 119 74
62 148 123 164 136 19 15 26 26 20 32 -7 7 -58 -28 -150 -101z"/>
<path d="M11144 13277 c-50 -40 -104 -82 -120 -93 -23 -17 -26 -25 -17 -34 9
-10 26 -3 78 35 91 64 185 144 185 155 0 24 -42 3 -126 -63z"/>
<path d="M10074 12635 c-170 -26 -343 -82 -487 -158 -93 -49 -92 -43 -22 -193
100 -214 256 -398 395 -466 94 -46 183 -68 281 -68 107 0 172 14 264 59 195
93 355 267 480 520 38 78 44 96 33 107 -24 23 -207 112 -286 138 -146 49 -248
66 -412 71 -104 3 -185 0 -246 -10z m421 -41 c84 -15 182 -42 273 -76 l54 -20
-23 -24 c-27 -29 -116 -57 -249 -80 -115 -19 -576 -28 -690 -13 -41 5 -94 19
-118 30 -45 22 -70 55 -54 71 29 29 304 108 422 121 79 9 310 3 385 -9z m-75
-359 c129 -30 209 -78 266 -160 l37 -55 -24 -26 c-45 -49 -146 -124 -207 -154
-126 -62 -287 -74 -424 -31 -79 25 -198 102 -257 166 l-42 46 22 39 c41 72
157 145 274 174 80 19 273 20 355 1z"/>
<path d="M7619 11908 c-13 -210 40 -462 134 -627 47 -83 162 -211 190 -211 20
0 26 -8 -94 135 -94 111 -175 317 -195 492 -4 37 -9 71 -10 76 -1 4 -2 39 -3
77 0 39 -5 70 -11 70 -5 0 -10 -6 -11 -12z"/>
<path d="M8898 11435 c-3 -4 3 -37 13 -73 49 -167 65 -321 46 -434 -5 -30 -5
-48 1 -48 18 0 35 141 29 230 -9 128 -69 345 -89 325z"/>
<path d="M12630 12196 c0 -221 -72 -454 -201 -651 -48 -74 -205 -243 -273
-294 -16 -12 -26 -24 -23 -28 13 -12 62 23 154 111 178 170 303 398 348 638
21 113 24 318 5 318 -6 0 -10 -38 -10 -94z"/>
<path d="M10770 9652 c-22 -22 -40 -47 -40 -58 0 -14 12 -6 50 31 28 27 50 53
50 57 0 17 -21 6 -60 -30z"/>
<path d="M9430 9746 c49 -46 145 -115 148 -106 5 15 -33 54 -87 91 -48 31 -88
41 -61 15z"/>
<path d="M9610 9687 c0 -19 86 -100 101 -95 9 3 -4 23 -35 56 -49 53 -66 63
-66 39z"/>
<path d="M14615 7894 c-28 -19 -120 -79 -205 -131 -309 -191 -433 -283 -428
-318 4 -29 57 -23 165 18 153 60 213 71 373 72 80 0 164 -3 188 -8 53 -9 56 7
5 25 -25 8 -86 13 -173 13 -156 -1 -242 -17 -398 -76 -130 -49 -147 -50 -103
-5 47 49 166 132 322 227 143 87 306 196 315 210 11 18 -13 8 -61 -27z"/>
<path d="M15456 6319 c-33 -11 -127 -31 -210 -44 -181 -30 -253 -48 -306 -75
-72 -37 -75 -99 -8 -140 94 -57 338 -110 507 -110 230 0 243 25 19 33 -173 7
-297 27 -427 72 -41 14 -83 32 -93 42 -21 19 -23 46 -4 62 27 22 133 52 295
81 202 37 301 65 301 85 0 18 0 18 -74 -6z"/>
<path d="M14169 6069 c-3 -84 -44 -300 -75 -396 -30 -91 -92 -227 -136 -298
-87 -138 -241 -307 -350 -385 -47 -32 -59 -50 -37 -50 28 0 192 144 272 238
162 193 270 411 316 640 21 99 31 246 18 258 -4 4 -7 1 -8 -7z"/>
<path d="M15150 5330 c0 -7 14 -51 31 -97 106 -289 159 -554 164 -823 4 -180
-4 -265 -36 -410 -43 -189 -131 -391 -236 -538 -49 -69 -50 -92 -3 -47 73 70
179 260 230 413 54 163 72 271 77 480 7 264 -14 422 -93 692 -51 178 -134 380
-134 330z"/>
<path d="M14718 5013 c-126 -179 -311 -329 -534 -433 -150 -70 -508 -170 -608
-170 -52 0 -125 -22 -150 -45 -37 -35 -35 -88 5 -143 40 -54 165 -148 259
-194 160 -78 282 -103 461 -95 238 10 414 86 592 256 111 106 169 191 215 314
45 118 19 132 -31 17 -69 -158 -210 -329 -342 -415 -245 -160 -551 -187 -833
-73 -123 50 -273 162 -307 229 -38 73 -10 94 162 120 420 64 739 209 977 445
93 91 207 246 193 260 -3 3 -29 -30 -59 -73z"/>
<path d="M14894 3993 c-133 -188 -335 -376 -532 -495 -121 -73 -185 -97 -255
-98 -81 0 -73 -24 10 -28 54 -3 68 1 159 47 247 124 481 335 645 580 44 67 56
91 45 91 -2 0 -35 -44 -72 -97z"/>
<path d="M15597 4034 c-3 -5 -2 -27 2 -50 11 -59 12 -171 3 -236 -9 -60 2 -80
15 -30 12 41 9 284 -4 306 -5 10 -13 15 -16 10z"/>
<path d="M5566 8251 c-9 -14 -3 -34 116 -421 158 -517 242 -873 218 -935 -23
-61 -79 -10 -219 200 -47 72 -112 179 -145 238 -32 59 -62 107 -67 107 -13 0
-12 -5 27 -83 88 -175 269 -448 330 -496 57 -45 104 -13 104 71 0 122 -74 438
-200 857 -135 446 -150 486 -164 462z"/>
<path d="M5270 6683 c0 -5 38 -20 83 -35 219 -70 410 -195 524 -343 32 -41 50
-43 38 -5 -13 40 -155 178 -237 231 -101 64 -183 102 -294 134 -91 26 -114 30
-114 18z"/>
<path d="M5147 4634 c-9 -9 48 -119 98 -189 143 -201 410 -354 701 -400 89
-15 330 -23 341 -11 18 18 -19 26 -117 26 -447 0 -826 201 -990 526 -15 30
-30 51 -33 48z"/>
<path d="M4710 3842 c0 -11 92 -65 180 -106 97 -44 270 -88 270 -69 0 5 -41
19 -91 31 -106 26 -213 69 -294 117 -62 38 -65 39 -65 27z"/>
<path d="M10130 8692 c-30 -2 -59 -7 -64 -12 -5 -5 -5 -34 -1 -65 l7 -57 146
7 c194 9 186 6 179 66 -3 27 -9 54 -12 60 -6 9 -103 10 -255 1z m226 -47 c3
-14 5 -28 3 -29 -2 -2 -61 -7 -131 -11 l-128 -7 0 26 c0 33 10 36 187 44 60 3
63 2 69 -23z"/>
<path d="M13190 8299 c-63 -25 -107 -97 -117 -189 -14 -134 64 -218 182 -196
82 16 157 128 156 235 0 71 -20 114 -64 141 -35 22 -114 26 -157 9z m140 -24
c58 -30 76 -116 45 -206 -22 -60 -56 -102 -103 -123 -143 -65 -236 123 -137
275 41 63 130 88 195 54z"/>
<path d="M10200 7025 c0 -250 4 -385 10 -385 9 0 11 109 11 640 0 131 0 130
-11 130 -6 0 -10 -135 -10 -385z"/>
<path d="M13210 2152 c0 -29 147 -122 253 -160 123 -44 325 -69 342 -42 9 14
-8 18 -110 23 -49 3 -119 13 -155 22 -81 20 -210 82 -272 129 -48 37 -58 42
-58 28z"/>
<path d="M13440 1459 c0 -22 75 -110 125 -149 57 -43 147 -90 220 -113 114
-37 395 -66 403 -42 4 12 -34 19 -183 34 -225 22 -349 75 -473 198 -46 46 -85
83 -87 83 -3 0 -5 -5 -5 -11z"/>
<path d="M6770 1668 c-53 -73 -140 -145 -230 -192 -64 -33 -95 -44 -177 -66
-48 -12 -57 -30 -15 -30 55 0 166 43 251 97 99 62 246 222 224 244 -5 5 -26
-15 -53 -53z"/>
<path d="M6727 1204 c-4 -4 -36 -66 -71 -138 -85 -172 -134 -245 -228 -338
-73 -72 -91 -98 -69 -98 20 0 161 144 208 212 93 136 194 341 176 359 -5 5
-12 6 -16 3z"/>
<path d="M9220 1510 c0 -32 520 -143 547 -116 12 12 -4 16 -118 30 -113 14
-289 51 -381 80 -27 8 -48 11 -48 6z"/>
<path d="M10500 1822 c0 -14 6 -16 210 -56 239 -48 490 -82 800 -110 55 -5
156 -8 218 -7 56 2 35 19 -30 25 -35 3 -164 15 -288 26 -241 22 -483 55 -700
96 -190 36 -210 38 -210 26z"/>
<path d="M10880 1360 c-80 -4 -155 -8 -167 -9 -13 0 -23 -6 -23 -12 0 -9 64
-10 241 -6 237 7 275 11 248 28 -15 9 -78 9 -299 -1z"/>
<path d="M10189 5828 c0 -150 -2 -345 -4 -433 -2 -88 -6 -353 -10 -590 -6
-436 -21 -1094 -29 -1240 -14 -247 -18 -605 -7 -605 6 0 11 3 11 8 0 4 5 75
10 157 5 83 11 256 15 385 3 129 7 273 10 320 3 47 7 231 10 410 4 179 8 379
10 445 4 104 7 945 6 1293 -1 74 -5 122 -11 122 -6 0 -10 -98 -11 -272z"/>
<path d="M10119 2483 c-1 -76 1 -116 7 -122 10 -11 16 14 21 98 5 80 4 91 -11
91 -13 0 -16 -12 -17 -67z"/>
<path d="M10109 1595 c-2 -147 -2 -155 11 -155 6 0 10 47 10 120 0 73 -4 120
-10 120 -6 0 -11 -36 -11 -85z"/>
</g>
</svg>
